<svg width="1684" height="1971" fill="none" xmlns="http://www.w3.org/2000/svg"><ellipse cx="250.995" cy="-92.665" rx="831.272" ry="375.834" transform="rotate(-10.147 250.995 -92.665)" fill="#B0C5FD"/><path clip-rule="evenodd" d="M103.062 973.937c35.599-53.591 123.956-.106 188.284-1.162 66.793-1.096 149.658-53.786 195.435-5.134 48.41 51.449-7.824 136.049-5.812 206.669 1.273 44.69 38.203 91.48 15.402 129.94-23.008 38.81-78.384 39.2-122.156 50.14-28.637 7.15-58.837 12.64-86.363 1.98-23.25-9-24.929-46.89-48.736-54.3-47.346-14.73-114.205 32.92-144.99-5.95-25.73-32.49 53.282-66.96 54.431-108.39 2.07-74.66-86.822-151.58-45.495-213.793z" stroke="#E4EBFD" stroke-width="7"/><path clip-rule="evenodd" d="M133.075 863.389c35.599-53.591 123.956-.106 188.284-1.161 66.793-1.096 149.658-53.786 195.435-5.135 48.41 51.451-7.824 136.051-5.812 206.667 1.273 44.69 38.203 91.48 15.402 129.95-23.008 38.81-78.384 39.19-122.156 50.13-28.637 7.16-58.837 12.65-86.363 1.99-23.25-9.01-24.929-46.9-48.736-54.31-47.346-14.72-114.205 32.92-144.99-5.95-25.73-32.49 53.281-66.96 54.43-108.39 2.071-74.66-86.82-151.579-45.494-213.791z" stroke="#E4EBFD" stroke-width="7"/><path clip-rule="evenodd" d="M1456.37 1661.18c36.67-14.03 61.64 43.85 93.98 66.11 33.58 23.11 93.42 26.28 98.94 66.67 5.83 42.71-52.08 64.84-76.09 100.65-15.2 22.66-13.42 58.99-38.37 70.03-25.18 11.14-52.83-8.29-78.46-18.35-16.77-6.59-33.72-14.56-43.63-29.61-8.36-12.7 4.23-32.13-4.98-44.24-18.31-24.09-68.42-24.1-69.95-54.32-1.28-25.26 50.2-14.4 65.44-34.58 27.48-36.37 10.54-106.08 53.12-122.36z" stroke="#E0E8FC" stroke-width="5"/><path clip-rule="evenodd" d="M1193.3 351.242c20.64-39.115 49.89-71.313 86.23-96.512 37.38-25.922 78.4-52.669 123.75-49.088 44.91 3.545 74.59 44.363 113.07 67.786 46.75 28.46 126.18 30.272 136.36 84.051 10.43 55.078-74.96 81.342-95.15 133.635-20.13 52.118 25.85 129.25-19.14 162.377-44.11 32.482-103.33-21.461-156.94-32.718-42.73-8.973-87.15-4.746-125.02-26.486-42.95-24.656-88.98-55.587-101.43-103.517-12.44-47.848 15.21-95.801 38.27-139.528z" stroke="#F0F3FD" stroke-width="7"/></svg>