<svg width="233" height="56" viewBox="0 0 233 56" fill="none" xmlns="http://www.w3.org/2000/svg">
<rect y="1" width="53.4718" height="53.4718" rx="7.22593" fill="#00AADD"/>
<path d="M23.0301 38.1288H36.1295V43.3921H16.8604V11.598H23.0301V38.1288Z" fill="white"/>
<path d="M86.56 16.27H72.695V25.482H86.09V30.652H72.695V44H67.29V11.1H86.56V16.27ZM109.899 20.5H114.975V44H109.899V40.616C107.988 43.2793 105.246 44.611 101.674 44.611C98.4468 44.611 95.6895 43.4203 93.4022 41.039C91.1148 38.6263 89.9712 35.6967 89.9712 32.25C89.9712 28.772 91.1148 25.8423 93.4022 23.461C95.6895 21.0797 98.4468 19.889 101.674 19.889C105.246 19.889 107.988 21.205 109.899 23.837V20.5ZM97.1622 37.655C98.5722 39.065 100.343 39.77 102.473 39.77C104.604 39.77 106.374 39.065 107.784 37.655C109.194 36.2137 109.899 34.412 109.899 32.25C109.899 30.088 109.194 28.302 107.784 26.892C106.374 25.4507 104.604 24.73 102.473 24.73C100.343 24.73 98.5722 25.4507 97.1622 26.892C95.7522 28.302 95.0472 30.088 95.0472 32.25C95.0472 34.412 95.7522 36.2137 97.1622 37.655ZM131.984 44.611C128.443 44.611 125.482 43.4203 123.101 41.039C120.751 38.6577 119.576 35.728 119.576 32.25C119.576 28.7407 120.751 25.811 123.101 23.461C125.482 21.0797 128.443 19.889 131.984 19.889C134.271 19.889 136.355 20.4373 138.235 21.534C140.115 22.6307 141.525 24.1033 142.465 25.952L138.094 28.49C137.561 27.362 136.746 26.4847 135.65 25.858C134.584 25.2 133.347 24.871 131.937 24.871C129.869 24.871 128.13 25.576 126.72 26.986C125.341 28.396 124.652 30.1507 124.652 32.25C124.652 34.3493 125.341 36.104 126.72 37.514C128.13 38.924 129.869 39.629 131.937 39.629C133.315 39.629 134.553 39.3 135.65 38.642C136.778 37.984 137.624 37.1067 138.188 36.01L142.559 38.501C141.556 40.381 140.115 41.8693 138.235 42.966C136.355 44.0627 134.271 44.611 131.984 44.611ZM159.341 25.388H153.513V36.668C153.513 37.6393 153.732 38.3443 154.171 38.783C154.609 39.1903 155.252 39.4253 156.098 39.488C156.975 39.5193 158.056 39.5037 159.341 39.441V44C155.455 44.47 152.667 44.141 150.975 43.013C149.283 41.8537 148.437 39.7387 148.437 36.668V25.388H144.113V20.5H148.437V15.424L153.513 13.92V20.5H159.341V25.388ZM180.013 20.5H185.089V44H180.013V40.992C178.478 43.4047 176.049 44.611 172.728 44.611C170.033 44.611 167.856 43.7493 166.195 42.026C164.534 40.3027 163.704 37.937 163.704 34.929V20.5H168.78V34.412C168.78 36.1667 169.25 37.514 170.19 38.454C171.13 39.394 172.415 39.864 174.044 39.864C175.83 39.864 177.271 39.3157 178.368 38.219C179.465 37.091 180.013 35.3833 180.013 33.096V20.5ZM196.1 24.448C197.385 21.534 199.798 20.077 203.338 20.077V25.576C201.396 25.4507 199.704 25.9207 198.262 26.986C196.821 28.02 196.1 29.7433 196.1 32.156V44H191.024V20.5H196.1V24.448ZM224.599 20.5H229.675V44H224.599V40.616C222.688 43.2793 219.946 44.611 216.374 44.611C213.147 44.611 210.39 43.4203 208.102 41.039C205.815 38.6263 204.671 35.6967 204.671 32.25C204.671 28.772 205.815 25.8423 208.102 23.461C210.39 21.0797 213.147 19.889 216.374 19.889C219.946 19.889 222.688 21.205 224.599 23.837V20.5ZM211.862 37.655C213.272 39.065 215.043 39.77 217.173 39.77C219.304 39.77 221.074 39.065 222.484 37.655C223.894 36.2137 224.599 34.412 224.599 32.25C224.599 30.088 223.894 28.302 222.484 26.892C221.074 25.4507 219.304 24.73 217.173 24.73C215.043 24.73 213.272 25.4507 211.862 26.892C210.452 28.302 209.747 30.088 209.747 32.25C209.747 34.412 210.452 36.2137 211.862 37.655Z" fill="#393939"/>
</svg>
