<svg width="35" height="35" viewBox="0 0 35 35" fill="none" xmlns="http://www.w3.org/2000/svg">
<circle cx="17.5" cy="17.5" r="17.5" fill="white"/>
<path d="M9.5 10.9944L11.2874 14.0669C11.4356 14.3217 11.6886 14.4981 11.9789 14.549L15.5947 15.1838L13.1059 17.6518C12.8824 17.8734 12.7763 18.1872 12.8194 18.499L13.2898 21.8971L9.90658 20.3915C9.64776 20.2763 9.35224 20.2763 9.09342 20.3915L5.71023 21.8971L6.18056 18.499C6.22371 18.1872 6.11759 17.8734 5.89412 17.6518L3.40531 15.1838L7.02113 14.549C7.3114 14.4981 7.56441 14.3217 7.7126 14.0669L9.5 10.9944Z" stroke="#B3E6F5"/>
<path d="M25.5 10.9944L27.2874 14.0669C27.4356 14.3217 27.6886 14.4981 27.9789 14.549L31.5947 15.1838L29.1059 17.6518C28.8824 17.8734 28.7763 18.1872 28.8194 18.499L29.2898 21.8971L25.9066 20.3915C25.6478 20.2763 25.3522 20.2763 25.0934 20.3915L21.7102 21.8971L22.1806 18.499C22.2237 18.1872 22.1176 17.8734 21.8941 17.6518L19.4053 15.1838L23.0211 14.549C23.3114 14.4981 23.5644 14.3217 23.7126 14.0669L25.5 10.9944Z" stroke="#B3E6F5"/>
<path d="M16.6288 10.5456C17.0114 9.86693 17.9886 9.86693 18.3712 10.5456L20.2906 13.951C20.4333 14.2042 20.6791 14.3828 20.964 14.4403L24.7959 15.2134C25.5595 15.3675 25.8615 16.297 25.3343 16.8705L22.6887 19.7483C22.492 19.9623 22.3981 20.2512 22.4315 20.5399L22.8803 24.4232C22.9697 25.1971 22.1791 25.7715 21.4707 25.4473L17.9162 23.8205C17.6519 23.6995 17.3481 23.6995 17.0838 23.8205L13.5293 25.4473C12.8209 25.7715 12.0303 25.1971 12.1197 24.4232L12.5685 20.5399C12.6019 20.2512 12.508 19.9623 12.3113 19.7483L9.66569 16.8705C9.13847 16.297 9.44046 15.3675 10.2041 15.2134L14.036 14.4403C14.3209 14.3828 14.5667 14.2042 14.7094 13.951L16.6288 10.5456Z" fill="white"/>
<path d="M17.5 10.0183L19.9674 14.3959C20.1101 14.6491 20.3559 14.8276 20.6408 14.8851L25.5666 15.879L22.1657 19.5784C21.969 19.7923 21.8751 20.0813 21.9085 20.37L22.4854 25.3618L17.9162 23.2706C17.6519 23.1496 17.3481 23.1496 17.0838 23.2706L12.5146 25.3618L13.0915 20.37C13.1249 20.0813 13.031 19.7924 12.8343 19.5784L9.43342 15.879L14.3592 14.8851C14.6441 14.8276 14.8899 14.6491 15.0326 14.3959L17.5 10.0183Z" stroke="#B3E6F5"/>
</svg>
