<svg width="17" height="17" fill="none" xmlns="http://www.w3.org/2000/svg"><g clip-path="url(#clip0)"><path d="M15.195 11.365v2a1.334 1.334 0 01-1.453 1.333 13.193 13.193 0 01-5.754-2.046 13 13 0 01-4-4 13.193 13.193 0 01-2.046-5.78 1.333 1.333 0 011.326-1.454h2a1.333 1.333 0 011.334 1.147 8.56 8.56 0 00.466 1.873 1.333 1.333 0 01-.3 1.407l-.846.847a10.667 10.667 0 004 4l.846-.847a1.333 1.333 0 011.407-.3 8.56 8.56 0 001.873.466 1.333 1.333 0 011.147 1.354z" stroke="#59A3F5" stroke-linecap="round" stroke-linejoin="round"/></g><defs><clipPath id="clip0"><path fill="#fff" transform="translate(.528 .085)" d="M0 0h16v16H0z"/></clipPath></defs></svg>