<svg width="583" height="414" viewBox="0 0 583 414" fill="none" xmlns="http://www.w3.org/2000/svg">
<path d="M288.396 351.763C294.184 355.057 301.3 355.029 307.032 351.652L497.826 239.827L497.882 240.02V250.317C497.882 252.919 496.497 255.3 494.227 256.6L309.885 362.032C302.353 366.322 293.104 366.322 285.599 362.032L174.667 298.646L174.501 284.363L288.396 351.763Z" fill="url(#paint0_linear)"/>
<path d="M288.728 351.957L176.301 287.657C173.975 286.329 173.975 282.952 176.301 281.623L370.529 170.545C373.104 169.078 376.261 169.078 378.808 170.545L496.082 237.613C498.408 238.941 498.408 242.318 496.082 243.647L306.7 351.957C301.162 355.14 294.294 355.14 288.728 351.957Z" fill="#F0F0FC"/>
<path d="M222.989 270.8C221.272 271.797 218.448 271.797 216.731 270.8C214.986 269.804 214.986 268.198 216.703 267.202C218.42 266.205 221.245 266.205 222.962 267.202C224.706 268.198 224.706 269.804 222.989 270.8Z" fill="#CCDBEA"/>
<path d="M214.239 275.838C212.522 276.835 209.697 276.835 207.98 275.838C206.236 274.842 206.236 273.236 207.953 272.24C209.669 271.244 212.494 271.244 214.211 272.24C215.955 273.236 215.983 274.842 214.239 275.838Z" fill="#CCDBEA"/>
<path d="M205.516 280.848C203.799 281.845 200.974 281.845 199.257 280.848C197.513 279.852 197.513 278.246 199.23 277.25C200.946 276.253 203.771 276.253 205.488 277.25C207.232 278.246 207.232 279.852 205.516 280.848Z" fill="#CCDBEA"/>
<path d="M411.734 279.187L375.153 300.223C371.055 302.576 363.91 302.271 359.175 299.559L345.773 291.836C341.037 289.124 340.539 284.999 344.637 282.647L381.218 261.61C385.316 259.257 392.46 259.562 397.196 262.274L410.598 269.997C415.334 272.71 415.832 276.834 411.734 279.187Z" fill="#CBD3EF"/>
<path d="M125.626 135.281C127.066 130.16 131.386 125.593 136.26 122.936L315.312 28.2996C318.414 26.6665 322.041 26.362 325.364 27.4969L332.896 30.0434L270.535 59.5775V59.356L139.61 130.409C135.927 132.402 133.49 135.918 132.743 139.82C132.355 141.841 132.383 143.945 132.937 146.021L171.04 284.916C166.388 282.785 162.926 278.716 161.57 273.789L125.543 142.09C124.906 139.765 125.017 137.468 125.626 135.281Z" fill="url(#paint1_linear)"/>
<path d="M380.47 199.026L393.069 191.774L380.525 184.578L367.926 191.83L380.47 199.026Z" fill="#CBD3EF"/>
<path d="M365.462 207.635L378.062 200.383L365.545 193.186L352.918 200.466L365.462 207.635Z" fill="#CBD3EF"/>
<path d="M350.453 216.27L363.08 209.018L350.536 201.822L337.909 209.101L350.453 216.27Z" fill="#CBD3EF"/>
<path d="M335.443 224.907L348.07 217.682L335.526 210.43L322.926 217.71L335.443 224.907Z" fill="#CBD3EF"/>
<path d="M320.462 233.542L333.062 226.29L320.545 219.094L307.918 226.318L320.462 233.542Z" fill="#CBD3EF"/>
<path d="M305.455 242.179L318.082 234.899L305.566 227.702L292.938 234.954L305.455 242.179Z" fill="#CBD3EF"/>
<path d="M290.473 250.787L303.072 243.535L290.556 236.311L277.956 243.59L290.473 250.787Z" fill="#CBD3EF"/>
<path d="M275.492 259.423L288.092 252.171L275.575 244.974L262.948 252.226L275.492 259.423Z" fill="#CBD3EF"/>
<path d="M260.482 268.059L273.082 260.779L260.566 253.583L247.938 260.862L260.482 268.059Z" fill="#CBD3EF"/>
<path d="M245.502 276.695L258.102 269.443L245.557 262.218L232.958 269.47L245.502 276.695Z" fill="#CBD3EF"/>
<path d="M230.493 285.331L243.12 278.051L230.576 270.827L217.949 278.079L230.493 285.331Z" fill="#CBD3EF"/>
<path d="M215.484 293.939L228.111 286.687L215.595 279.463L202.968 286.715L215.484 293.939Z" fill="#CBD3EF"/>
<path d="M396.42 208.216L409.047 200.964L396.503 193.768L383.875 200.992L396.42 208.216Z" fill="#CBD3EF"/>
<path d="M381.438 216.852L394.065 209.6L381.494 202.375L368.894 209.655L381.438 216.852Z" fill="#CBD3EF"/>
<path d="M366.431 225.46L379.03 218.236L366.514 211.012L353.914 218.264L366.431 225.46Z" fill="#CBD3EF"/>
<path d="M351.422 234.097L364.049 226.845L351.532 219.648L338.905 226.9L351.422 234.097Z" fill="#CBD3EF"/>
<path d="M336.439 242.733L349.039 235.453L336.523 228.256L323.895 235.536L336.439 242.733Z" fill="#CBD3EF"/>
<path d="M321.459 251.369L334.059 244.116L321.514 236.892L308.915 244.172L321.459 251.369Z" fill="#CBD3EF"/>
<path d="M306.45 260.005L319.05 252.753L306.533 245.528L293.934 252.78L306.45 260.005Z" fill="#CBD3EF"/>
<path d="M291.47 268.613L304.069 261.361L291.525 254.136L278.953 261.416L291.47 268.613Z" fill="#CBD3EF"/>
<path d="M276.46 277.221L289.06 269.997L276.515 262.772L263.916 270.024L276.46 277.221Z" fill="#CBD3EF"/>
<path d="M261.452 285.885L274.079 278.605L261.535 271.408L248.935 278.66L261.452 285.885Z" fill="#CBD3EF"/>
<path d="M246.471 294.493L259.07 287.241L246.554 280.017L233.954 287.297L246.471 294.493Z" fill="#CBD3EF"/>
<path d="M231.49 303.129L244.09 295.877L231.546 288.653L218.946 295.905L231.49 303.129Z" fill="#CBD3EF"/>
<path d="M412.979 217.738L425.579 210.486L413.035 203.29L400.435 210.514L412.979 217.738Z" fill="#CBD3EF"/>
<path d="M397.971 226.375L410.57 219.095L398.054 211.898L385.454 219.15L397.971 226.375Z" fill="#CBD3EF"/>
<path d="M382.962 235.01L395.589 227.758L383.045 220.534L370.445 227.813L382.962 235.01Z" fill="#CBD3EF"/>
<path d="M367.981 243.647L380.581 236.367L368.064 229.17L355.437 236.395L367.981 243.647Z" fill="#CBD3EF"/>
<path d="M353 252.255L365.6 245.003L353.083 237.806L340.456 245.031L353 252.255Z" fill="#CBD3EF"/>
<path d="M337.992 260.89L350.619 253.638L338.075 246.414L325.448 253.666L337.992 260.89Z" fill="#CBD3EF"/>
<path d="M322.982 269.527L335.582 262.247L323.065 255.051L310.466 262.303L322.982 269.527Z" fill="#CBD3EF"/>
<path d="M308.002 278.135L320.602 270.883L308.085 263.687L295.458 270.939L308.002 278.135Z" fill="#CBD3EF"/>
<path d="M292.993 286.771L305.62 279.519L293.076 272.295L280.476 279.575L292.993 286.771Z" fill="#CBD3EF"/>
<path d="M278.012 295.407L290.611 288.155L278.095 280.931L265.468 288.155L278.012 295.407Z" fill="#CBD3EF"/>
<path d="M263.003 304.016L275.63 296.764L263.086 289.567L250.486 296.819L263.003 304.016Z" fill="#CBD3EF"/>
<path d="M248.022 312.652L260.621 305.4L248.077 298.175L235.477 305.427L248.022 312.652Z" fill="#CBD3EF"/>
<path d="M340.844 38.3474L372.356 169.548L171.04 284.889L132.853 145.606C131.247 139.737 133.905 133.51 139.278 130.603L323.675 30.9016C330.459 27.2202 338.905 30.8739 340.844 38.3474Z" fill="#27317A"/>
<path d="M404.258 305.04L410.765 301.303C411.679 300.777 412.427 299.365 412.427 298.147C412.427 296.929 411.679 296.376 410.765 296.902L404.258 300.638C403.344 301.164 402.596 302.576 402.596 303.794C402.624 305.012 403.372 305.565 404.258 305.04Z" fill="white"/>
<path opacity="0.43" d="M2.75863 207.802L46.788 182.254C51.1356 179.735 56.5077 179.735 60.8553 182.226L102.946 218.957L67.6951 244.173H46.3727L2.62017 217.241C-0.924332 215.082 -0.86895 209.906 2.75863 207.802Z" fill="#6878D4"/>
<path d="M23.3891 93.3477H115.602V218.127C115.602 219.234 115.048 220.341 113.94 220.978L75.2274 243.315C71.6829 245.364 67.3354 245.364 63.7908 243.315L25.189 221.033C24.0813 220.397 23.5552 219.234 23.6106 218.099H23.3613V93.3477H23.3891Z" fill="url(#paint2_linear)"/>
<path d="M75.172 118.73L113.885 96.3924C116.072 95.1191 116.072 91.9637 113.885 90.6904L74.9505 68.2146C71.7383 66.3601 67.7784 66.3601 64.5385 68.2146L25.1059 90.9672C23.0013 92.1851 23.0013 95.2298 25.1059 96.4477L63.7078 118.73C67.28 120.778 71.6552 120.778 75.172 118.73Z" fill="white"/>
<path d="M73.2889 110.288L101.202 94.1786C102.78 93.2652 102.78 90.9955 101.202 90.082L73.1228 73.8895C70.7967 72.5609 67.9445 72.5609 65.6184 73.8895L37.2069 90.2758C35.6839 91.1616 35.6839 93.3482 37.2069 94.234L65.0368 110.288C67.6122 111.755 70.7413 111.755 73.2889 110.288Z" fill="#3E477E"/>
<path d="M101.23 92.2131L73.1233 76.0483C70.7972 74.7196 67.945 74.7196 65.6189 76.0483L37.1521 92.4069C36.7921 92.6283 36.5152 92.9051 36.3214 93.2372C35.7121 92.2131 35.9891 90.7738 37.1521 90.1095L65.6189 73.7509C67.945 72.4222 70.7972 72.4222 73.1233 73.7509L101.23 89.9157C102.421 90.6077 102.725 92.047 102.116 93.1265C101.922 92.7667 101.618 92.4345 101.23 92.2131Z" fill="url(#paint3_linear)"/>
<path d="M79.5753 213.477L102.642 200.163C104.414 199.139 105.494 197.257 105.494 195.208V118.591L105.799 118.425C107.267 117.567 109.122 118.647 109.122 120.335V197.727C109.122 199.776 108.042 201.658 106.27 202.682L83.2029 215.996C81.1814 217.158 78.7445 216.023 78.1907 213.92C78.6614 213.864 79.1322 213.754 79.5753 213.477Z" fill="#36399F"/>
<path d="M78.0525 138.521C78.0525 135.974 79.4094 133.649 81.5971 132.376L105.522 118.564V195.181C105.522 197.229 104.442 199.111 102.67 200.136L79.6033 213.449C79.1602 213.726 78.6618 213.837 78.191 213.865C78.1079 213.588 78.0803 213.283 78.0803 212.979V138.521H78.0525Z" fill="#27317A"/>
<path d="M99.1258 193.382C99.9565 192.911 100.621 191.61 100.621 190.503V129.553C100.621 128.445 99.9565 127.947 99.1258 128.418C98.2951 128.888 97.6305 130.189 97.6305 131.296V192.247C97.6305 193.354 98.2951 193.852 99.1258 193.382Z" fill="#FF55A2"/>
<path d="M92.9777 196.759C93.7807 196.288 94.4453 195.043 94.4453 193.963V153.911C94.4453 152.832 93.7807 152.333 92.9777 152.804C92.1746 153.274 91.51 154.52 91.51 155.6V195.652C91.51 196.731 92.1746 197.23 92.9777 196.759Z" fill="white"/>
<path d="M86.6926 140.348C87.4956 139.877 88.1602 140.376 88.1602 141.455V157.758V181.507V197.811C88.1602 198.89 87.4956 200.136 86.6926 200.606C85.8895 201.077 85.2249 200.578 85.2249 199.499V183.196V159.447V143.143C85.2249 142.064 85.8618 140.818 86.6926 140.348Z" fill="#FF55A2"/>
<path opacity="0.43" d="M74.3415 344.76L100.316 329.703C102.891 328.208 106.048 328.208 108.623 329.703L141.881 348.912L112.639 366.267H100.067L74.2584 350.379C72.1538 349.078 72.2092 346.006 74.3415 344.76Z" fill="#6878D4"/>
<path d="M81.6243 331.115V347.307C81.6243 348.11 82.012 348.885 82.8151 349.328L110.451 365.271C112.971 366.738 116.1 366.738 118.62 365.271L146.173 349.383C146.976 348.913 147.336 348.11 147.308 347.307H147.475V331.115H81.6243Z" fill="url(#paint4_linear)"/>
<path d="M110.478 348.913L82.8417 332.969C81.2633 332.056 81.2633 329.814 82.8417 328.9L110.644 312.874C112.942 311.545 115.767 311.545 118.065 312.874L146.2 329.122C147.695 329.98 147.695 332.167 146.2 333.052L118.647 348.94C116.099 350.38 112.998 350.38 110.478 348.913Z" fill="white"/>
<path d="M107.045 353.48C107.572 353.784 108.015 354.615 108.015 355.334C108.015 356.054 107.572 356.386 107.045 356.054L89.2121 345.757L89.1845 343.155L107.045 353.48Z" fill="#212D60"/>
<path d="M86.6643 341.743L89.1843 343.183L89.2119 345.784L86.692 344.317C86.1659 344.013 85.7228 343.183 85.7228 342.463C85.7228 341.771 86.1382 341.439 86.6643 341.743Z" fill="#212D60"/>
<path d="M81.6243 309.994V326.187C81.6243 326.989 82.012 327.764 82.8151 328.207L110.451 344.151C112.971 345.618 116.1 345.618 118.62 344.151L146.173 328.263C146.976 327.792 147.336 326.989 147.308 326.187H147.475V309.994H81.6243Z" fill="url(#paint5_linear)"/>
<path d="M110.478 327.82L82.8417 311.877C81.2633 310.964 81.2633 308.721 82.8417 307.808L110.644 291.782C112.942 290.453 115.767 290.453 118.065 291.782L146.2 308.029C147.695 308.888 147.695 311.074 146.2 311.96L118.647 327.848C116.099 329.26 112.998 329.26 110.478 327.82Z" fill="white"/>
<path d="M107.045 332.387C107.572 332.692 108.015 333.522 108.015 334.242C108.015 334.962 107.572 335.294 107.045 334.962L89.2121 324.665L89.1845 322.063L107.045 332.387Z" fill="#212D60"/>
<path d="M86.6643 320.624L89.1843 322.063L89.2119 324.665L86.692 323.198C86.1659 322.893 85.7228 322.063 85.7228 321.343C85.7228 320.651 86.1381 320.319 86.6643 320.624Z" fill="#212D60"/>
<path d="M81.6243 288.848V305.04C81.6243 305.843 82.012 306.618 82.8151 307.061L110.451 323.004C112.971 324.471 116.1 324.471 118.62 323.004L146.173 307.116C146.976 306.646 147.336 305.843 147.308 305.04H147.475V288.848H81.6243Z" fill="url(#paint6_linear)"/>
<path d="M110.479 306.646L82.8427 290.702C81.2643 289.789 81.2643 287.547 82.8427 286.633L110.645 270.607C112.943 269.278 115.768 269.278 118.066 270.607L146.201 286.855C147.696 287.713 147.696 289.899 146.201 290.785L118.648 306.673C116.1 308.113 112.999 308.113 110.479 306.646Z" fill="white"/>
<path d="M107.045 311.213C107.572 311.517 108.015 312.348 108.015 313.067C108.015 313.787 107.572 314.119 107.045 313.787L89.2121 303.49L89.1845 300.888L107.045 311.213Z" fill="#212D60"/>
<path d="M86.6643 299.477L89.1843 300.916L89.2119 303.518L86.692 302.051C86.1659 301.747 85.7228 300.916 85.7228 300.196C85.7228 299.477 86.1381 299.172 86.6643 299.477Z" fill="#212D60"/>
<path d="M81.6243 267.534V283.727C81.6243 284.529 82.012 285.304 82.8151 285.747L110.451 301.691C112.971 303.158 116.1 303.158 118.62 301.691L146.173 285.803C146.976 285.332 147.336 284.529 147.308 283.727H147.475V267.534H81.6243Z" fill="url(#paint7_linear)"/>
<path d="M110.479 285.36L82.8427 269.417C81.2643 268.504 81.2643 266.262 82.8427 265.348L110.645 249.322C112.943 247.993 115.768 247.993 118.066 249.322L146.201 265.57C147.696 266.428 147.696 268.614 146.201 269.5L118.648 285.388C116.1 286.8 112.999 286.8 110.479 285.36Z" fill="white"/>
<path d="M107.045 289.927C107.572 290.231 108.015 291.062 108.015 291.782C108.015 292.501 107.572 292.833 107.045 292.501L89.2121 282.204L89.1845 279.603L107.045 289.927Z" fill="#212D60"/>
<path d="M86.6643 278.163L89.1843 279.602L89.2119 282.204L86.692 280.737C86.1659 280.433 85.7228 279.602 85.7228 278.883C85.7228 278.191 86.1381 277.859 86.6643 278.163Z" fill="#212D60"/>
<path d="M119.95 292.225C119.95 292.945 119.452 293.803 118.843 294.163C118.233 294.522 117.735 294.246 117.735 293.526C117.735 292.806 118.233 291.948 118.843 291.588C119.452 291.229 119.95 291.505 119.95 292.225Z" fill="#212D60"/>
<path d="M123.882 289.956C123.882 290.676 123.383 291.534 122.774 291.893C122.165 292.253 121.667 291.977 121.667 291.257C121.667 290.537 122.165 289.679 122.774 289.319C123.383 288.96 123.882 289.236 123.882 289.956Z" fill="#212D60"/>
<path d="M127.813 287.658C127.813 288.378 127.315 289.236 126.706 289.596C126.097 289.955 125.598 289.679 125.598 288.959C125.598 288.239 126.097 287.381 126.706 287.021C127.315 286.689 127.813 286.966 127.813 287.658Z" fill="#212D60"/>
<path d="M131.773 285.388C131.773 286.108 131.275 286.966 130.666 287.326C130.057 287.686 129.558 287.409 129.558 286.689C129.558 285.97 130.057 285.112 130.666 284.752C131.247 284.392 131.773 284.696 131.773 285.388Z" fill="#212D60"/>
<path d="M135.706 283.119C135.706 283.839 135.208 284.697 134.598 285.056C133.989 285.416 133.491 285.14 133.491 284.42C133.491 283.7 133.989 282.842 134.598 282.482C135.208 282.122 135.706 282.427 135.706 283.119Z" fill="#FF55A2"/>
<path d="M139.638 280.849C139.638 281.569 139.139 282.427 138.53 282.787C137.921 283.146 137.422 282.87 137.422 282.15C137.422 281.43 137.921 280.572 138.53 280.212C139.139 279.853 139.638 280.129 139.638 280.849Z" fill="#FF55A2"/>
<path d="M143.57 278.579C143.57 279.299 143.072 280.157 142.463 280.517C141.853 280.876 141.355 280.6 141.355 279.88C141.355 279.16 141.853 278.302 142.463 277.942C143.072 277.583 143.57 277.859 143.57 278.579Z" fill="#FF55A2"/>
<path d="M119.367 314.286C119.367 315.005 118.869 315.863 118.26 316.223C117.65 316.583 117.152 316.306 117.152 315.587C117.152 314.867 117.65 314.009 118.26 313.649C118.869 313.289 119.367 313.566 119.367 314.286Z" fill="#212D60"/>
<path d="M123.299 312.016C123.299 312.735 122.8 313.593 122.191 313.953C121.582 314.313 121.084 314.036 121.084 313.316C121.084 312.597 121.582 311.739 122.191 311.379C122.8 311.019 123.299 311.296 123.299 312.016Z" fill="#284CF9"/>
<path d="M127.26 309.746C127.26 310.466 126.761 311.324 126.152 311.684C125.543 312.043 125.044 311.767 125.044 311.047C125.044 310.327 125.543 309.469 126.152 309.109C126.734 308.75 127.26 309.026 127.26 309.746Z" fill="#284CF9"/>
<path d="M131.191 307.476C131.191 308.196 130.693 309.054 130.084 309.414C129.475 309.773 128.976 309.497 128.976 308.777C128.976 308.057 129.475 307.199 130.084 306.839C130.693 306.48 131.191 306.756 131.191 307.476Z" fill="#284CF9"/>
<path d="M135.124 305.179C135.124 305.899 134.626 306.757 134.016 307.117C133.407 307.476 132.909 307.2 132.909 306.48C132.909 305.76 133.407 304.902 134.016 304.542C134.626 304.21 135.124 304.487 135.124 305.179Z" fill="#284CF9"/>
<path d="M139.056 302.909C139.056 303.629 138.557 304.487 137.948 304.847C137.339 305.207 136.84 304.93 136.84 304.21C136.84 303.491 137.339 302.633 137.948 302.273C138.557 301.913 139.056 302.217 139.056 302.909Z" fill="#284CF9"/>
<path d="M142.988 300.639C142.988 301.359 142.49 302.217 141.881 302.577C141.271 302.937 140.773 302.66 140.773 301.94C140.773 301.221 141.271 300.363 141.881 300.003C142.49 299.643 142.988 299.947 142.988 300.639Z" fill="#212D60"/>
<path d="M120.227 335.543C120.227 336.263 119.728 337.121 119.119 337.481C118.51 337.841 118.011 337.564 118.011 336.844C118.011 336.125 118.51 335.267 119.119 334.907C119.728 334.547 120.227 334.824 120.227 335.543Z" fill="#FF55A2"/>
<path d="M124.187 333.273C124.187 333.993 123.688 334.851 123.079 335.211C122.47 335.571 121.971 335.294 121.971 334.574C121.971 333.855 122.47 332.997 123.079 332.637C123.66 332.277 124.187 332.554 124.187 333.273Z" fill="#212D60"/>
<path d="M128.118 331.004C128.118 331.723 127.62 332.582 127.01 332.941C126.401 333.301 125.903 333.024 125.903 332.305C125.903 331.585 126.401 330.727 127.01 330.367C127.62 330.007 128.118 330.284 128.118 331.004Z" fill="#212D60"/>
<path d="M132.051 328.734C132.051 329.453 131.552 330.312 130.943 330.671C130.334 331.031 129.835 330.754 129.835 330.035C129.835 329.315 130.334 328.457 130.943 328.097C131.552 327.737 132.051 328.014 132.051 328.734Z" fill="#FF55A2"/>
<path d="M135.982 326.464C135.982 327.184 135.484 328.042 134.875 328.402C134.266 328.762 133.767 328.485 133.767 327.765C133.767 327.046 134.266 326.187 134.875 325.828C135.484 325.468 135.982 325.745 135.982 326.464Z" fill="#FF55A2"/>
<path d="M139.915 324.194C139.915 324.914 139.417 325.772 138.807 326.132C138.198 326.492 137.7 326.215 137.7 325.495C137.7 324.776 138.198 323.917 138.807 323.558C139.417 323.198 139.915 323.475 139.915 324.194Z" fill="#FF55A2"/>
<path d="M143.875 321.897C143.875 322.617 143.377 323.475 142.767 323.835C142.158 324.195 141.66 323.918 141.66 323.198C141.66 322.479 142.158 321.62 142.767 321.261C143.377 320.901 143.875 321.205 143.875 321.897Z" fill="#FF55A2"/>
<path d="M120.53 355.417C120.53 356.137 120.032 356.995 119.423 357.355C118.813 357.715 118.315 357.438 118.315 356.718C118.315 355.999 118.813 355.141 119.423 354.781C120.032 354.421 120.53 354.698 120.53 355.417Z" fill="#212D60"/>
<path d="M124.463 353.12C124.463 353.84 123.964 354.698 123.355 355.058C122.746 355.418 122.248 355.141 122.248 354.421C122.248 353.702 122.746 352.844 123.355 352.484C123.964 352.152 124.463 352.428 124.463 353.12Z" fill="#212D60"/>
<path d="M128.395 350.851C128.395 351.57 127.896 352.429 127.287 352.788C126.678 353.148 126.179 352.871 126.179 352.152C126.179 351.432 126.678 350.574 127.287 350.214C127.896 349.854 128.395 350.159 128.395 350.851Z" fill="#284CF9"/>
<path d="M132.327 348.581C132.327 349.3 131.829 350.159 131.219 350.518C130.61 350.878 130.112 350.601 130.112 349.882C130.112 349.162 130.61 348.304 131.219 347.944C131.829 347.584 132.327 347.889 132.327 348.581Z" fill="#284CF9"/>
<path d="M136.287 346.311C136.287 347.031 135.789 347.889 135.179 348.249C134.57 348.609 134.072 348.332 134.072 347.612C134.072 346.893 134.57 346.034 135.179 345.675C135.761 345.315 136.287 345.619 136.287 346.311Z" fill="#284CF9"/>
<path d="M140.219 344.041C140.219 344.761 139.72 345.619 139.111 345.978C138.502 346.338 138.003 346.062 138.003 345.342C138.003 344.622 138.502 343.764 139.111 343.404C139.72 343.044 140.219 343.321 140.219 344.041Z" fill="#212D60"/>
<path d="M144.151 341.771C144.151 342.491 143.653 343.349 143.044 343.709C142.434 344.069 141.936 343.792 141.936 343.072C141.936 342.353 142.434 341.495 143.044 341.135C143.653 340.775 144.151 341.052 144.151 341.771Z" fill="#212D60"/>
<path opacity="0.43" d="M415.418 159.584L441.392 144.527C443.967 143.032 447.124 143.032 449.7 144.527L482.957 163.736L453.715 181.091H441.143L415.335 165.203C413.23 163.875 413.285 160.802 415.418 159.584Z" fill="#6878D4"/>
<path d="M422.672 145.911V162.104C422.672 162.906 423.06 163.681 423.863 164.124L451.499 180.068C454.019 181.535 457.148 181.535 459.668 180.068L487.221 164.18C488.024 163.709 488.384 162.906 488.356 162.104H488.522V145.911H422.672Z" fill="url(#paint8_linear)"/>
<path d="M451.527 163.709L423.891 147.766C422.312 146.852 422.312 144.61 423.891 143.697L451.693 127.67C453.991 126.342 456.816 126.342 459.114 127.67L487.249 143.89C488.744 144.749 488.744 146.935 487.249 147.821L459.696 163.709C457.176 165.176 454.047 165.176 451.527 163.709Z" fill="#F0F0FC"/>
<path d="M448.093 168.276C448.619 168.58 449.062 169.411 449.062 170.13C449.062 170.85 448.619 171.182 448.093 170.85L430.26 160.553L430.232 157.951L448.093 168.276Z" fill="#212D60"/>
<path d="M427.739 156.54L430.259 157.979L430.287 160.581L427.767 159.114C427.241 158.809 426.798 157.979 426.798 157.259C426.77 156.567 427.213 156.235 427.739 156.54Z" fill="#212D60"/>
<path d="M422.672 124.791V140.983C422.672 141.786 423.06 142.561 423.863 143.004L451.499 158.947C454.019 160.414 457.148 160.414 459.668 158.947L487.221 143.059C488.024 142.588 488.384 141.786 488.356 140.983H488.522V124.791H422.672Z" fill="url(#paint9_linear)"/>
<path d="M451.527 142.616L423.891 126.673C422.312 125.759 422.312 123.517 423.891 122.604L451.693 106.578C453.991 105.249 456.816 105.249 459.114 106.578L487.249 122.825C488.744 123.683 488.744 125.87 487.249 126.756L459.696 142.644C457.176 144.056 454.047 144.056 451.527 142.616Z" fill="#F0F0FC"/>
<path d="M448.093 147.184C448.619 147.488 449.062 148.319 449.062 149.038C449.062 149.758 448.619 150.09 448.093 149.758L430.26 139.461L430.232 136.859L448.093 147.184Z" fill="#212D60"/>
<path d="M427.739 135.419L430.259 136.859L430.287 139.461L427.767 137.994C427.241 137.689 426.798 136.859 426.798 136.139C426.77 135.447 427.213 135.115 427.739 135.419Z" fill="#212D60"/>
<path d="M461.302 150.34C461.302 151.06 460.803 151.918 460.194 152.278C459.585 152.638 459.086 152.361 459.086 151.641C459.086 150.921 459.585 150.063 460.194 149.703C460.803 149.344 461.302 149.648 461.302 150.34Z" fill="#FF55A2"/>
<path d="M465.234 148.07C465.234 148.79 464.736 149.648 464.127 150.008C463.518 150.368 463.019 150.091 463.019 149.371C463.019 148.651 463.518 147.793 464.127 147.434C464.736 147.074 465.234 147.351 465.234 148.07Z" fill="#212D60"/>
<path d="M469.167 145.8C469.167 146.52 468.669 147.378 468.059 147.738C467.45 148.098 466.952 147.821 466.952 147.101C466.952 146.381 467.45 145.523 468.059 145.164C468.669 144.804 469.167 145.081 469.167 145.8Z" fill="#212D60"/>
<path d="M473.126 143.531C473.126 144.25 472.628 145.108 472.018 145.468C471.409 145.828 470.911 145.551 470.911 144.832C470.911 144.112 471.409 143.254 472.018 142.894C472.628 142.534 473.126 142.811 473.126 143.531Z" fill="#FF55A2"/>
<path d="M477.059 141.261C477.059 141.98 476.56 142.838 475.951 143.198C475.342 143.558 474.843 143.281 474.843 142.562C474.843 141.842 475.342 140.984 475.951 140.624C476.56 140.264 477.059 140.541 477.059 141.261Z" fill="#FF55A2"/>
<path d="M480.991 138.991C480.991 139.711 480.493 140.569 479.884 140.929C479.274 141.289 478.776 141.012 478.776 140.292C478.776 139.572 479.274 138.714 479.884 138.354C480.493 137.995 480.991 138.271 480.991 138.991Z" fill="#FF55A2"/>
<path d="M484.923 136.721C484.923 137.441 484.424 138.299 483.815 138.659C483.206 139.018 482.708 138.742 482.708 138.022C482.708 137.302 483.206 136.444 483.815 136.084C484.424 135.725 484.923 136.001 484.923 136.721Z" fill="#FF55A2"/>
<path d="M461.579 170.214C461.579 170.933 461.081 171.791 460.471 172.151C459.862 172.511 459.364 172.234 459.364 171.515C459.364 170.795 459.862 169.937 460.471 169.577C461.081 169.217 461.579 169.494 461.579 170.214Z" fill="#212D60"/>
<path d="M465.539 167.944C465.539 168.664 465.041 169.522 464.431 169.882C463.822 170.242 463.324 169.965 463.324 169.245C463.324 168.526 463.822 167.667 464.431 167.308C465.041 166.948 465.539 167.225 465.539 167.944Z" fill="#212D60"/>
<path d="M469.472 165.647C469.472 166.367 468.973 167.225 468.364 167.584C467.755 167.944 467.256 167.667 467.256 166.948C467.256 166.228 467.755 165.37 468.364 165.01C468.973 164.678 469.472 164.955 469.472 165.647Z" fill="#284CF9"/>
<path d="M473.403 163.377C473.403 164.096 472.905 164.954 472.296 165.314C471.686 165.674 471.188 165.397 471.188 164.678C471.188 163.958 471.686 163.1 472.296 162.74C472.905 162.38 473.403 162.685 473.403 163.377Z" fill="#284CF9"/>
<path d="M477.336 161.107C477.336 161.827 476.837 162.685 476.228 163.045C475.619 163.405 475.121 163.128 475.121 162.408C475.121 161.688 475.619 160.83 476.228 160.471C476.837 160.111 477.336 160.415 477.336 161.107Z" fill="#284CF9"/>
<path d="M481.296 158.837C481.296 159.557 480.797 160.415 480.188 160.775C479.579 161.135 479.081 160.858 479.081 160.138C479.081 159.418 479.579 158.56 480.188 158.201C480.77 157.841 481.296 158.145 481.296 158.837Z" fill="#212D60"/>
<path d="M485.228 156.568C485.228 157.287 484.729 158.146 484.12 158.505C483.511 158.865 483.012 158.588 483.012 157.869C483.012 157.149 483.511 156.291 484.12 155.931C484.729 155.571 485.228 155.848 485.228 156.568Z" fill="#212D60"/>
<path opacity="0.43" d="M176.717 49.6968L202.692 34.6391C205.267 33.1444 208.424 33.1444 210.999 34.6391L244.257 53.8487L215.015 71.2038H202.443L176.634 55.3157C174.557 53.9871 174.585 50.9147 176.717 49.6968Z" fill="#6878D4"/>
<path d="M184 36.0229V52.2155C184 53.0182 184.388 53.7932 185.191 54.2361L212.827 70.1795C215.347 71.6465 218.476 71.6465 220.996 70.1795L248.549 54.2914C249.352 53.8209 249.712 53.0182 249.684 52.2155H249.851V36.0229H184Z" fill="url(#paint10_linear)"/>
<path d="M212.855 53.8209L185.219 37.8774C183.64 36.964 183.64 34.722 185.219 33.8086L213.021 17.7821C215.319 16.4535 218.144 16.4535 220.442 17.7821L248.577 34.0023C250.072 34.8604 250.072 37.0471 248.577 37.9328L221.024 53.8209C218.504 55.2879 215.375 55.2879 212.855 53.8209Z" fill="#F0F0FC"/>
<path d="M209.42 58.3879C209.947 58.6924 210.39 59.5228 210.39 60.2425C210.39 60.9621 209.947 61.2943 209.42 60.9621L191.587 50.6654L191.56 48.0635L209.42 58.3879Z" fill="#212D60"/>
<path d="M222.906 60.3266C222.906 61.0462 222.408 61.9043 221.799 62.2641C221.189 62.624 220.691 62.3472 220.691 61.6275C220.691 60.9078 221.189 60.0498 221.799 59.6899C222.408 59.3301 222.906 59.6069 222.906 60.3266Z" fill="#212D60"/>
<path d="M226.838 58.0565C226.838 58.7762 226.339 59.6343 225.73 59.9941C225.121 60.3539 224.623 60.0772 224.623 59.3575C224.623 58.6378 225.121 57.7798 225.73 57.4199C226.339 57.0601 226.838 57.3369 226.838 58.0565Z" fill="#212D60"/>
<path d="M230.798 55.787C230.798 56.5067 230.299 57.3648 229.69 57.7246C229.081 58.0844 228.583 57.8076 228.583 57.088C228.583 56.3683 229.081 55.5102 229.69 55.1504C230.299 54.7905 230.798 55.0674 230.798 55.787Z" fill="#FF55A2"/>
<path d="M234.73 53.4896C234.73 54.2093 234.232 55.0673 233.623 55.4272C233.014 55.787 232.515 55.5102 232.515 54.7905C232.515 54.0709 233.014 53.2128 233.623 52.853C234.232 52.5208 234.73 52.7976 234.73 53.4896Z" fill="#FF55A2"/>
<path d="M238.662 51.2195C238.662 51.9392 238.164 52.7972 237.554 53.1571C236.945 53.5169 236.447 53.2401 236.447 52.5204C236.447 51.8008 236.945 50.9427 237.554 50.5829C238.164 50.223 238.662 50.5275 238.662 51.2195Z" fill="#FF55A2"/>
<path d="M242.595 48.95C242.595 49.6696 242.096 50.5277 241.487 50.8875C240.878 51.2474 240.379 50.9706 240.379 50.2509C240.379 49.5312 240.878 48.6732 241.487 48.3133C242.096 47.9535 242.595 48.258 242.595 48.95Z" fill="#212D60"/>
<path d="M246.555 46.6799C246.555 47.3996 246.056 48.2577 245.447 48.6175C244.838 48.9774 244.339 48.7006 244.339 47.9809C244.339 47.2612 244.838 46.4032 245.447 46.0433C246.029 45.6835 246.555 45.988 246.555 46.6799Z" fill="#212D60"/>
<path d="M477.723 197.09C478.387 196.702 479.439 196.702 480.076 197.09L503.697 210.736C508.239 209.795 513.528 210.348 517.155 212.452C518.651 213.31 519.703 214.362 520.312 215.469H520.894V217.822C520.838 219.704 519.564 221.559 517.1 222.998C512.06 225.904 503.919 225.932 498.907 223.026C495.39 221.005 494.365 218.071 495.805 215.497L492.842 213.781L487.387 210.625C487.138 210.487 486.972 210.293 486.916 210.099L486.778 209.601C486.695 209.241 486.252 208.964 485.67 208.854L483.87 208.494C483.621 208.439 483.427 208.356 483.233 208.272L482.126 207.636C481.959 207.553 481.821 207.414 481.738 207.304L480.215 204.979C480.049 204.729 479.689 204.508 479.218 204.425L477.058 203.982C476.67 203.899 476.338 203.705 476.033 203.401C475.535 202.903 475.424 202.211 475.397 201.519L475.313 200.633C475.452 200.411 477.501 197.228 477.723 197.09Z" fill="url(#paint11_linear)"/>
<path d="M475.397 200.384L477.28 195.291C477.335 195.097 477.501 194.931 477.723 194.82C478.388 194.433 479.44 194.433 480.077 194.82L503.698 208.466C508.239 207.525 513.528 208.079 517.156 210.183C522.168 213.089 522.14 217.794 517.1 220.701C512.06 223.607 503.919 223.635 498.907 220.728C495.39 218.708 494.366 215.774 495.805 213.2L492.843 211.483L487.387 208.328C487.138 208.19 486.972 207.996 486.917 207.802L486.778 207.304C486.695 206.944 486.252 206.667 485.67 206.557L483.87 206.197C483.621 206.141 483.427 206.058 483.234 205.975L482.126 205.339C481.96 205.256 481.821 205.117 481.738 205.006L480.215 202.681C480.049 202.432 479.689 202.211 479.218 202.128L476.394 201.547C475.674 201.325 475.231 200.855 475.397 200.384Z" fill="#F0F0FC"/>
<path d="M510.731 218.929C511.727 219.51 513.334 219.51 514.33 218.929C515.327 218.348 515.327 217.407 514.33 216.853C513.334 216.272 511.727 216.272 510.731 216.853C509.761 217.434 509.734 218.348 510.731 218.929Z" fill="#CBD3EF"/>
<path d="M479.662 197.063L479.939 196.897C480.216 196.73 480.548 196.73 480.825 196.897L503.227 209.851C507.27 208.716 512.255 209.103 515.606 211.041C519.815 213.477 519.787 217.435 515.55 219.898C511.313 222.334 504.446 222.362 500.237 219.926C496.028 217.49 496.055 213.532 500.292 211.068L482.293 200.661C482.154 200.578 482.154 200.356 482.293 200.273L482.542 200.135C482.625 200.08 482.736 200.08 482.847 200.135L501.04 210.681C501.178 210.626 501.317 210.543 501.455 210.487L479.69 197.921C479.302 197.755 479.302 197.256 479.662 197.063ZM500.514 219.76C504.557 222.113 511.147 222.085 515.218 219.732C519.288 217.379 519.316 213.56 515.273 211.207C511.23 208.854 504.64 208.882 500.569 211.235C496.498 213.615 496.471 217.435 500.514 219.76Z" fill="#CBD3EF"/>
<path d="M307.587 61.8203C316.282 63.232 327.026 68.0482 330.266 82.7184L359.481 196.204C359.481 196.204 365.407 216.411 386.369 208.162L326.639 241.765C326.749 241.737 326.833 241.682 326.943 241.654L250.709 284.53C227.42 295.878 220.968 273.818 220.968 273.818L191.754 160.359C186.326 135.863 169.296 134.23 166.333 134.645L307.587 61.8203Z" fill="white"/>
<path d="M441.391 190.28C441.834 192.799 441.17 195.65 442.637 197.754C444.216 200.023 450.031 201.49 453.492 205.67C459.308 212.673 454.932 224.105 444.576 225.987C434.302 227.869 429.069 218.264 434.302 209.739C436.933 205.449 432.696 205.808 431.201 203.622C430.453 202.515 429.65 200.245 430.204 199.055C430.758 197.864 430.841 197.754 431.256 196.508C433.139 190.861 426.133 193.131 425.081 188.481C423.226 180.371 439.536 180.039 441.391 190.28Z" fill="#FF55A2"/>
<path d="M437.349 208.577C440.838 214.279 445.933 220.285 448.176 226.541C448.315 226.901 448.425 227.316 448.536 227.676L443.385 229.309C443.247 228.894 443.109 228.479 442.942 228.119C442.942 228.119 442.167 226.513 441.807 225.932C437.82 219.4 436.906 218.348 432.614 211.317C430.786 208.328 435.521 205.588 437.349 208.577Z" fill="#91BEFF"/>
<path d="M467.062 295.712C468.64 294.798 471.437 294.909 473.264 295.961L475.674 297.345C477.501 298.397 477.695 300.002 476.117 300.916C474.538 301.829 471.741 301.718 469.914 300.666L467.505 299.283C465.677 298.231 465.455 296.625 467.062 295.712Z" fill="#3E477E"/>
<path d="M448.204 303.849C449.976 303.406 452.635 304.32 454.075 305.842L455.985 307.863C457.453 309.385 457.176 310.991 455.404 311.433C453.631 311.876 450.973 310.963 449.533 309.441L447.622 307.42C446.155 305.898 446.404 304.292 448.204 303.849Z" fill="#3E477E"/>
<path d="M430.315 263.575C436.352 267.534 443.136 271.077 448.73 275.616C451.443 277.803 452.163 281.401 452.773 284.723C454.019 291.283 454.351 298.286 452.302 304.707C451.222 308.029 445.96 306.617 447.04 303.268C448.923 297.428 448.563 290.867 447.262 284.916C446.431 281.097 446.57 280.709 443.773 278.91C438.373 275.367 432.945 271.824 427.546 268.309C424.638 266.371 427.352 261.638 430.315 263.575Z" fill="#91BEFF"/>
<path d="M465.926 295.712C464.154 288.82 462.437 281.9 460.582 275.036C458.256 266.427 450.502 263.133 443.524 258.788C440.561 256.933 443.275 252.228 446.265 254.082C454.213 259.037 462.686 262.884 465.566 272.544C467.699 279.686 469.305 287.048 471.16 294.245C472.074 297.677 466.785 299.117 465.926 295.712Z" fill="#91BEFF"/>
<path d="M423.17 211.15C421.371 215.358 421.232 220.312 421.121 225.073C420.955 232.879 420.789 240.657 420.651 248.462C420.54 253.638 420.512 259.174 422.755 263.52C423.918 265.762 425.607 267.506 427.324 269.139C429.9 271.575 432.613 273.817 435.41 275.865C436.047 276.336 436.712 276.806 437.459 276.834C438.318 276.889 439.148 276.363 439.896 275.837C445.545 271.935 451.111 267.506 455.099 261.14C455.846 259.949 456.566 258.565 456.566 257.043C456.539 254.496 454.573 252.725 452.828 251.452C450.945 250.095 449.034 248.767 447.096 247.494C445.545 246.469 443.939 245.445 442.804 243.785C440.893 241.072 440.561 237.197 440.284 233.598C439.924 228.644 439.536 223.689 439.176 218.735C438.927 215.358 438.65 211.898 437.376 208.881C433.721 200.3 426.189 204.147 423.17 211.15Z" fill="#284CF9"/>
<path d="M424.916 189.145C424.943 188.896 424.943 188.647 424.971 188.37C424.999 188.26 424.999 188.204 425.054 188.204C425.054 187.152 425.442 186.294 426.439 185.409C427.879 184.08 429.789 183.083 431.811 183.083C433.555 183.083 434.746 183.526 435.965 184.689C436.546 185.243 438.291 186.931 437.875 187.734C437.598 188.315 437.238 188.675 436.823 188.952C434.829 190.225 431.589 188.453 429.734 190.668C429.429 191.028 429.152 191.443 429.042 191.886C428.876 192.578 429.014 193.463 428.432 193.906C428.377 193.934 428.322 193.962 428.266 193.989C428.322 193.795 428.322 193.602 428.322 193.38C428.322 192.384 427.851 191.581 427.269 191.581C426.688 191.581 426.217 192.384 426.217 193.38C426.217 194.294 426.605 195.041 427.131 195.152C427.103 195.29 427.076 195.401 427.076 195.567C427.076 195.761 427.076 195.954 427.076 196.121C426.743 195.761 426.466 195.401 426.245 194.986C425.913 194.377 425.691 193.74 425.469 193.103C425.359 192.827 425.276 192.55 425.193 192.273C425.054 191.72 424.971 191.166 424.943 190.612C424.86 190.142 424.888 189.644 424.916 189.145Z" fill="#FF55A2"/>
<path d="M427.104 195.179C426.578 195.068 426.19 194.321 426.19 193.408C426.19 192.411 426.661 191.609 427.242 191.609C427.824 191.609 428.295 192.411 428.295 193.408C428.295 193.629 428.267 193.823 428.239 194.017C428.295 193.989 428.35 193.961 428.405 193.934C428.987 193.463 428.848 192.605 429.015 191.913C429.125 191.47 429.402 191.055 429.707 190.695C431.562 188.481 434.802 190.252 436.796 188.979V193.795C436.796 196.757 434.581 199.193 431.728 199.553C431.701 201.047 431.673 202.542 431.645 204.037C432.393 204.037 433.085 204.175 433.611 204.48C434.802 205.172 434.636 206.362 433.279 207.164L431.562 208.161C430.205 208.964 428.101 209.047 426.91 208.355C425.802 207.718 425.885 206.639 426.993 205.836C426.91 205.67 426.882 205.476 426.882 205.282C426.938 202.237 426.993 199.193 427.048 196.148C427.048 195.954 427.048 195.76 427.048 195.594C427.048 195.428 427.076 195.29 427.104 195.179Z" fill="#91BEFF"/>
<path d="M451.555 247.134C450.226 246.525 448.675 247.134 448.066 248.462C447.457 249.791 448.066 251.341 449.395 251.95L453.216 253.666C454.546 254.275 456.096 253.666 456.705 252.338C457.315 251.009 456.705 249.459 455.376 248.85L451.555 247.134Z" fill="#FF969B"/>
<path d="M447.152 249.708C445.822 249.099 444.272 249.708 443.662 251.037C443.053 252.365 443.662 253.915 444.992 254.524L448.813 256.24C450.142 256.849 451.693 256.24 452.302 254.912C452.911 253.583 452.302 252.033 450.973 251.424L447.152 249.708Z" fill="#FF969B"/>
<path d="M462.438 249.458L450.558 244.282L430.399 255.603C429.679 255.991 429.651 257.015 430.343 257.458L439.204 263.021L462.438 249.458Z" fill="#F0F0FC"/>
<path d="M427.934 212.451C427.49 216.215 427.047 219.98 426.632 223.717C426.244 227.149 424.611 232.795 426.494 236.034C428.349 239.189 433.333 241.127 436.296 242.926C439.481 244.891 442.693 246.857 445.878 248.822C448.868 250.649 446.127 255.382 443.136 253.527C439.481 251.285 435.853 249.043 432.198 246.774C428.626 244.559 424.001 242.511 421.814 238.774C419.432 234.705 420.429 230.194 420.955 225.792C421.481 221.336 421.98 216.88 422.506 212.451C422.866 209.019 428.321 208.963 427.934 212.451Z" fill="#91BEFF"/>
<path d="M452.523 247.798C453.216 251.23 447.954 252.697 447.262 249.237C445.96 242.926 445.074 234.373 443.357 229.308L448.508 227.675C450.585 234.041 451.194 241.293 452.523 247.798Z" fill="#91BEFF"/>
<path d="M461.218 250.594L440.533 263.188C439.702 263.686 438.65 262.966 438.816 262.025L441.087 249.68C441.364 248.213 442.25 246.912 443.523 246.137L463.24 234.124C464.181 233.543 465.344 234.373 465.15 235.453L462.797 248.324C462.603 249.265 462.049 250.095 461.218 250.594Z" fill="white"/>
<path d="M184.36 323.253C185.689 323.281 186.825 322.202 186.852 320.873L186.908 317.856C186.935 316.527 185.855 315.392 184.526 315.365C183.197 315.337 182.062 316.417 182.034 317.745L181.979 320.762C181.951 322.119 183.031 323.226 184.36 323.253Z" fill="#91BEFF"/>
<path d="M201.169 384.397C199.618 383.512 196.904 383.622 195.132 384.646L192.778 386.003C191.006 387.027 190.812 388.605 192.335 389.49C193.858 390.376 196.599 390.265 198.372 389.241L200.725 387.885C202.525 386.861 202.719 385.311 201.169 384.397Z" fill="#FF55A2"/>
<path d="M196.794 353.646C197.182 363.97 197.542 374.295 197.929 384.619C198.123 390.044 191.533 390.044 191.339 384.619C190.868 371.914 190.397 359.209 189.927 346.504L196.794 353.646Z" fill="#91BEFF"/>
<path d="M216.316 393.034C214.765 392.148 212.052 392.259 210.279 393.283L207.926 394.639C206.153 395.663 205.959 397.241 207.482 398.127C209.033 399.012 211.747 398.902 213.519 397.877L215.873 396.521C217.673 395.497 217.867 393.947 216.316 393.034Z" fill="#FF55A2"/>
<path d="M213.796 393.892C212.938 399.262 206.042 396.992 206.901 391.622C208.701 380.329 209.421 368.316 208.922 356.386L216.094 356.718C216.537 369.34 215.707 381.99 213.796 393.892Z" fill="#91BEFF"/>
<path d="M189.039 322.146C188.846 316.749 195.325 316.721 195.63 322.008L203.633 322.229C203.218 320.79 202.802 319.351 202.331 317.939C200.67 312.846 207.593 310.632 209.227 315.669C213.408 328.485 215.54 342.574 216.066 356.718C216.011 356.773 205.128 358.019 196.793 353.59C196.793 353.646 196.71 353.535 196.71 353.535C194.024 352.096 191.587 350.047 189.898 347.169L189.87 345.037C189.593 337.398 189.316 329.786 189.039 322.146Z" fill="#27317A"/>
<path d="M192.778 279.243C188.071 290.951 185.44 304.155 186.575 316.749C186.825 319.461 182.56 319.461 182.311 316.749C181.176 303.822 183.834 290.121 188.68 278.108C189.677 275.617 193.803 276.724 192.778 279.243Z" fill="#FF55A2"/>
<path d="M190.148 309.303C190.176 312.293 184.97 318.88 187.379 324.029C189.373 328.291 207.594 336.346 209.726 326.215C211.997 315.448 206.264 312.569 205.572 307.67C204.492 300.003 208.84 298.176 205.378 284.281C204.243 279.742 199.065 273.181 193.222 275.424C189.317 276.946 189.843 278.302 190.148 309.303Z" fill="#FF55A2"/>
<path d="M193.886 268.891C193.942 271.521 193.997 274.178 194.053 276.807C194.08 278.634 198.511 278.634 198.483 276.807C198.428 274.15 198.372 271.521 198.317 268.891C198.262 267.064 193.831 267.064 193.886 268.891Z" fill="#91BEFF"/>
<path d="M195.659 270.967C195.244 270.967 194.884 270.773 194.607 270.469C192.668 268.144 192.751 263.494 194.025 260.255C194.883 258.124 195.631 257.155 199.01 257.044C199.84 257.017 202.194 256.823 203.053 257.958C203.302 258.068 203.551 258.207 203.772 258.317V264.961C203.772 268.282 201.086 270.967 197.763 270.967H195.659Z" fill="#91BEFF"/>
<path d="M198.981 266.843C198.415 266.843 197.957 265.988 197.957 264.933C197.957 263.878 198.415 263.023 198.981 263.023C199.547 263.023 200.006 263.878 200.006 264.933C200.006 265.988 199.547 266.843 198.981 266.843Z" fill="#FF7A93"/>
<path d="M199.258 278.385C200.338 277.776 200.2 276.669 198.954 275.949L197.403 275.036C196.157 274.316 194.274 274.233 193.194 274.87C192.114 275.479 192.253 276.586 193.499 277.306L195.049 278.219C196.295 278.939 198.206 278.994 199.258 278.385Z" fill="#91BEFF"/>
<path d="M216.316 278.552L212.938 281.154C212.274 280.434 211.609 279.714 210.944 279.022L214.267 276.337C214.96 277.085 215.652 277.804 216.316 278.552Z" fill="#FF55A2"/>
<path d="M206.402 267.923C209.033 270.718 211.636 273.541 214.267 276.337L210.944 279.022C208.424 276.337 205.904 273.625 203.384 270.94C201.529 268.919 204.547 265.93 206.402 267.923Z" fill="#FF55A2"/>
<path d="M202.609 279.105C206.347 283.146 211.692 285.665 217.147 285.665C215.735 284.17 214.35 282.648 212.938 281.153L216.316 278.551C218.559 280.959 220.802 283.367 223.045 285.776C224.097 286.883 223.738 288.959 222.104 289.319C213.962 291.201 205.267 288.267 199.563 282.122C197.735 280.101 200.726 277.084 202.609 279.105Z" fill="#FF55A2"/>
<path d="M197.127 268.365L202.554 271.991C203.052 272.323 203.717 272.185 204.049 271.687L206.071 268.697C206.403 268.199 206.265 267.535 205.766 267.203L200.339 263.577C199.84 263.244 199.176 263.383 198.843 263.881L196.822 266.87C196.49 267.369 196.628 268.033 197.127 268.365Z" fill="white"/>
<path d="M207.566 271.299C208.203 270.108 207.76 268.641 206.597 268.005L203.938 266.565C202.747 265.929 201.28 266.372 200.643 267.534C200.006 268.724 200.449 270.192 201.612 270.828L204.27 272.267C205.433 272.932 206.901 272.489 207.566 271.299Z" fill="#91BEFF"/>
<path d="M188.182 262.082C187.739 264.545 188.404 267.313 186.964 269.362C185.413 271.576 179.764 273.015 176.386 277.084C170.737 283.921 174.973 295.02 185.081 296.875C195.077 298.702 200.172 289.346 195.077 281.07C192.502 276.89 196.656 277.25 198.096 275.091C198.816 274.012 199.619 271.797 199.093 270.635C198.566 269.472 198.483 269.362 198.068 268.144C196.213 262.635 203.052 264.85 204.077 260.31C205.849 252.422 189.982 252.117 188.182 262.082Z" fill="#284CF9"/>
<path d="M156.613 183.112L172.258 173.729L172.674 175.638L157.028 185.022L156.613 183.112Z" fill="#485DB5"/>
<path d="M158.164 189.977L173.809 180.594L174.225 182.476L158.579 191.887L158.164 189.977Z" fill="#485DB5"/>
<path d="M169.71 162.546L170.153 164.456L164.67 167.75L164.255 165.84L169.71 162.546Z" fill="#485DB5"/>
<path d="M170.569 166.283L170.984 168.193L165.529 171.459L165.086 169.549L170.569 166.283Z" fill="#485DB5"/>
<path d="M176.495 192.551L176.938 194.461L172.342 197.201L171.899 195.291L176.495 192.551Z" fill="#485DB5"/>
<path d="M177.353 196.26L177.769 198.17L173.172 200.938L172.756 199.028L177.353 196.26Z" fill="#485DB5"/>
<path d="M179.874 207.443L180.289 209.353L169.711 215.719L169.268 213.809L179.874 207.443Z" fill="#485DB5"/>
<path d="M181.562 214.888L181.978 216.798L171.372 223.164L170.956 221.254L181.562 214.888Z" fill="#485DB5"/>
<path d="M182.449 218.847L182.864 220.757L178.904 223.165L178.461 221.255L182.449 218.847Z" fill="#485DB5"/>
<path d="M184.969 230.029L185.412 231.939L181.424 234.319L180.981 232.409L184.969 230.029Z" fill="#485DB5"/>
<path d="M186.658 237.475L187.073 239.385L183.113 241.765L182.67 239.855L186.658 237.475Z" fill="#485DB5"/>
<path d="M309.442 93.5967L310.688 98.3576L297.009 105.831L295.763 101.07L309.442 93.5967Z" fill="#F0F0FC"/>
<path d="M311.851 102.924L313.069 107.685L299.473 115.103L298.199 110.37L311.851 102.924Z" fill="#F0F0FC"/>
<path d="M314.261 112.253L315.479 117.014L301.911 124.404L300.665 119.643L314.261 112.253Z" fill="#F0F0FC"/>
<path d="M316.67 121.581L317.889 126.341L284.05 144.804L282.776 140.043L316.67 121.581Z" fill="#F0F0FC"/>
<path d="M321.072 138.742L322.318 143.503L297.562 157.01L296.316 152.249L321.072 138.742Z" fill="#F0F0FC"/>
<path d="M323.482 148.07L324.7 152.831L300.027 166.311L298.753 161.55L323.482 148.07Z" fill="#F0F0FC"/>
<path d="M229.442 199.166L249.989 187.956L251.235 192.717L230.661 203.955L229.442 199.166Z" fill="#F0F0FC"/>
<path d="M325.891 157.398L327.109 162.159L302.492 175.611L301.218 170.85L325.891 157.398Z" fill="#F0F0FC"/>
<path d="M230.494 142.091L293.797 107.574L292.523 102.813L229.248 137.33L230.494 142.091Z" fill="#F0F0FC"/>
<path d="M248.798 142.756L296.233 116.875L294.987 112.114L247.552 137.995L248.798 142.756Z" fill="#F0F0FC"/>
<path d="M217.839 154.104L244.145 139.766L245.392 144.499L219.057 158.865L217.839 154.104Z" fill="#F0F0FC"/>
<path d="M220.248 163.515L297.452 121.414L298.698 126.175L221.494 168.303L220.248 163.515Z" fill="#F0F0FC"/>
<path d="M222.658 172.843L274.33 144.666L275.576 149.426L223.876 177.632L222.658 172.843Z" fill="#F0F0FC"/>
<path d="M227.088 190.004L293.104 153.993L294.351 158.754L228.306 194.793L227.088 190.004Z" fill="#F0F0FC"/>
<path d="M254.503 191.139L296.815 168.054L295.542 163.293L253.229 186.378L254.503 191.139Z" fill="#F0F0FC"/>
<path d="M298.006 172.594L299.252 177.355L272.281 192.081L271.007 187.32L298.006 172.594Z" fill="#F0F0FC"/>
<path d="M291.664 194.378L316.725 180.732L315.451 175.971L290.418 189.617L291.664 194.378Z" fill="#F0F0FC"/>
<path d="M287.095 191.36L288.369 196.121L275.271 203.263L273.997 198.529L287.095 191.36Z" fill="#F0F0FC"/>
<path d="M317.916 185.271L319.162 190.032L277.791 212.591L276.517 207.857L317.916 185.271Z" fill="#F0F0FC"/>
<path d="M320.38 194.572L321.626 199.333L280.255 221.891L278.981 217.131L320.38 194.572Z" fill="#F0F0FC"/>
<path d="M298.671 285.333C298.809 285.333 298.947 285.278 299.058 285.195C299.307 284.973 299.335 284.613 299.141 284.364L296.677 281.43C296.095 280.738 295.791 279.88 295.791 278.994V246.665C295.791 246.333 295.514 246.083 295.209 246.083C294.905 246.083 294.628 246.333 294.628 246.665V278.967C294.628 280.129 295.043 281.264 295.791 282.178L298.255 285.112C298.338 285.25 298.504 285.333 298.671 285.333Z" fill="#3E477E"/>
<path d="M342.534 175.224C344.694 179.237 346.826 183.251 348.986 187.292C350.647 190.392 351.977 192.689 351.146 196.315C349.235 204.73 346.189 213.006 343.725 221.255C342.645 224.881 336.968 223.331 338.048 219.705C340.374 211.927 342.672 204.149 344.998 196.371C345.968 193.077 344.86 192.025 343.198 188.897C341.288 185.327 339.377 181.756 337.494 178.185C335.694 174.864 340.762 171.874 342.534 175.224Z" fill="#1E44D1"/>
<path d="M306.84 256.353V290.481C306.951 291.256 306.508 292.031 305.511 292.613C303.711 293.665 300.803 293.665 299.003 292.613C298.172 292.142 297.757 291.506 297.702 290.897C297.674 290.897 297.674 290.786 297.674 290.786C297.674 290.73 297.674 256.353 297.674 256.353H306.84Z" fill="url(#paint12_linear)"/>
<path d="M299.031 258.457C300.831 259.481 303.739 259.481 305.511 258.457C307.311 257.432 307.311 255.744 305.539 254.72C303.739 253.696 300.831 253.696 299.059 254.72C297.231 255.744 297.231 257.432 299.031 258.457Z" fill="#F5F7FD"/>
<path d="M338.463 153.772C337.799 153.495 336.996 153.385 336.553 152.886C336.165 152.471 336.11 151.89 335.667 151.502C334.614 150.561 332.565 151.641 331.236 150.976C330.876 150.81 330.627 150.506 330.239 150.395C328.938 149.98 327.802 151.668 326.418 151.419C326.058 151.364 325.725 151.17 325.338 151.17C325.033 151.198 324.756 151.364 324.507 151.53C324.036 151.89 323.565 152.499 323.233 153.191C322.929 153.301 322.679 153.468 322.513 153.717C322.375 153.938 322.319 154.187 322.319 154.436C322.264 155.211 322.596 156.125 323.122 156.955C323.178 157.315 323.316 157.647 323.51 158.007C323.981 158.92 324.784 159.723 325.504 160.194C325.864 160.415 326.224 160.637 326.611 160.858V162.159C326.611 162.436 326.888 162.657 327.193 162.657C327.331 162.657 327.442 162.602 327.525 162.546C327.498 162.408 327.498 162.27 327.498 162.131C327.498 161.19 327.996 160.443 328.578 160.443C329.187 160.443 329.658 161.19 329.658 162.131C329.658 162.629 329.519 163.072 329.298 163.377C329.657 164.069 329.962 164.816 330.405 165.453C331.042 166.366 332.344 167.086 333.396 166.615C333.562 166.532 333.756 166.422 333.922 166.255C334.144 166.062 334.393 165.84 334.614 165.536C334.808 165.48 334.974 165.397 335.085 165.259C335.307 165.01 335.362 164.705 335.556 164.456C335.999 163.875 337.106 163.709 337.3 163.017C337.439 162.602 337.134 162.159 337.245 161.744C337.411 161.079 338.436 160.83 338.768 160.221C339.073 159.64 338.685 158.976 338.519 158.367C338.27 157.287 338.851 156.208 339.377 155.211C339.765 154.658 339.128 154.049 338.463 153.772Z" fill="#27317A"/>
<path d="M333.423 166.587C332.37 167.058 331.069 166.338 330.432 165.425C329.961 164.788 329.684 164.041 329.324 163.349C329.546 163.044 329.684 162.601 329.684 162.103C329.684 161.162 329.186 160.415 328.604 160.415C327.995 160.415 327.524 161.162 327.524 162.103C327.524 162.242 327.552 162.38 327.552 162.518C327.441 162.574 327.331 162.629 327.22 162.629C326.888 162.629 326.638 162.408 326.638 162.131V160.83C326.278 160.609 325.891 160.387 325.531 160.166C324.811 159.695 324.008 158.892 323.537 157.979V162.103C323.537 164.871 326.057 167.141 329.297 167.39C329.241 169.134 329.214 170.85 329.158 172.594C329.131 174.199 333.783 174.199 333.81 172.594C333.866 170.462 333.921 168.331 333.977 166.227C333.783 166.394 333.617 166.532 333.423 166.587Z" fill="#91BEFF"/>
<path d="M317.03 287.271C320.381 287.105 320.935 287.603 322.845 287.132L325.587 286.081C327.636 287.077 327.858 290.952 326.058 291.838C324.258 292.696 321.129 292.585 319.052 291.589L316.338 290.26C314.289 289.291 315.036 287.382 317.03 287.271Z" fill="#5074F9"/>
<path d="M331.485 277.527C334.752 277.998 335.278 278.607 337.134 278.524L339.792 278.026C341.786 279.437 342.007 283.34 340.263 283.866C338.518 284.392 335.472 283.672 333.451 282.26L330.82 280.406C328.799 278.994 329.546 277.25 331.485 277.527Z" fill="#5074F9"/>
<path d="M331.346 222.86L343.42 218.044C342.368 238.139 341.842 258.235 341.509 278.33C341.426 283.644 333.34 283.783 333.423 278.441C333.7 261.362 332.593 244.201 333.479 227.123L331.762 228.23L331.346 222.86Z" fill="#3E477E"/>
<path d="M330.544 223.192L330.959 228.257L329.768 229.032C328.688 249.654 327.996 267.507 327.331 286.744C327.138 292.059 319.772 291.477 319.661 286.135C319.19 265.292 318.359 250.456 318.166 228.119L330.544 223.192Z" fill="#3E477E"/>
<path d="M319.411 182.033C319.605 179.348 320.989 176.83 323.26 175.252C326.805 172.788 331.845 171.321 336.607 171.487C342.201 171.681 345.386 177.854 344.804 183.5C343.309 198.17 343.973 219.76 343.973 219.76C342.949 223.691 340.013 225.629 328.245 230.611C326.362 231.414 324.257 231.912 322.153 231.967C320.048 232.022 319.771 231.497 318.636 230.03C317.611 228.729 318.027 222.861 318.11 221.283C318.691 208.107 318.663 191.887 319.411 182.033Z" fill="#284CF9"/>
<path d="M329.906 175.252L334.697 174.034C335.666 173.785 336.248 172.899 335.943 172.068L335.86 171.847C335.555 171.017 334.503 170.546 333.534 170.795L328.743 172.013C327.774 172.262 327.193 173.148 327.497 173.978L327.58 174.2C327.885 175.03 328.937 175.501 329.906 175.252Z" fill="#284CF9"/>
<path d="M299.362 226.653C300.969 227.566 303.572 227.566 305.178 226.653C306.784 225.712 306.784 224.217 305.205 223.304C303.599 222.39 300.996 222.39 299.39 223.304C297.784 224.217 297.784 225.74 299.362 226.653Z" fill="#F5F7FD"/>
<path d="M299.362 199.222C300.969 200.136 303.572 200.136 305.178 199.222C306.784 198.281 306.784 196.786 305.205 195.873C303.599 194.96 300.996 194.96 299.39 195.873C297.784 196.814 297.784 198.309 299.362 199.222Z" fill="#F5F7FD"/>
<path d="M299.362 168.747C300.969 169.66 303.572 169.66 305.178 168.747C306.784 167.806 306.784 166.311 305.205 165.397C303.599 164.484 300.996 164.484 299.39 165.397C297.784 166.339 297.784 167.833 299.362 168.747Z" fill="#F5F7FD"/>
<path d="M306.368 149.62V166.864V180.123V197.339C306.368 197.367 306.368 224.742 306.368 224.742V227.842V255.245C306.451 255.937 306.091 256.629 305.178 257.155C303.571 258.096 300.968 258.096 299.362 257.155C298.615 256.74 298.227 256.186 298.199 255.605C298.172 255.439 298.172 228.174 298.172 228.174C298.172 228.036 298.172 224.714 298.172 224.714V197.671C298.172 197.533 298.172 197.284 298.172 197.284V180.427C298.172 180.289 298.172 166.809 298.172 166.809V149.564H306.368V149.62Z" fill="url(#paint13_linear)"/>
<path d="M299.362 151.503C300.969 152.416 303.572 152.416 305.178 151.503C306.784 150.561 306.784 149.067 305.205 148.153C303.599 147.24 300.996 147.24 299.39 148.153C297.784 149.094 297.784 150.589 299.362 151.503Z" fill="#F5F7FD"/>
<path d="M298.974 148.956L301.3 140.375C301.91 140.459 302.547 140.486 303.184 140.403L305.593 148.873C306.008 149.787 305.343 150.838 303.516 151.281C302.713 151.475 301.882 151.475 301.079 151.281C299.279 150.838 298.587 149.842 298.974 148.956Z" fill="url(#paint14_linear)"/>
<path d="M301.301 140.375L301.799 138.548C301.91 138.106 302.547 138.106 302.657 138.548L303.184 140.403C302.547 140.458 301.91 140.458 301.301 140.375Z" fill="#F5F7FD"/>
<path d="M301.301 140.375L301.799 138.548C301.91 138.106 302.547 138.106 302.657 138.548L303.184 140.403C302.408 140.791 301.937 140.79 301.301 140.375Z" fill="url(#paint15_linear)"/>
<path d="M303.904 173.812L300.719 171.985C299.722 171.404 298.892 169.826 298.892 168.497C298.892 167.169 299.722 166.532 300.719 167.113L303.904 168.94C304.901 169.521 305.731 171.099 305.731 172.428C305.731 173.756 304.928 174.393 303.904 173.812Z" fill="white"/>
<path d="M306.839 171.016C309.525 176.857 312.212 182.697 314.925 188.51C317.141 184.773 319.384 181.009 321.599 177.272C323.537 174.033 328.605 176.967 326.666 180.234C323.482 185.576 320.297 190.918 317.141 196.288C316.088 198.032 313.015 198.364 312.073 196.288C308.639 188.842 305.206 181.424 301.772 173.978C300.193 170.573 305.261 167.584 306.839 171.016Z" fill="#284CF9"/>
<path d="M265.772 248.85C264.221 247.328 261.895 245.639 259.182 243.813C259.763 243.868 260.289 243.813 260.705 243.536C261.258 243.121 261.48 242.318 261.48 241.321C261.535 241.349 261.591 241.377 261.646 241.432C262.615 241.958 263.141 241.737 263.363 241.571C264.138 240.989 263.834 238.886 262.948 236.201C263.197 236.256 263.446 236.284 263.751 236.339C263.945 236.367 264.166 236.395 264.388 236.45C265.772 237.142 267.821 238.111 268.264 237.778L268.652 237.446L268.181 236.976C267.212 236.035 265.8 235.647 264.498 235.398C263.917 235.094 263.252 234.734 262.588 234.346C262.892 232.99 263.557 230.526 264.692 227.786C264.775 227.592 264.997 227.648 265.08 227.675C265.163 227.703 265.384 227.814 265.357 228.063L265.329 228.727C265.246 230.554 265.163 232.409 265.744 234.125C265.938 234.678 266.437 235.177 267.046 235.37C267.655 235.592 268.237 235.453 268.541 235.066C268.707 234.817 268.901 234.568 269.095 234.291C269.344 233.931 269.815 233.986 270.203 234.152C270.563 234.319 270.95 234.678 270.923 235.177C270.59 240.187 270.48 244.256 270.59 247.273L271.809 247.577C271.698 244.588 271.809 240.574 272.141 235.592C272.197 234.706 271.56 233.765 270.507 233.267C269.483 232.769 268.486 232.879 268.015 233.571C267.849 233.82 267.655 234.069 267.489 234.319C267.406 234.429 267.267 234.402 267.212 234.374C267.157 234.346 267.018 234.291 266.963 234.125C266.464 232.602 266.52 230.803 266.603 229.087L266.631 228.423C266.658 227.759 266.132 227.039 265.329 226.707C264.526 226.375 263.806 226.568 263.557 227.15C262.671 229.336 262.061 231.302 261.729 232.575C261.729 232.602 261.702 232.658 261.702 232.685C259.791 228.146 256.994 223.247 255.194 221.475C254.28 220.59 252.868 220.064 251.926 220.756C248.77 223.108 253.976 228.644 255.665 230.277C257.465 232.021 259.486 233.488 261.286 234.595C261.175 235.232 261.286 235.343 261.48 235.509C261.563 235.592 261.674 235.675 261.785 235.73C262.643 238.277 263.031 240.214 262.532 240.574C262.505 240.602 262.449 240.63 262.117 240.463C261.951 240.38 261.757 240.242 261.452 239.993C261.092 237.917 259.985 235.536 258.794 234.374C258.628 234.208 258.434 234.097 258.24 234.069C258.046 234.042 257.852 234.069 257.714 234.152C256.994 234.678 257.437 237.502 259.625 239.633C259.874 239.854 260.095 240.076 260.317 240.27C260.455 241.321 260.345 242.18 259.874 242.512C259.431 242.844 258.434 242.539 257.382 242.235C257.132 242.152 256.883 242.097 256.662 242.013C255.526 241.294 254.363 240.546 253.2 239.799C251.926 238.996 250.625 238.166 249.296 237.308C248.105 232.658 245.447 227.759 240.767 222.832C239.355 221.337 236.059 218.901 233.429 218.32C232.321 218.071 231.435 218.209 230.798 218.652C227.946 220.783 233.65 226.375 235.505 228.229C238.745 231.412 243.481 234.678 248.216 237.751C250.071 245.695 247.44 252.781 243.453 257.459L244.505 258.261C248.52 253.584 251.179 246.553 249.6 238.637C250.653 239.301 251.705 239.965 252.702 240.602C253.394 241.045 254.086 241.488 254.779 241.903C254.696 241.986 254.612 242.097 254.585 242.235C254.308 243.176 255.416 245.39 256.966 246.885C257.935 247.854 264.581 253.058 266.437 251.701C266.741 251.48 267.24 250.317 265.772 248.85ZM256.274 243.093C259.902 245.446 263.114 247.632 264.969 249.459C265.911 250.4 265.329 250.926 265.329 250.926C264.471 251.563 259.071 247.909 257.603 246.442C256.191 245.058 255.499 243.342 255.609 242.955C255.831 242.982 256.052 243.038 256.274 243.093ZM259.791 238.609C258.932 237.557 258.6 236.505 258.517 235.841C259.015 236.588 259.486 237.585 259.791 238.609ZM254.308 222.084C256.412 224.16 258.96 228.976 260.677 233.184C259.209 232.215 257.686 231.052 256.357 229.724C255.332 228.7 250.293 223.551 252.785 221.697C253.394 221.254 254.169 221.946 254.308 222.084ZM233.373 219.51C235.533 219.981 238.496 222.112 239.798 223.496C243.979 227.897 246.471 232.298 247.717 236.505C243.37 233.654 239.105 230.665 236.17 227.786C231.712 223.385 230.216 220.756 231.601 219.731C232.016 219.399 232.598 219.316 233.373 219.51Z" fill="#FF55A2"/>
<path d="M29.6208 303.657L10.2646 292.502C9.1569 291.865 9.1569 290.287 10.2646 289.651L29.7039 278.413C31.31 277.472 33.3038 277.472 34.9099 278.413L54.5985 289.789C55.6508 290.398 55.6508 291.92 54.5985 292.529L35.3253 303.657C33.5807 304.681 31.3931 304.681 29.6208 303.657Z" fill="white"/>
<path d="M154.841 413.522L147.752 409.425C147.337 409.204 147.337 408.622 147.752 408.373L154.896 404.249C155.478 403.917 156.225 403.917 156.807 404.249L164.034 408.429C164.422 408.65 164.422 409.204 164.034 409.425L156.973 413.522C156.281 413.909 155.478 413.909 154.841 413.522Z" fill="white"/>
<path d="M41.446 396.909L27.1295 388.66C26.3265 388.19 26.3265 387.027 27.1295 386.557L41.5291 378.253C42.7198 377.561 44.1874 377.561 45.3781 378.253L59.9439 386.667C60.7192 387.11 60.7192 388.245 59.9439 388.688L45.6828 396.909C44.3813 397.656 42.7752 397.656 41.446 396.909Z" fill="white"/>
<path d="M20.6489 18.3085L7.13547 10.5029C6.36011 10.0601 6.36011 8.95287 7.13547 8.51L20.7043 0.676691C21.8396 0.0400614 23.1965 0.0400614 24.3318 0.676691L38.0945 8.62072C38.8422 9.03591 38.8422 10.1154 38.0945 10.5306L24.6365 18.3085C23.3903 19.0282 21.895 19.0282 20.6489 18.3085Z" fill="white"/>
<path d="M386.895 112.115L373.382 104.309C372.606 103.866 372.606 102.759 373.382 102.316L386.95 94.4828C388.086 93.8462 389.443 93.8462 390.578 94.4828L404.341 102.427C405.088 102.842 405.088 103.922 404.341 104.337L390.883 112.115C389.636 112.834 388.113 112.834 386.895 112.115Z" fill="#F0F0FC"/>
<path d="M418.531 344.597L418.53 344.596C416.575 343.474 414.391 342.913 412.208 342.913C410.026 342.913 407.843 343.473 405.909 344.575L405.906 344.577L357.847 372.31L357.845 372.311C356.633 373.019 355.919 374.261 355.919 375.658C355.919 377.049 356.629 378.316 357.849 379.007C357.849 379.007 357.85 379.008 357.851 379.008L405.212 406.328L405.105 406.514L405.537 406.765L405.969 407.016L406.082 406.821C410.293 409.061 415.404 408.981 419.549 406.579L418.531 344.597ZM418.531 344.597L467.189 372.669L467.19 372.67C468.343 373.338 469.037 374.541 469.037 375.877C469.037 377.214 468.343 378.417 467.19 379.085L467.189 379.086L419.55 406.579L418.531 344.597ZM419.748 406.931L419.749 406.931L467.386 379.439C467.386 379.439 467.386 379.438 467.387 379.438C468.675 378.687 469.455 377.352 469.455 375.877C469.455 374.38 468.693 373.068 467.389 372.318L467.388 372.317L418.73 344.245L418.729 344.245C414.71 341.918 409.707 341.918 405.687 344.245L405.687 344.245L357.628 371.978L357.627 371.979C356.287 372.747 355.501 374.117 355.501 375.678C355.501 377.216 356.305 378.609 357.628 379.378C357.629 379.378 357.629 379.378 357.629 379.378L405.425 406.949C405.425 406.95 405.425 406.95 405.426 406.95C407.626 408.204 410.097 408.841 412.588 408.841C415.06 408.841 417.55 408.203 419.748 406.931Z" stroke="#F0F0FC"/>
<path d="M551.849 391.578C553.289 391.578 554.756 391.191 556.03 390.444L581.036 376.023C581.977 375.469 582.559 374.5 582.559 373.393C582.559 372.286 582.005 371.317 581.036 370.763L555.504 356.038C553.123 354.654 550.16 354.654 547.778 356.038L522.551 370.597C521.582 371.151 521.001 372.175 521.001 373.282C521.001 374.417 521.582 375.414 522.551 375.967L547.64 390.444C548.941 391.191 550.381 391.578 551.849 391.578ZM551.627 356.951C552.624 356.951 553.621 357.201 554.507 357.726L580.039 372.452C580.537 372.729 580.565 373.199 580.565 373.393C580.565 373.587 580.509 374.057 580.039 374.334L555.033 388.755C553.04 389.89 550.575 389.89 548.609 388.755L523.52 374.279C522.994 373.974 522.939 373.476 522.939 373.282C522.939 373.089 522.994 372.59 523.52 372.286L548.747 357.726C549.661 357.228 550.63 356.951 551.627 356.951Z" fill="#F0F0FC"/>
<defs>
<linearGradient id="paint0_linear" x1="497.872" y1="302.566" x2="174.492" y2="302.566" gradientUnits="userSpaceOnUse">
<stop offset="0.4092" stop-color="#B4CCFC"/>
<stop offset="0.4618" stop-color="#ADC7FB"/>
<stop offset="0.5371" stop-color="#9AB9F9"/>
<stop offset="0.6257" stop-color="#7CA1F5"/>
<stop offset="0.627" stop-color="#7BA1F5"/>
</linearGradient>
<linearGradient id="paint1_linear" x1="253.737" y1="155.847" x2="45.9516" y2="155.847" gradientUnits="userSpaceOnUse">
<stop offset="0.5" stop-color="#B4CCFC"/>
<stop offset="0.5306" stop-color="#ADC7FB"/>
<stop offset="0.5746" stop-color="#9AB9F9"/>
<stop offset="0.6262" stop-color="#7CA1F5"/>
<stop offset="0.627" stop-color="#7BA1F5"/>
</linearGradient>
<linearGradient id="paint2_linear" x1="115.6" y1="169.105" x2="23.388" y2="169.105" gradientUnits="userSpaceOnUse">
<stop offset="0.4092" stop-color="#B4CCFC"/>
<stop offset="0.4618" stop-color="#ADC7FB"/>
<stop offset="0.5371" stop-color="#9AB9F9"/>
<stop offset="0.6257" stop-color="#7CA1F5"/>
<stop offset="0.627" stop-color="#7BA1F5"/>
</linearGradient>
<linearGradient id="paint3_linear" x1="34.2277" y1="82.9919" x2="102.879" y2="82.9919" gradientUnits="userSpaceOnUse">
<stop offset="0.4222" stop-color="#EAEAF9"/>
<stop offset="0.4493" stop-color="#E3E5F8"/>
<stop offset="0.4881" stop-color="#D0D5F4"/>
<stop offset="0.534" stop-color="#B1BDEE"/>
<stop offset="0.5848" stop-color="#879AE5"/>
<stop offset="0.6116" stop-color="#6D86E0"/>
</linearGradient>
<linearGradient id="paint4_linear" x1="143.495" y1="348.744" x2="94.2555" y2="348.744" gradientUnits="userSpaceOnUse">
<stop offset="0.4092" stop-color="#B4CCFC"/>
<stop offset="0.4618" stop-color="#ADC7FB"/>
<stop offset="0.5371" stop-color="#9AB9F9"/>
<stop offset="0.6257" stop-color="#7CA1F5"/>
<stop offset="0.627" stop-color="#7BA1F5"/>
</linearGradient>
<linearGradient id="paint5_linear" x1="143.495" y1="327.636" x2="94.2555" y2="327.636" gradientUnits="userSpaceOnUse">
<stop offset="0.4092" stop-color="#B4CCFC"/>
<stop offset="0.4618" stop-color="#ADC7FB"/>
<stop offset="0.5371" stop-color="#9AB9F9"/>
<stop offset="0.6257" stop-color="#7CA1F5"/>
<stop offset="0.627" stop-color="#7BA1F5"/>
</linearGradient>
<linearGradient id="paint6_linear" x1="143.495" y1="306.481" x2="94.2555" y2="306.481" gradientUnits="userSpaceOnUse">
<stop offset="0.4092" stop-color="#B4CCFC"/>
<stop offset="0.4618" stop-color="#ADC7FB"/>
<stop offset="0.5371" stop-color="#9AB9F9"/>
<stop offset="0.6257" stop-color="#7CA1F5"/>
<stop offset="0.627" stop-color="#7BA1F5"/>
</linearGradient>
<linearGradient id="paint7_linear" x1="143.495" y1="285.182" x2="94.2555" y2="285.182" gradientUnits="userSpaceOnUse">
<stop offset="0.4092" stop-color="#B4CCFC"/>
<stop offset="0.4618" stop-color="#ADC7FB"/>
<stop offset="0.5371" stop-color="#9AB9F9"/>
<stop offset="0.6257" stop-color="#7CA1F5"/>
<stop offset="0.627" stop-color="#7BA1F5"/>
</linearGradient>
<linearGradient id="paint8_linear" x1="484.562" y1="163.545" x2="435.323" y2="163.545" gradientUnits="userSpaceOnUse">
<stop offset="0.4092" stop-color="#B4CCFC"/>
<stop offset="0.4618" stop-color="#ADC7FB"/>
<stop offset="0.5371" stop-color="#9AB9F9"/>
<stop offset="0.6257" stop-color="#7CA1F5"/>
<stop offset="0.627" stop-color="#7BA1F5"/>
</linearGradient>
<linearGradient id="paint9_linear" x1="484.562" y1="142.436" x2="435.323" y2="142.436" gradientUnits="userSpaceOnUse">
<stop offset="0.4092" stop-color="#B4CCFC"/>
<stop offset="0.4618" stop-color="#ADC7FB"/>
<stop offset="0.5371" stop-color="#9AB9F9"/>
<stop offset="0.6257" stop-color="#7CA1F5"/>
<stop offset="0.627" stop-color="#7BA1F5"/>
</linearGradient>
<linearGradient id="paint10_linear" x1="245.885" y1="53.6583" x2="196.645" y2="53.6583" gradientUnits="userSpaceOnUse">
<stop offset="0.4092" stop-color="#B4CCFC"/>
<stop offset="0.4618" stop-color="#ADC7FB"/>
<stop offset="0.5371" stop-color="#9AB9F9"/>
<stop offset="0.6257" stop-color="#7CA1F5"/>
<stop offset="0.627" stop-color="#7BA1F5"/>
</linearGradient>
<linearGradient id="paint11_linear" x1="461.375" y1="210.983" x2="509.612" y2="210.983" gradientUnits="userSpaceOnUse">
<stop offset="0.4092" stop-color="#B4CCFC"/>
<stop offset="0.4618" stop-color="#ADC7FB"/>
<stop offset="0.5371" stop-color="#9AB9F9"/>
<stop offset="0.6257" stop-color="#7CA1F5"/>
<stop offset="0.627" stop-color="#7BA1F5"/>
</linearGradient>
<linearGradient id="paint12_linear" x1="306.859" y1="274.873" x2="297.683" y2="274.873" gradientUnits="userSpaceOnUse">
<stop offset="0.4092" stop-color="#A3CCFE"/>
<stop offset="0.4574" stop-color="#9CC8FE"/>
<stop offset="0.5264" stop-color="#89BBFD"/>
<stop offset="0.6075" stop-color="#6BA7FB"/>
<stop offset="0.627" stop-color="#62A1FB"/>
</linearGradient>
<linearGradient id="paint13_linear" x1="306.382" y1="203.75" x2="298.181" y2="203.75" gradientUnits="userSpaceOnUse">
<stop offset="0.4092" stop-color="#A3CCFE"/>
<stop offset="0.4574" stop-color="#9CC8FE"/>
<stop offset="0.5264" stop-color="#89BBFD"/>
<stop offset="0.6075" stop-color="#6BA7FB"/>
<stop offset="0.627" stop-color="#62A1FB"/>
</linearGradient>
<linearGradient id="paint14_linear" x1="305.699" y1="145.896" x2="298.879" y2="145.896" gradientUnits="userSpaceOnUse">
<stop offset="0.4092" stop-color="#A3CCFE"/>
<stop offset="0.4574" stop-color="#9CC8FE"/>
<stop offset="0.5264" stop-color="#89BBFD"/>
<stop offset="0.6075" stop-color="#6BA7FB"/>
<stop offset="0.627" stop-color="#62A1FB"/>
</linearGradient>
<linearGradient id="paint15_linear" x1="305.69" y1="139.45" x2="298.879" y2="139.45" gradientUnits="userSpaceOnUse">
<stop stop-color="#FD2587"/>
<stop offset="1" stop-color="#FD2587"/>
</linearGradient>
</defs>
</svg>
