<svg width="112" height="49" viewBox="0 0 112 49" fill="none" xmlns="http://www.w3.org/2000/svg">
<path d="M54.6211 32.3379H48.2002L46.9795 36H43.0854L49.7017 18.2266H53.0952L59.748 36H55.854L54.6211 32.3379ZM49.189 29.3716H53.6323L51.3984 22.7188L49.189 29.3716ZM73.0659 21.1929H65.0947V36H61.4326V18.2266H73.0659V21.1929ZM80.1338 18.2266L84.6992 31.1172L89.2402 18.2266H94.0498V36H90.3755V31.1416L90.7417 22.7554L85.9443 36H83.4297L78.6445 22.7676L79.0107 31.1416V36H75.3486V18.2266H80.1338ZM103.046 28.7368H100.935V36H97.2725V18.2266H100.935V25.3433H102.607L106.953 18.2266H111.42L105.939 26.6372L111.994 36H107.624L103.046 28.7368Z" fill="#B9C3DC"/>
<path fill-rule="evenodd" clip-rule="evenodd" d="M3.9375 33.1875L13.5 0L23.0625 33.1875V23.625H20.8125V19.6875H27V38.25C23.625 51.75 3.375 51.75 0 38.25V19.6875H6.1875V23.625H3.9375V33.1875ZM21.9375 40.5L20.25 34.875H19.125C18.5625 42.1875 8.4375 42.1875 7.875 34.875H6.75L5.0625 40.5C8.4375 45 18.5625 45 21.9375 40.5ZM13.5 11.25L7.3125 33.1875H8.15625C9.5625 27.5625 17.4375 27.5625 18.8438 33.1875H19.6875L13.5 11.25Z" fill="#B9C3DC"/>
</svg>
