<svg width="89" height="40" viewBox="0 0 89 40" fill="none" xmlns="http://www.w3.org/2000/svg">
<rect width="88.1481" height="40" rx="5.92593" fill="#FDEB04"/>
<path d="M11.1425 18.723C10.4576 18.723 9.84304 18.5541 9.29884 18.2163C8.75465 17.8691 8.32304 17.4047 8.00403 16.823C7.6944 16.2319 7.53958 15.5657 7.53958 14.8244C7.53958 14.0832 7.70847 13.417 8.04625 12.8259C8.39341 12.2348 8.85786 11.7704 9.43958 11.4326C10.0307 11.0854 10.6922 10.9119 11.424 10.9119C12.1559 10.9119 12.8127 11.0854 13.3944 11.4326C13.9761 11.7704 14.4359 12.2348 14.7737 12.8259C15.1208 13.417 15.2944 14.0832 15.2944 14.8244V17.963C15.2944 18.1694 15.224 18.343 15.0833 18.4837C14.9519 18.6151 14.783 18.6807 14.5766 18.6807C14.3702 18.6807 14.1966 18.6151 14.0559 18.4837C13.9245 18.343 13.8588 18.1694 13.8588 17.963V17.4422C13.5304 17.8363 13.1317 18.1506 12.6625 18.3852C12.2028 18.6104 11.6961 18.723 11.1425 18.723ZM11.424 17.4563C11.9025 17.4563 12.3295 17.3437 12.7048 17.1185C13.0801 16.884 13.3756 16.5696 13.5914 16.1756C13.8072 15.7721 13.9151 15.3217 13.9151 14.8244C13.9151 14.3178 13.8072 13.8674 13.5914 13.4733C13.3756 13.0699 13.0801 12.7556 12.7048 12.5304C12.3295 12.2958 11.9025 12.1785 11.424 12.1785C10.9549 12.1785 10.528 12.2958 10.1433 12.5304C9.76798 12.7556 9.46773 13.0699 9.24255 13.4733C9.02675 13.8674 8.91884 14.3178 8.91884 14.8244C8.91884 15.3217 9.02675 15.7721 9.24255 16.1756C9.46773 16.5696 9.76798 16.884 10.1433 17.1185C10.528 17.3437 10.9549 17.4563 11.424 17.4563ZM18.1487 21.96C17.9423 21.96 17.7687 21.8896 17.6279 21.7489C17.4966 21.6175 17.4309 21.4486 17.4309 21.2422V14.8244C17.4403 14.0832 17.6139 13.417 17.9517 12.8259C18.2894 12.2348 18.7492 11.7704 19.3309 11.4326C19.9126 11.0854 20.5694 10.9119 21.3013 10.9119C22.0425 10.9119 22.704 11.0854 23.2857 11.4326C23.8675 11.7704 24.3272 12.2348 24.665 12.8259C25.0121 13.417 25.1857 14.0832 25.1857 14.8244C25.1857 15.5657 25.0262 16.2319 24.7072 16.823C24.3976 17.4047 23.9707 17.8691 23.4265 18.2163C22.8823 18.5541 22.2677 18.723 21.5828 18.723C21.0292 18.723 20.5178 18.6104 20.0487 18.3852C19.5889 18.1506 19.1949 17.8363 18.8665 17.4422V21.2422C18.8665 21.4486 18.8008 21.6175 18.6694 21.7489C18.5381 21.8896 18.3645 21.96 18.1487 21.96ZM21.3013 17.4563C21.7798 17.4563 22.2067 17.3437 22.582 17.1185C22.9573 16.884 23.2529 16.5696 23.4687 16.1756C23.6939 15.7721 23.8065 15.3217 23.8065 14.8244C23.8065 14.3178 23.6939 13.8674 23.4687 13.4733C23.2529 13.0699 22.9573 12.7556 22.582 12.5304C22.2067 12.2958 21.7798 12.1785 21.3013 12.1785C20.8321 12.1785 20.4052 12.2958 20.0205 12.5304C19.6452 12.7556 19.3497 13.0699 19.1339 13.4733C18.9181 13.8674 18.8102 14.3178 18.8102 14.8244C18.8102 15.3217 18.9181 15.7721 19.1339 16.1756C19.3497 16.5696 19.6452 16.884 20.0205 17.1185C20.4052 17.3437 20.8321 17.4563 21.3013 17.4563ZM30.9438 18.723C30.165 18.723 29.4707 18.5588 28.8608 18.2304C28.2603 17.8926 27.7865 17.4328 27.4393 16.8511C27.1016 16.26 26.9327 15.5844 26.9327 14.8244C26.9327 14.0551 27.0922 13.3795 27.4112 12.7978C27.7396 12.2067 28.19 11.7469 28.7623 11.4185C29.3346 11.0807 29.9914 10.9119 30.7327 10.9119C31.4645 10.9119 32.0932 11.0761 32.6186 11.4044C33.144 11.7235 33.5428 12.1691 33.8149 12.7415C34.0964 13.3044 34.2371 13.9565 34.2371 14.6978C34.2371 14.8761 34.1761 15.0262 34.0541 15.1482C33.9322 15.2607 33.7774 15.317 33.5897 15.317H28.2416C28.3448 15.9644 28.6403 16.4946 29.1282 16.9074C29.6255 17.3109 30.2307 17.5126 30.9438 17.5126C31.2346 17.5126 31.5302 17.461 31.8304 17.3578C32.1401 17.2452 32.3887 17.1185 32.5764 16.9778C32.7171 16.8746 32.8672 16.823 33.0267 16.823C33.1956 16.8136 33.3411 16.8605 33.463 16.9637C33.6225 17.1044 33.707 17.2593 33.7164 17.4282C33.7258 17.597 33.6507 17.7425 33.4912 17.8644C33.1722 18.1178 32.7734 18.3242 32.2949 18.4837C31.8258 18.6432 31.3754 18.723 30.9438 18.723ZM30.7327 12.1222C30.0383 12.1222 29.4801 12.3146 29.0579 12.6993C28.6356 13.084 28.3682 13.5812 28.2556 14.1911H32.9423C32.8579 13.5906 32.628 13.098 32.2527 12.7133C31.8774 12.3193 31.3707 12.1222 30.7327 12.1222ZM35.6701 18.6667C35.4825 18.6667 35.3324 18.6104 35.2198 18.4978C35.1166 18.3758 35.065 18.2304 35.065 18.0615C35.065 17.8926 35.1306 17.7237 35.262 17.5548L37.4435 14.8244L35.1213 12.08C34.9993 11.9299 34.9336 11.7704 34.9242 11.6015C34.9148 11.4232 34.9617 11.2731 35.065 11.1511C35.1682 11.0291 35.323 10.9682 35.5294 10.9682C35.7546 10.9682 35.9329 11.0479 36.0642 11.2074L38.3724 13.9659L40.4413 11.2074C40.5163 11.1136 40.5961 11.0526 40.6805 11.0244C40.765 10.9869 40.8588 10.9682 40.962 10.9682C41.1684 10.9682 41.3232 11.0338 41.4264 11.1652C41.5296 11.2872 41.5766 11.4373 41.5672 11.6156C41.5672 11.7938 41.5015 11.9674 41.3701 12.1363L39.245 14.9089L41.4827 17.583C41.6235 17.7519 41.6892 17.9207 41.6798 18.0896C41.6798 18.2491 41.6188 18.3852 41.4968 18.4978C41.3842 18.6104 41.2341 18.6667 41.0464 18.6667C40.9526 18.6667 40.8635 18.6526 40.779 18.6244C40.6946 18.5963 40.6148 18.5353 40.5398 18.4415L38.302 15.7674L36.1768 18.4415C36.0361 18.5916 35.8672 18.6667 35.6701 18.6667ZM44.194 21.96C43.9876 21.96 43.814 21.8896 43.6732 21.7489C43.5419 21.6175 43.4762 21.4486 43.4762 21.2422V14.8244C43.4856 14.0832 43.6592 13.417 43.9969 12.8259C44.3347 12.2348 44.7945 11.7704 45.3762 11.4326C45.9579 11.0854 46.6147 10.9119 47.3466 10.9119C48.0878 10.9119 48.7493 11.0854 49.331 11.4326C49.9127 11.7704 50.3725 12.2348 50.7103 12.8259C51.0574 13.417 51.231 14.0832 51.231 14.8244C51.231 15.5657 51.0715 16.2319 50.7525 16.823C50.4429 17.4047 50.0159 17.8691 49.4717 18.2163C48.9276 18.5541 48.313 18.723 47.628 18.723C47.0745 18.723 46.5631 18.6104 46.094 18.3852C45.6342 18.1506 45.2401 17.8363 44.9117 17.4422V21.2422C44.9117 21.4486 44.8461 21.6175 44.7147 21.7489C44.5834 21.8896 44.4098 21.96 44.194 21.96ZM47.3466 17.4563C47.8251 17.4563 48.252 17.3437 48.6273 17.1185C49.0026 16.884 49.2982 16.5696 49.514 16.1756C49.7392 15.7721 49.8517 15.3217 49.8517 14.8244C49.8517 14.3178 49.7392 13.8674 49.514 13.4733C49.2982 13.0699 49.0026 12.7556 48.6273 12.5304C48.252 12.2958 47.8251 12.1785 47.3466 12.1785C46.8774 12.1785 46.4505 12.2958 46.0658 12.5304C45.6905 12.7556 45.395 13.0699 45.1792 13.4733C44.9634 13.8674 44.8555 14.3178 44.8555 14.8244C44.8555 15.3217 44.9634 15.7721 45.1792 16.1756C45.395 16.5696 45.6905 16.884 46.0658 17.1185C46.4505 17.3437 46.8774 17.4563 47.3466 17.4563ZM54.2305 18.6667C54.0241 18.6667 53.8505 18.601 53.7098 18.4696C53.5784 18.3289 53.5128 18.1553 53.5128 17.9489V11.6859C53.5128 11.4701 53.5784 11.2965 53.7098 11.1652C53.8505 11.0338 54.0241 10.9682 54.2305 10.9682C54.4463 10.9682 54.6199 11.0338 54.7513 11.1652C54.8826 11.2965 54.9483 11.4701 54.9483 11.6859V17.9489C54.9483 18.1553 54.8826 18.3289 54.7513 18.4696C54.6199 18.601 54.4463 18.6667 54.2305 18.6667ZM54.2305 9.71556C53.9772 9.71556 53.7567 9.62642 53.5691 9.44815C53.3908 9.2605 53.3017 9.04001 53.3017 8.78667C53.3017 8.53334 53.3908 8.31754 53.5691 8.13926C53.7567 7.95161 53.9772 7.85778 54.2305 7.85778C54.4839 7.85778 54.6997 7.95161 54.878 8.13926C55.0656 8.31754 55.1594 8.53334 55.1594 8.78667C55.1594 9.04001 55.0656 9.2605 54.878 9.44815C54.6997 9.62642 54.4839 9.71556 54.2305 9.71556ZM57.9286 18.6667C57.4876 18.6667 57.2671 18.4462 57.2671 18.0052C57.2671 17.8175 57.3094 17.6674 57.3938 17.5548L61.3768 12.2911H57.7879C57.3469 12.2911 57.1264 12.0706 57.1264 11.6296C57.1264 11.1886 57.3469 10.9682 57.7879 10.9682H62.5871C63.0281 10.9682 63.2486 11.1886 63.2486 11.6296C63.2486 11.8173 63.2064 11.9674 63.122 12.08L59.1531 17.3437H62.7279C63.1689 17.3437 63.3894 17.5642 63.3894 18.0052C63.3894 18.4462 63.1689 18.6667 62.7279 18.6667H57.9286ZM65.5292 18.6667C65.0882 18.6667 64.8677 18.4462 64.8677 18.0052C64.8677 17.8175 64.9099 17.6674 64.9944 17.5548L68.9773 12.2911H65.3884C64.9474 12.2911 64.7269 12.0706 64.7269 11.6296C64.7269 11.1886 64.9474 10.9682 65.3884 10.9682H70.1877C70.6287 10.9682 70.8492 11.1886 70.8492 11.6296C70.8492 11.8173 70.8069 11.9674 70.7225 12.08L66.7536 17.3437H70.3284C70.7694 17.3437 70.9899 17.5642 70.9899 18.0052C70.9899 18.4462 70.7694 18.6667 70.3284 18.6667H65.5292ZM75.7541 18.723C75.0692 18.723 74.4546 18.5541 73.9104 18.2163C73.3662 17.8691 72.9346 17.4047 72.6156 16.823C72.3059 16.2319 72.1511 15.5657 72.1511 14.8244C72.1511 14.0832 72.32 13.417 72.6578 12.8259C73.005 12.2348 73.4694 11.7704 74.0511 11.4326C74.6422 11.0854 75.3037 10.9119 76.0356 10.9119C76.7674 10.9119 77.4242 11.0854 78.0059 11.4326C78.5877 11.7704 79.0474 12.2348 79.3852 12.8259C79.7324 13.417 79.9059 14.0832 79.9059 14.8244V17.963C79.9059 18.1694 79.8356 18.343 79.6948 18.4837C79.5635 18.6151 79.3946 18.6807 79.1882 18.6807C78.9817 18.6807 78.8082 18.6151 78.6674 18.4837C78.5361 18.343 78.4704 18.1694 78.4704 17.963V17.4422C78.142 17.8363 77.7432 18.1506 77.2741 18.3852C76.8143 18.6104 76.3077 18.723 75.7541 18.723ZM76.0356 17.4563C76.5141 17.4563 76.941 17.3437 77.3163 17.1185C77.6916 16.884 77.9872 16.5696 78.203 16.1756C78.4188 15.7721 78.5267 15.3217 78.5267 14.8244C78.5267 14.3178 78.4188 13.8674 78.203 13.4733C77.9872 13.0699 77.6916 12.7556 77.3163 12.5304C76.941 12.2958 76.5141 12.1785 76.0356 12.1785C75.5664 12.1785 75.1395 12.2958 74.7548 12.5304C74.3795 12.7556 74.0793 13.0699 73.8541 13.4733C73.6383 13.8674 73.5304 14.3178 73.5304 14.8244C73.5304 15.3217 73.6383 15.7721 73.8541 16.1756C74.0793 16.5696 74.3795 16.884 74.7548 17.1185C75.1395 17.3437 75.5664 17.4563 76.0356 17.4563Z" fill="black"/>
<path d="M10.2865 31.4785C9.83216 31.4785 9.42612 31.3763 9.06834 31.1719C8.71624 30.9617 8.43797 30.6806 8.23352 30.3285C8.03476 29.9707 7.93537 29.5675 7.93537 29.1189C7.93537 28.6589 8.03476 28.25 8.23352 27.8922C8.43229 27.5344 8.70488 27.2562 9.0513 27.0574C9.39772 26.853 9.79525 26.7507 10.2439 26.7507C10.914 26.7507 11.4706 27.0063 11.9135 27.5174C11.993 27.6083 12.0214 27.702 11.9987 27.7985C11.976 27.8951 11.9135 27.9802 11.8113 28.0541C11.7318 28.1109 11.6438 28.1307 11.5472 28.1137C11.4507 28.091 11.3627 28.0399 11.2832 27.9604C11.0049 27.6651 10.6585 27.5174 10.2439 27.5174C9.80661 27.5174 9.45167 27.6651 9.17908 27.9604C8.90649 28.25 8.77019 28.6362 8.77019 29.1189C8.77019 29.4256 8.83266 29.6981 8.9576 29.9367C9.08821 30.1752 9.2671 30.3654 9.49426 30.5074C9.72142 30.6437 9.9855 30.7119 10.2865 30.7119C10.6727 30.7119 10.985 30.6125 11.2235 30.4137C11.3144 30.3399 11.4081 30.3001 11.5046 30.2944C11.6012 30.2831 11.6864 30.3086 11.7602 30.3711C11.8567 30.4506 11.9107 30.5415 11.922 30.6437C11.9334 30.7402 11.8993 30.8283 11.8198 30.9078C11.4109 31.2883 10.8998 31.4785 10.2865 31.4785ZM15.4793 31.4785C15.0079 31.4785 14.5876 31.3791 14.2185 31.1804C13.8551 30.9759 13.5683 30.6977 13.3581 30.3456C13.1537 29.9878 13.0515 29.5789 13.0515 29.1189C13.0515 28.6532 13.148 28.2443 13.3411 27.8922C13.5399 27.5344 13.8125 27.2562 14.1589 27.0574C14.5053 26.853 14.9028 26.7507 15.3515 26.7507C15.7944 26.7507 16.1749 26.8501 16.493 27.0489C16.811 27.242 17.0523 27.5117 17.217 27.8581C17.3874 28.1989 17.4726 28.5936 17.4726 29.0422C17.4726 29.1501 17.4357 29.241 17.3618 29.3148C17.288 29.383 17.1943 29.417 17.0807 29.417H13.8437C13.9062 29.8089 14.0851 30.1298 14.3804 30.3796C14.6814 30.6238 15.0476 30.7459 15.4793 30.7459C15.6553 30.7459 15.8342 30.7147 16.0159 30.6522C16.2033 30.5841 16.3538 30.5074 16.4674 30.4222C16.5526 30.3598 16.6435 30.3285 16.74 30.3285C16.8422 30.3228 16.9302 30.3512 17.0041 30.4137C17.1006 30.4989 17.1517 30.5926 17.1574 30.6948C17.1631 30.797 17.1176 30.8851 17.0211 30.9589C16.828 31.1122 16.5867 31.2372 16.297 31.3337C16.0131 31.4302 15.7405 31.4785 15.4793 31.4785ZM15.3515 27.4833C14.9312 27.4833 14.5933 27.5998 14.3378 27.8326C14.0822 28.0654 13.9204 28.3664 13.8522 28.7356H16.6889C16.6378 28.3721 16.4986 28.0739 16.2715 27.8411C16.0443 27.6026 15.7376 27.4833 15.3515 27.4833ZM19.0152 31.453C18.8903 31.453 18.7852 31.4132 18.7001 31.3337C18.6205 31.2485 18.5808 31.1435 18.5808 31.0185V27.2278C18.5808 27.0972 18.6205 26.9921 18.7001 26.9126C18.7852 26.8331 18.8903 26.7933 19.0152 26.7933C19.1459 26.7933 19.2509 26.8331 19.3304 26.9126C19.4099 26.9921 19.4497 27.0915 19.4497 27.2107C19.5973 27.0631 19.7734 26.9495 19.9778 26.87C20.1823 26.7848 20.4038 26.7422 20.6423 26.7422C21.2386 26.7422 21.6872 26.9665 21.9882 27.4152C22.1529 27.2051 22.363 27.0404 22.6186 26.9211C22.8741 26.8018 23.1609 26.7422 23.4789 26.7422C23.9673 26.7422 24.3649 26.9012 24.6715 27.2193C24.9782 27.5373 25.1315 27.9916 25.1315 28.5822V31.0185C25.1315 31.1435 25.0918 31.2485 25.0123 31.3337C24.9328 31.4132 24.8277 31.453 24.6971 31.453C24.5722 31.453 24.4671 31.4132 24.3819 31.3337C24.3024 31.2485 24.2626 31.1435 24.2626 31.0185V28.5822C24.2626 28.2244 24.1746 27.9604 23.9986 27.79C23.8225 27.6139 23.5925 27.5259 23.3086 27.5259C23.0133 27.5259 22.7691 27.6281 22.576 27.8326C22.3886 28.037 22.2949 28.2983 22.2949 28.6163V31.0185C22.2949 31.1435 22.2551 31.2485 22.1756 31.3337C22.0961 31.4132 21.991 31.453 21.8604 31.453C21.7355 31.453 21.6304 31.4132 21.5452 31.3337C21.4657 31.2485 21.426 31.1435 21.426 31.0185V28.5822C21.426 28.2244 21.338 27.9604 21.1619 27.79C20.9859 27.6139 20.7559 27.5259 20.4719 27.5259C20.1766 27.5259 19.9324 27.6281 19.7393 27.8326C19.5462 28.037 19.4497 28.2983 19.4497 28.6163V31.0185C19.4497 31.1435 19.4099 31.2485 19.3304 31.3337C19.2509 31.4132 19.1459 31.453 19.0152 31.453ZM28.6793 31.5211C28.2534 31.5211 27.8814 31.4444 27.5634 31.2911C27.251 31.1378 27.0068 30.922 26.8308 30.6437C26.6604 30.3598 26.5752 30.0275 26.5752 29.647V27.2107C26.5866 27.0915 26.632 26.9921 26.7115 26.9126C26.7967 26.8274 26.8961 26.7848 27.0097 26.7848C27.1346 26.7848 27.2368 26.8274 27.3163 26.9126C27.4015 26.9921 27.4441 27.0943 27.4441 27.2193V28.1733H28.8412C29.2103 28.1733 29.5397 28.2386 29.8293 28.3693C30.1246 28.4942 30.3574 28.6788 30.5278 28.923C30.6982 29.1615 30.7834 29.4483 30.7834 29.7833C30.7834 30.1184 30.6953 30.4165 30.5193 30.6778C30.3489 30.939 30.1076 31.1463 29.7952 31.2996C29.4829 31.4473 29.1109 31.5211 28.6793 31.5211ZM28.6708 30.7204C29.0342 30.7204 29.3381 30.6437 29.5823 30.4904C29.8265 30.3314 29.9486 30.0957 29.9486 29.7833C29.9486 29.488 29.8435 29.2694 29.6334 29.1274C29.4232 28.9798 29.1592 28.9059 28.8412 28.9059H27.4441V29.63C27.4441 29.8344 27.4981 30.019 27.606 30.1837C27.7139 30.3484 27.8587 30.479 28.0404 30.5756C28.2278 30.6721 28.4379 30.7204 28.6708 30.7204ZM34.8627 31.453C34.7377 31.453 34.6327 31.4132 34.5475 31.3337C34.468 31.2485 34.4282 31.1435 34.4282 31.0185V27.2193C34.4282 27.0886 34.468 26.9836 34.5475 26.9041C34.6327 26.8246 34.7377 26.7848 34.8627 26.7848C34.9933 26.7848 35.0984 26.8246 35.1779 26.9041C35.2574 26.9836 35.2971 27.0886 35.2971 27.2193V27.313C35.4732 27.1369 35.6861 26.9978 35.936 26.8956C36.1859 26.7933 36.4556 26.7422 36.7453 26.7422C37.1371 26.7422 37.4864 26.8274 37.793 26.9978C38.1054 27.1625 38.3496 27.4067 38.5256 27.7304C38.7074 28.0541 38.7982 28.4516 38.7982 28.923V31.0185C38.7982 31.1435 38.7556 31.2485 38.6705 31.3337C38.5909 31.4132 38.4887 31.453 38.3638 31.453C38.2388 31.453 38.1338 31.4132 38.0486 31.3337C37.9691 31.2485 37.9293 31.1435 37.9293 31.0185V28.923C37.9293 28.4402 37.7987 28.0881 37.5375 27.8667C37.2819 27.6395 36.9611 27.5259 36.5749 27.5259C36.3364 27.5259 36.1206 27.5742 35.9275 27.6707C35.7344 27.7673 35.5811 27.8979 35.4675 28.0626C35.3539 28.2216 35.2971 28.4062 35.2971 28.6163V31.0185C35.2971 31.1435 35.2574 31.2485 35.1779 31.3337C35.0984 31.4132 34.9933 31.453 34.8627 31.453ZM42.1941 31.487C41.8022 31.487 41.4501 31.4047 41.1378 31.24C40.8311 31.0696 40.5869 30.8226 40.4052 30.4989C40.2291 30.1752 40.1411 29.7777 40.1411 29.3063V27.2107C40.1411 27.0858 40.1809 26.9836 40.2604 26.9041C40.3455 26.8189 40.4506 26.7763 40.5755 26.7763C40.7005 26.7763 40.8027 26.8189 40.8822 26.9041C40.9674 26.9836 41.01 27.0858 41.01 27.2107V29.3063C41.01 29.789 41.1378 30.1439 41.3933 30.3711C41.6546 30.5926 41.9783 30.7033 42.3644 30.7033C42.6086 30.7033 42.8244 30.6551 43.0118 30.5585C43.2049 30.462 43.3583 30.3314 43.4718 30.1667C43.5854 30.002 43.6422 29.8174 43.6422 29.613V27.2107C43.6422 27.0801 43.682 26.9751 43.7615 26.8956C43.8467 26.816 43.9517 26.7763 44.0767 26.7763C44.2073 26.7763 44.3123 26.816 44.3918 26.8956C44.4713 26.9751 44.5111 27.0801 44.5111 27.2107V31.01C44.5111 31.1349 44.4713 31.24 44.3918 31.3252C44.3123 31.4047 44.2073 31.4444 44.0767 31.4444C43.9517 31.4444 43.8467 31.4047 43.7615 31.3252C43.682 31.24 43.6422 31.1349 43.6422 31.01V30.9163C43.4662 31.0923 43.2532 31.2315 43.0033 31.3337C42.7534 31.4359 42.4837 31.487 42.1941 31.487ZM48.0006 31.487C47.6031 31.487 47.2482 31.3933 46.9358 31.2059C46.6291 31.0185 46.3878 30.763 46.2117 30.4393C46.0357 30.1099 45.9477 29.7322 45.9477 29.3063V27.2107C45.9477 27.0801 45.9874 26.9751 46.0669 26.8956C46.1521 26.816 46.2572 26.7763 46.3821 26.7763C46.5127 26.7763 46.6178 26.816 46.6973 26.8956C46.7768 26.9751 46.8166 27.0801 46.8166 27.2107V29.3063C46.8166 29.5789 46.8733 29.8202 46.9869 30.0304C47.1062 30.2405 47.268 30.4052 47.4725 30.5244C47.6769 30.6437 47.9098 30.7033 48.171 30.7033C48.5458 30.7033 48.8525 30.6011 49.091 30.3967C49.3295 30.1922 49.4488 29.931 49.4488 29.613V27.2107C49.4488 27.0801 49.4885 26.9751 49.568 26.8956C49.6532 26.816 49.7583 26.7763 49.8832 26.7763C50.0138 26.7763 50.1189 26.816 50.1984 26.8956C50.2779 26.9751 50.3177 27.0801 50.3177 27.2107V30.7119H50.6754C50.8061 30.7119 50.9111 30.7544 50.9906 30.8396C51.0758 30.9191 51.1184 31.0242 51.1184 31.1548V32.5178C51.1184 32.6427 51.0815 32.7478 51.0077 32.833C50.9395 32.9181 50.8487 32.9607 50.7351 32.9607C50.6158 32.9607 50.5164 32.9181 50.4369 32.833C50.3574 32.7478 50.3177 32.6427 50.3177 32.5178V31.4444H50.1899C49.7469 31.4444 49.5027 31.2514 49.4573 30.8652C49.2869 31.0583 49.0768 31.2116 48.8269 31.3252C48.5827 31.4331 48.3073 31.487 48.0006 31.487ZM53.9736 31.487C53.576 31.487 53.2211 31.3933 52.9088 31.2059C52.6021 31.0185 52.3607 30.763 52.1847 30.4393C52.0086 30.1099 51.9206 29.7322 51.9206 29.3063V27.2107C51.9206 27.0801 51.9604 26.9751 52.0399 26.8956C52.1251 26.816 52.2301 26.7763 52.3551 26.7763C52.4857 26.7763 52.5907 26.816 52.6702 26.8956C52.7497 26.9751 52.7895 27.0801 52.7895 27.2107V29.3063C52.7895 29.5789 52.8463 29.8202 52.9599 30.0304C53.0791 30.2405 53.241 30.4052 53.4454 30.5244C53.6499 30.6437 53.8827 30.7033 54.1439 30.7033C54.5188 30.7033 54.8254 30.6011 55.0639 30.3967C55.3025 30.1922 55.4217 29.931 55.4217 29.613V27.2107C55.4217 27.0801 55.4615 26.9751 55.541 26.8956C55.6262 26.816 55.7312 26.7763 55.8562 26.7763C55.9868 26.7763 56.0918 26.816 56.1714 26.8956C56.2509 26.9751 56.2906 27.0801 56.2906 27.2107V30.7119H56.6484C56.779 30.7119 56.8841 30.7544 56.9636 30.8396C57.0488 30.9191 57.0914 31.0242 57.0914 31.1548V32.5178C57.0914 32.6427 57.0544 32.7478 56.9806 32.833C56.9125 32.9181 56.8216 32.9607 56.708 32.9607C56.5888 32.9607 56.4894 32.9181 56.4099 32.833C56.3304 32.7478 56.2906 32.6427 56.2906 32.5178V31.4444H56.1628C55.7199 31.4444 55.4757 31.2514 55.4302 30.8652C55.2599 31.0583 55.0497 31.2116 54.7999 31.3252C54.5557 31.4331 54.2802 31.487 53.9736 31.487ZM60.1765 31.4785C59.7052 31.4785 59.2849 31.3791 58.9158 31.1804C58.5523 30.9759 58.2655 30.6977 58.0554 30.3456C57.851 29.9878 57.7487 29.5789 57.7487 29.1189C57.7487 28.6532 57.8453 28.2443 58.0384 27.8922C58.2371 27.5344 58.5097 27.2562 58.8561 27.0574C59.2026 26.853 59.6001 26.7507 60.0487 26.7507C60.4917 26.7507 60.8722 26.8501 61.1902 27.0489C61.5082 27.242 61.7496 27.5117 61.9143 27.8581C62.0847 28.1989 62.1699 28.5936 62.1699 29.0422C62.1699 29.1501 62.1329 29.241 62.0591 29.3148C61.9853 29.383 61.8916 29.417 61.778 29.417H58.541C58.6034 29.8089 58.7823 30.1298 59.0776 30.3796C59.3786 30.6238 59.7449 30.7459 60.1765 30.7459C60.3526 30.7459 60.5315 30.7147 60.7132 30.6522C60.9006 30.5841 61.0511 30.5074 61.1647 30.4222C61.2499 30.3598 61.3407 30.3285 61.4373 30.3285C61.5395 30.3228 61.6275 30.3512 61.7013 30.4137C61.7979 30.4989 61.849 30.5926 61.8547 30.6948C61.8603 30.797 61.8149 30.8851 61.7184 30.9589C61.5253 31.1122 61.2839 31.2372 60.9943 31.3337C60.7103 31.4302 60.4378 31.4785 60.1765 31.4785ZM60.0487 27.4833C59.6285 27.4833 59.2906 27.5998 59.035 27.8326C58.7795 28.0654 58.6176 28.3664 58.5495 28.7356H61.3861C61.335 28.3721 61.1959 28.0739 60.9687 27.8411C60.7416 27.6026 60.4349 27.4833 60.0487 27.4833ZM63.7125 33.4378C63.5876 33.4378 63.4825 33.3952 63.3973 33.31C63.3178 33.2305 63.2781 33.1283 63.2781 33.0033V29.1189C63.2837 28.6702 63.3888 28.267 63.5932 27.9093C63.7977 27.5515 64.076 27.2704 64.4281 27.0659C64.7802 26.8558 65.1777 26.7507 65.6207 26.7507C66.0693 26.7507 66.4697 26.8558 66.8218 27.0659C67.1739 27.2704 67.4521 27.5515 67.6566 27.9093C67.8667 28.267 67.9718 28.6702 67.9718 29.1189C67.9718 29.5675 67.8752 29.9707 67.6821 30.3285C67.4947 30.6806 67.2363 30.9617 66.907 31.1719C66.5776 31.3763 66.2056 31.4785 65.791 31.4785C65.456 31.4785 65.1465 31.4104 64.8625 31.2741C64.5842 31.1321 64.3457 30.9419 64.147 30.7033V33.0033C64.147 33.1283 64.1072 33.2305 64.0277 33.31C63.9482 33.3952 63.8431 33.4378 63.7125 33.4378ZM65.6207 30.7119C65.9103 30.7119 66.1687 30.6437 66.3958 30.5074C66.623 30.3654 66.8019 30.1752 66.9325 29.9367C67.0688 29.6925 67.137 29.4199 67.137 29.1189C67.137 28.8122 67.0688 28.5396 66.9325 28.3011C66.8019 28.0569 66.623 27.8667 66.3958 27.7304C66.1687 27.5884 65.9103 27.5174 65.6207 27.5174C65.3367 27.5174 65.0783 27.5884 64.8455 27.7304C64.6183 27.8667 64.4394 28.0569 64.3088 28.3011C64.1782 28.5396 64.1129 28.8122 64.1129 29.1189C64.1129 29.4199 64.1782 29.6925 64.3088 29.9367C64.4394 30.1752 64.6183 30.3654 64.8455 30.5074C65.0783 30.6437 65.3367 30.7119 65.6207 30.7119ZM71.2269 31.487C70.8351 31.487 70.483 31.4047 70.1706 31.24C69.8639 31.0696 69.6197 30.8226 69.438 30.4989C69.262 30.1752 69.1739 29.7777 69.1739 29.3063V27.2107C69.1739 27.0858 69.2137 26.9836 69.2932 26.9041C69.3784 26.8189 69.4834 26.7763 69.6084 26.7763C69.7333 26.7763 69.8355 26.8189 69.9151 26.9041C70.0002 26.9836 70.0428 27.0858 70.0428 27.2107V29.3063C70.0428 29.789 70.1706 30.1439 70.4262 30.3711C70.6874 30.5926 71.0111 30.7033 71.3973 30.7033C71.6415 30.7033 71.8573 30.6551 72.0447 30.5585C72.2378 30.462 72.3911 30.3314 72.5047 30.1667C72.6183 30.002 72.6751 29.8174 72.6751 29.613V27.2107C72.6751 27.0801 72.7148 26.9751 72.7943 26.8956C72.8795 26.816 72.9846 26.7763 73.1095 26.7763C73.2401 26.7763 73.3452 26.816 73.4247 26.8956C73.5042 26.9751 73.5439 27.0801 73.5439 27.2107V31.01C73.5439 31.1349 73.5042 31.24 73.4247 31.3252C73.3452 31.4047 73.2401 31.4444 73.1095 31.4444C72.9846 31.4444 72.8795 31.4047 72.7943 31.3252C72.7148 31.24 72.6751 31.1349 72.6751 31.01V30.9163C72.499 31.0923 72.286 31.2315 72.0362 31.3337C71.7863 31.4359 71.5165 31.487 71.2269 31.487ZM77.0335 31.487C76.6416 31.487 76.2895 31.4047 75.9772 31.24C75.6705 31.0696 75.4263 30.8226 75.2446 30.4989C75.0685 30.1752 74.9805 29.7777 74.9805 29.3063V27.2107C74.9805 27.0858 75.0203 26.9836 75.0998 26.9041C75.1849 26.8189 75.29 26.7763 75.4149 26.7763C75.5399 26.7763 75.6421 26.8189 75.7216 26.9041C75.8068 26.9836 75.8494 27.0858 75.8494 27.2107V29.3063C75.8494 29.789 75.9772 30.1439 76.2327 30.3711C76.494 30.5926 76.8177 30.7033 77.2038 30.7033C77.448 30.7033 77.6638 30.6551 77.8512 30.5585C78.0443 30.462 78.1977 30.3314 78.3112 30.1667C78.4248 30.002 78.4816 29.8174 78.4816 29.613V27.2107C78.4816 27.0801 78.5214 26.9751 78.6009 26.8956C78.6861 26.816 78.7911 26.7763 78.9161 26.7763C79.0467 26.7763 79.1517 26.816 79.2312 26.8956C79.3108 26.9751 79.3505 27.0801 79.3505 27.2107V31.01C79.3505 31.1349 79.3108 31.24 79.2312 31.3252C79.1517 31.4047 79.0467 31.4444 78.9161 31.4444C78.7911 31.4444 78.6861 31.4047 78.6009 31.3252C78.5214 31.24 78.4816 31.1349 78.4816 31.01V30.9163C78.3056 31.0923 78.0926 31.2315 77.8427 31.3337C77.5928 31.4359 77.3231 31.487 77.0335 31.487ZM77.2124 26.1715C76.9227 26.1715 76.6615 26.1232 76.4287 26.0267C76.1958 25.9244 76.0112 25.7881 75.8749 25.6178C75.7387 25.4417 75.6705 25.2458 75.6705 25.03C75.6705 24.9107 75.7074 24.8114 75.7812 24.7318C75.8551 24.6523 75.9459 24.6126 76.0538 24.6126C76.1674 24.6126 76.2583 24.6523 76.3264 24.7318C76.4003 24.8114 76.4372 24.9107 76.4372 25.03C76.4372 25.172 76.511 25.2941 76.6587 25.3963C76.8063 25.4928 76.9909 25.5411 77.2124 25.5411C77.4338 25.5411 77.6184 25.4928 77.7661 25.3963C77.9137 25.2941 77.9875 25.172 77.9875 25.03C77.9875 24.9107 78.0245 24.8114 78.0983 24.7318C78.1721 24.6523 78.263 24.6126 78.3709 24.6126C78.4845 24.6126 78.5753 24.6523 78.6435 24.7318C78.7173 24.8114 78.7542 24.9107 78.7542 25.03C78.7542 25.2458 78.6861 25.4417 78.5498 25.6178C78.4135 25.7881 78.2289 25.9244 77.9961 26.0267C77.7689 26.1232 77.5077 26.1715 77.2124 26.1715Z" fill="black"/>
</svg>
