<svg width="184" height="40" viewBox="0 0 184 40" fill="none" xmlns="http://www.w3.org/2000/svg">
<path d="M49.5452 22.8467C49.5452 24.2999 49.0348 25.4937 48.0141 26.4279C46.9933 27.3622 45.6784 27.8293 44.0695 27.8293H37.2962V10.7015H42.7719C44.329 10.7015 45.6006 11.1426 46.5867 12.025C47.5902 12.89 48.0919 14.0232 48.0919 15.4246C48.0919 16.7741 47.6421 17.8467 46.7424 18.6426C47.6421 19.0059 48.3341 19.5508 48.8185 20.2775C49.303 21.0041 49.5452 21.8605 49.5452 22.8467ZM42.5643 13.608H40.5661V17.6305H42.5643C43.2736 17.6305 43.81 17.4574 44.1733 17.1114C44.5539 16.7481 44.7442 16.2464 44.7442 15.6063C44.7442 14.9834 44.5539 14.499 44.1733 14.153C43.81 13.7897 43.2736 13.608 42.5643 13.608ZM45.5746 24.3518C45.9899 23.9539 46.1975 23.4003 46.1975 22.6909C46.1975 21.9816 45.9899 21.428 45.5746 21.0301C45.1594 20.6321 44.5625 20.4332 43.784 20.4332H40.5661V24.9227H43.784C44.5625 24.9227 45.1594 24.7324 45.5746 24.3518ZM51.9445 27.8293V10.7015H55.3441V27.8293H51.9445ZM62.448 24.767H70.0517V27.8293H57.4913V26.7653L65.095 13.7637H58.3996V10.7015H69.9739V11.7655L62.448 24.767ZM82.1811 10.7015H85.5807V28.0369H84.2572L75.7452 17.7862V27.8293H72.3456V10.4939H73.6691L82.1811 20.7187V10.7015ZM88.9706 27.8293V10.7015H99.4029V13.7637H92.3702V17.3709H97.5864V20.2775H92.3702V24.767H99.6884V27.8293H88.9706ZM101.262 24.1702L103.78 22.6131C104.662 24.2567 105.856 25.0785 107.361 25.0785C108.053 25.0785 108.589 24.9227 108.97 24.6113C109.368 24.2999 109.567 23.8587 109.567 23.2878C109.567 22.838 109.428 22.466 109.151 22.1719C108.892 21.8778 108.356 21.4885 107.543 21.0041L105.908 20.0699C104.575 19.274 103.607 18.4955 103.001 17.7343C102.413 16.973 102.119 16.082 102.119 15.0613C102.119 13.6772 102.62 12.5527 103.624 11.6876C104.627 10.8226 105.899 10.3901 107.439 10.3901C110.017 10.3901 111.807 11.5665 112.811 13.9194L110.319 15.4506C109.61 14.1184 108.667 13.4523 107.491 13.4523C106.902 13.4523 106.427 13.5907 106.063 13.8675C105.717 14.127 105.544 14.5077 105.544 15.0094C105.544 15.4073 105.674 15.7533 105.934 16.0474C106.21 16.3415 106.703 16.7049 107.413 17.1374L109.126 18.0976C110.51 18.9107 111.504 19.7066 112.11 20.4851C112.715 21.2463 113.018 22.1546 113.018 23.21C113.018 24.6978 112.499 25.8916 111.461 26.7912C110.423 27.6909 109.074 28.1407 107.413 28.1407C105.977 28.1407 104.731 27.7947 103.676 27.1027C102.638 26.4106 101.833 25.4331 101.262 24.1702ZM130.916 27.8293L130.06 25.5456H124.039L123.183 27.8293H119.602L126.401 10.4939H127.724L134.498 27.8293H130.916ZM129.048 22.7688L127.05 16.9038L125.051 22.7688H129.048ZM140.15 24.767H147.753V27.8293H135.193V26.7653L142.797 13.7637H136.101V10.7015H147.675V11.7655L140.15 24.767ZM150.047 27.8293V10.7015H153.447V27.8293H150.047ZM169.374 10.7015L164.106 21.1079V27.8293H160.706V21.1598L155.412 10.7015H159.149L162.419 17.5526L165.689 10.7015H169.374ZM179.245 27.8293L178.389 25.5456H172.368L171.512 27.8293H167.931L174.73 10.4939H176.053L182.827 27.8293H179.245ZM177.377 22.7688L175.379 16.9038L173.38 22.7688H177.377Z" fill="#B9C3DC"/>
<path fill-rule="evenodd" clip-rule="evenodd" d="M31.2191 5.85366C27.5785 5.85366 24.259 7.22894 21.752 9.48832L16.5642 6.38986C20.2163 2.45921 25.4305 0 31.2191 0C37.6744 0 43.4153 3.05824 47.0721 7.80488H38.3928C36.2895 6.56496 33.8374 5.85366 31.2191 5.85366ZM39.8366 31.2195C37.4505 33.055 34.4623 34.1463 31.2191 34.1463C27.266 34.1463 23.6916 32.5249 21.1247 29.9107L15.9971 32.9732C19.6654 37.2733 25.1239 40 31.2191 40C38.1065 40 44.1808 36.5186 47.7782 31.2195H39.8366Z" fill="#B9C3DC"/>
<path fill-rule="evenodd" clip-rule="evenodd" d="M17.8002 26.9782L30.7317 19.5122L18.2116 12.2837C16.8686 14.5427 16.0974 17.1813 16.0974 20C16.0974 22.517 16.7124 24.8905 17.8002 26.9782ZM14.4174 28.9312C12.9989 26.2681 12.195 23.228 12.195 20C12.195 16.4703 13.1562 13.1652 14.8312 10.332L0 1.76923V37.2551L14.4174 28.9312Z" fill="#B9C3DC"/>
<path fill-rule="evenodd" clip-rule="evenodd" d="M14.4174 29.1132L0 37.4372V1.95123L14.8312 10.514C13.1562 13.3472 12.195 16.6523 12.195 20.182C12.195 23.4099 12.9989 26.4501 14.4174 29.1132Z" fill="#B9C3DC"/>
</svg>
