<svg width="108" height="40" viewBox="0 0 108 40" fill="none" xmlns="http://www.w3.org/2000/svg">
<path d="M0.974016 6.71795C0.32465 8.24644 1.24458 10.9334 1.78572 12.0859C0.616839 13.0321 0.108206 15.8767 0 17.1808C0 21.9846 1.78572 28.7354 5.92546 33.6484C7.38653 35.3824 10.3898 35.2634 12.5815 34.6492C14.3997 34.1397 18.3446 33.1426 21.2667 34.6492C24.5135 36.3233 30.3578 36.1049 33.9293 36.1049C38.2314 36.1049 40.5853 33.3955 42.7769 32.5567C45.4393 31.5377 51.7057 31.2602 56.4136 31.9198C60.5695 32.5021 68.5892 33.5575 75.3264 32.5567L103.655 30.919L104.548 28.2805C108.119 21.7299 107.551 12.9047 107.064 10.3572C106.577 7.80972 103.249 3.16966 100.976 1.35003C98.7035 -0.469594 93.2651 -0.0146865 92.291 0.258258C91.317 0.531202 85.5539 1.62298 83.687 1.80494C81.82 1.9869 74.4335 1.80496 65.6671 0.804157C56.9006 -0.196644 30.439 2.44182 27.598 2.80575C24.7571 3.16967 23.0525 2.53281 21.3479 1.80496C19.6433 1.07711 15.0166 0.440236 9.98399 1.25907C4.95141 2.0779 1.78572 4.80734 0.974016 6.71795Z" fill="#ECF5FF"/>
<path fill-rule="evenodd" clip-rule="evenodd" d="M90.3956 3.87929C90.7542 3.78963 92.1835 3.63509 93.8136 3.70067C94.6167 3.73298 95.4394 3.81795 96.1781 3.98099C96.9261 4.14609 97.5353 4.38002 97.9522 4.67778C98.9408 5.38392 100.208 6.67974 101.292 8.08111C102.393 9.50457 103.196 10.8994 103.387 11.7903C103.6 12.781 103.846 15.0966 103.621 17.8418C103.397 20.586 102.709 23.6883 101.111 26.3041L101.073 26.365L101.048 26.4318L100.643 27.5H101C101.167 27.1667 101.5 26.7 101.5 27.5C101.5 27.8412 101.559 28.4735 101.635 29.1982L101.637 29.1934L102.454 27.0403C104.195 24.1612 104.913 20.8254 105.147 17.9663C105.382 15.0879 105.13 12.6213 104.884 11.4697C104.615 10.2182 103.621 8.59076 102.503 7.14497C101.368 5.67709 99.9954 4.25668 98.8417 3.43255C98.1873 2.96518 97.3524 2.67308 96.5079 2.48669C95.6542 2.29826 94.7362 2.20628 93.8751 2.17164C92.177 2.10333 90.5839 2.25484 90.0244 2.39472C89.1488 2.61362 83.7565 3.52563 82.0333 3.67548C80.3499 3.82186 73.4479 3.67587 65.1912 2.8349C60.9838 2.40638 52.6144 2.7571 45.0277 3.24379C37.4177 3.73198 30.4985 4.36417 29.142 4.5192C26.6378 4.8054 25.164 4.31484 23.6097 3.72274C22.702 3.37692 21.1221 3.08326 19.2082 2.95696C17.2763 2.82948 14.946 2.86867 12.5156 3.22147C10.0477 3.57972 8.01858 4.35851 6.49332 5.27366C4.98819 6.17673 3.91313 7.25044 3.44167 8.24051C3.01652 9.13333 3.13802 10.2432 3.35038 11.1244C3.5089 11.7823 3.74342 12.4134 3.96626 12.9133C3.48467 13.4736 3.16626 14.2196 2.95315 14.8775C2.66252 15.7748 2.50775 16.7036 2.45251 17.2976L2.44922 17.333V17.3685C2.44922 21.5789 4.19105 27.4519 8.24356 31.7428C9.11735 32.6679 10.3899 33.0415 11.6165 33.1413C12.8575 33.2424 14.1673 33.0744 15.2595 32.8013C16.106 32.5897 17.4115 32.2864 18.8309 32.1865C20.2603 32.0858 21.7308 32.1974 22.9411 32.7542C24.6092 33.5215 26.874 33.832 29.0686 33.9629C30.8465 34.0689 32.6536 34.0597 34.1575 34.052H34.1576H34.1577C34.5236 34.0502 34.8717 34.0484 35.1969 34.0484C37.3806 34.0484 39.0681 33.4314 40.4542 32.7406C40.976 32.4805 41.4662 32.2038 41.9111 31.9527L41.9113 31.9526L41.9119 31.9523C42.0472 31.876 42.1782 31.802 42.3047 31.7316C42.8642 31.4201 43.3382 31.1756 43.7841 31.0233C44.9297 30.6322 46.9419 30.3621 49.2723 30.2666C51.5823 30.1719 54.1256 30.2515 56.2962 30.5229C60.0945 30.9977 67.4327 31.8641 73.7754 31.1254L74.0916 29.5442C67.858 30.3651 60.408 29.4947 56.486 29.0044C54.2188 28.721 51.5899 28.64 49.2096 28.7376C46.8497 28.8343 44.6537 29.1094 43.2896 29.5752C42.7026 29.7756 42.1246 30.0804 41.5603 30.3946C41.4185 30.4735 41.2775 30.5531 41.136 30.6329L41.136 30.633C40.6976 30.8803 40.2547 31.1302 39.7716 31.371C38.518 31.9958 37.0684 32.5181 35.1969 32.5181C34.858 32.5181 34.5002 32.5199 34.1276 32.5218H34.1275C32.6258 32.5293 30.8827 32.5381 29.1597 32.4353C26.993 32.3061 24.973 32.0044 23.5806 31.3639C22.0365 30.6536 20.2704 30.551 18.7234 30.66C17.1665 30.7696 15.7558 31.0999 14.8883 31.3168C13.9146 31.5602 12.7761 31.7004 11.7407 31.6161C10.6911 31.5306 9.85954 31.2251 9.35608 30.692C5.61581 26.7318 3.98957 21.2719 3.97953 17.4045C4.0292 16.8995 4.1646 16.1034 4.40895 15.349C4.67206 14.5367 5.00648 13.9489 5.34559 13.704L5.88404 13.3152L5.5747 12.7274C5.34362 12.2884 5.02472 11.5406 4.83807 10.766C4.64235 9.95376 4.63634 9.29102 4.82329 8.89842C5.11696 8.28171 5.9165 7.40433 7.28063 6.58585C8.62464 5.77945 10.4595 5.06624 12.7354 4.73586C15.0488 4.40004 17.271 4.36272 19.1074 4.48391C20.9618 4.60628 22.366 4.88646 23.065 5.15275C24.7243 5.78486 26.464 6.36549 29.3158 6.03957C30.6372 5.88855 37.5286 5.25827 45.1257 4.77092C52.746 4.28206 60.98 3.94416 65.0361 4.35729C73.3063 5.19963 80.3297 5.35966 82.1659 5.19999C83.9623 5.04378 89.4349 4.11947 90.3956 3.87929Z" fill="#B9C3DC"/>
<path fill-rule="evenodd" clip-rule="evenodd" d="M10.0234 24.6373V10.2528H22.0007C22.1258 10.2528 22.2513 10.2658 22.3698 10.3059C24.7032 11.0953 25.9348 15.5722 22.8012 17.139V17.445C25.3529 17.9704 26.4323 22.9865 22.4287 24.5499C22.273 24.6108 22.1037 24.6373 21.9365 24.6373H21.6535H10.0234ZM16.2207 15.9148V12.8542H17.8275C19.0517 13.3133 19.0517 15.3027 17.8275 15.9148H16.2207ZM16.2207 18.5162V21.5767H17.8275C19.0517 20.9646 19.0517 18.9753 17.8275 18.5162H16.2207Z" fill="#B9C3DC"/>
<path d="M43.46 24.6373V10.2528H48.0508L51.6469 14.9201V10.2528H57.8445V24.6373H57.6914H52.7946L49.581 20.0465V24.6373H43.46Z" fill="#B9C3DC"/>
<path d="M60.9043 24.6373V10.2528H67.0254V24.6373H60.9043Z" fill="#B9C3DC"/>
<path d="M69.0146 16.4504V10.2528H81.4098V16.4504H78.3493V24.6373H72.1517V16.4504H69.0146Z" fill="#B9C3DC"/>
<path fill-rule="evenodd" clip-rule="evenodd" d="M33.819 25.2494C38.1292 25.2494 41.6234 21.7553 41.6234 17.445C41.6234 13.1348 38.1292 9.64069 33.819 9.64069C29.5088 9.64069 26.0146 13.1348 26.0146 17.445C26.0146 21.7553 29.5088 25.2494 33.819 25.2494ZM33.8194 19.2814C34.9181 19.2814 35.8088 18.3907 35.8088 17.292C35.8088 16.1933 34.9181 15.3027 33.8194 15.3027C32.7207 15.3027 31.8301 16.1933 31.8301 17.292C31.8301 18.3907 32.7207 19.2814 33.8194 19.2814Z" fill="#B9C3DC"/>
<path fill-rule="evenodd" clip-rule="evenodd" d="M90.2858 25.2494C94.596 25.2494 98.0902 21.7553 98.0902 17.445C98.0902 13.1348 94.596 9.64069 90.2858 9.64069C85.9756 9.64069 82.4814 13.1348 82.4814 17.445C82.4814 21.7553 85.9756 25.2494 90.2858 25.2494ZM90.2852 19.2814C91.3839 19.2814 92.2746 18.3907 92.2746 17.292C92.2746 16.1933 91.3839 15.3027 90.2852 15.3027C89.1866 15.3027 88.2959 16.1933 88.2959 17.292C88.2959 18.3907 89.1866 19.2814 90.2852 19.2814Z" fill="#B9C3DC"/>
<path d="M77.888 27.3008C77.2328 26.9203 76.5058 29.7431 72.7285 31.1409C71.7377 31.5076 70.9638 31.0998 70.8516 31.9826C70.6126 33.8629 72.1897 37.5391 72.7284 38.4887C73.6455 40.0109 76.7417 39.8586 77.888 38.9453C78.3465 38.58 80.2838 38.4887 81.0821 38.6408C83.6373 39.1279 85.8594 39.6303 87.6338 38.6408C88.289 38.2755 89.108 38.4956 89.6812 38.6408C91.483 39.0975 94.3494 39.0214 95.5778 38.1842C96.2503 37.7259 97.1885 37.9559 97.6252 38.1842C99.9184 38.9757 102.703 37.8037 103.686 36.5098C105.144 34.5904 104.382 29.584 103.686 28.2902C102.834 26.7071 100.492 26.9854 99.2632 27.5291C97.8873 28.1379 95.9873 27.7769 94.8407 27.5291C92.0235 26.9202 84.9312 26.999 81.7372 27.5291C79.9028 27.8335 78.7071 27.7765 77.888 27.3008Z" fill="#ECF5FF"/>
<path fill-rule="evenodd" clip-rule="evenodd" d="M72.152 28.7691C71.5398 32.258 72.8661 35.9358 73.6058 37.3385C74.4626 38.8689 77.3552 38.7157 78.4262 37.7976C78.8545 37.4303 80.6645 37.3385 81.4103 37.4915C81.5362 37.5174 81.6612 37.5432 81.7854 37.5689L81.7887 37.5696L81.7901 37.5699C84.0181 38.0309 85.9621 38.4331 87.5314 37.4915C88.1299 37.1324 88.8747 37.3359 89.4082 37.4817L89.4442 37.4915C91.1275 37.9506 93.8055 37.8741 94.9531 37.0324C95.5814 36.5717 96.4579 36.8029 96.866 37.0324C99.0084 37.8282 101.61 36.6499 102.528 35.3492C103.89 33.4195 103.178 28.3864 102.528 27.0857C101.732 25.4942 99.5439 25.7741 98.3962 26.3206C97.1108 26.9327 95.3357 26.5697 94.2645 26.3206C91.6325 25.7085 85.0064 25.7877 82.0224 26.3206C80.3085 26.6266 79.1914 26.5694 78.4262 26.0911C77.814 25.7085 72.8501 24.7903 72.152 28.7691ZM82.9404 35.9613V28.769H85.5419V35.9613H82.9404ZM74.8301 28.769V36.1143H77.355V33.5128C78.8853 33.9719 79.2219 35.1961 79.3444 36.1143H81.9458C81.9458 34.6605 81.6398 32.9925 80.4156 32.4417C81.6398 31.753 81.9458 29.7637 81.9458 28.8455H79.3444C79.1148 30.1463 78.7323 30.7584 77.355 31.2174V28.769H74.8301ZM87.0723 28.769V35.9613H90.2093C94.2645 35.9613 94.2645 28.769 90.2093 28.769H87.0723ZM89.3682 31.0644V33.2068H89.8272C91.0515 33.2068 91.0515 31.0644 89.8272 31.0644H89.3682ZM99.3144 30.2992V28.5394C97.5546 28.0804 95.4887 28.3864 94.8001 28.769C93.1475 29.6872 93.6524 32.1662 95.7948 32.9007C96.4643 33.1303 96.5291 33.6659 95.7948 33.9719C95.3359 34.1631 94.8001 33.6965 94.8001 33.2068H93.8057V35.5022C101.304 36.4203 100.08 31.6 97.4018 30.9114C95.8715 30.5179 97.3253 28.8455 98.0904 30.2992H99.3144Z" fill="#B9C3DC"/>
</svg>
