<svg width="173" height="49" viewBox="0 0 173 49" fill="none" xmlns="http://www.w3.org/2000/svg">
<path fill-rule="evenodd" clip-rule="evenodd" d="M3.49316 48.2844C9.41498 41.9322 17.1652 35.5441 21.4627 28.791C27.9954 18.5253 29.0142 7.47231 31.0933 0C33.0587 9.55467 34.6898 18.0632 38.4969 25.2523C43.1748 34.086 51.9586 40.0168 58.5703 47.9186C56.9685 47.9999 55.3666 48.0812 53.7649 48.1625C52.0193 46.0694 50.2737 43.9762 48.5282 41.8831C29.7098 40.4206 16.2118 43.8779 3.49316 48.2844ZM13.0423 43.0415C23.2887 32.7673 28.8969 23.4021 30.8469 14.7536C32.2775 23.7601 38.4866 31.3444 45.5094 38.5606C35.2057 38.1525 22.8735 39.6684 13.0423 43.0415Z" fill="#B9C3DC"/>
<path fill-rule="evenodd" clip-rule="evenodd" d="M35.369 28.6046L61.223 31.0926C61.9373 31.2036 61.6228 32.422 60.3913 32.3883H50.3912C50.4639 32.6012 50.5033 32.8293 50.5033 33.0665C50.5033 34.2366 49.5448 35.1851 48.3625 35.1851C47.1801 35.1851 46.2216 34.2366 46.2216 33.0665C46.2216 32.8293 46.261 32.6012 46.3337 32.3883H35.9748C35.4534 34.7418 33.3347 36.5034 30.7999 36.5034C28.2651 36.5034 26.1464 34.7418 25.6249 32.3883H15.2661C15.3387 32.6012 15.3781 32.8293 15.3781 33.0665C15.3781 34.2366 14.4196 35.1851 13.2373 35.1851C12.055 35.1851 11.0964 34.2366 11.0964 33.0665C11.0964 32.8293 11.1358 32.6012 11.2085 32.3883H1.20848C-0.0229984 32.422 -0.337554 31.2036 0.376782 31.0926L26.2308 28.6046C27.0031 27.3064 28.3242 26.3663 29.8786 26.0966C29.8766 26.073 29.8758 26.0491 29.8758 26.0251V21.6356C29.8758 21.1326 30.2916 20.7211 30.7999 20.7211C31.3081 20.7211 31.724 21.1326 31.724 21.6356V26.0251C31.724 26.0491 31.7231 26.073 31.7212 26.0966C33.2755 26.3663 34.5967 27.3064 35.369 28.6046ZM28.0275 30.1631H33.5722L32.625 29.0276H28.9747L28.0275 30.1631Z" fill="#B9C3DC"/>
<path fill-rule="evenodd" clip-rule="evenodd" d="M172.535 36.6691C172.535 37.3055 172.298 37.8246 171.826 38.2258C171.353 38.6265 170.703 38.8273 169.875 38.8273C168.085 38.8273 167.19 38.1681 167.19 36.8506C167.19 36.7487 167.199 36.6149 167.215 36.4493L168.219 36.249C168.144 36.5607 168.106 36.8123 168.106 37.0032C168.106 37.8564 168.616 38.2829 169.637 38.2829C170.465 38.2829 170.879 37.9742 170.879 37.3567C170.879 36.9107 170.39 36.51 169.411 36.1535C167.981 35.638 167.265 34.842 167.265 33.7661C167.265 33.1615 167.498 32.6678 167.962 32.286C168.426 31.9042 169.055 31.7128 169.85 31.7128C171.439 31.7128 172.234 32.3909 172.234 33.7472L171.267 33.9282C171.309 33.693 171.33 33.5369 171.33 33.4603C171.33 32.6584 170.816 32.2572 169.787 32.2572C168.985 32.2572 168.583 32.5311 168.583 33.0785C168.583 33.4862 169.034 33.8427 169.938 34.1479C171.669 34.7271 172.535 35.5679 172.535 36.6691Z" fill="#B9C3DC"/>
<path fill-rule="evenodd" clip-rule="evenodd" d="M166.3 38.7029H164.682L161.684 34.3486V38.7029H160.969V31.8275H162.298L165.598 36.5258V31.8275H166.3V38.7029Z" fill="#B9C3DC"/>
<path fill-rule="evenodd" clip-rule="evenodd" d="M160.073 35.2556C160.073 37.6366 158.998 38.8273 156.849 38.8273C154.716 38.8273 153.649 37.6113 153.649 35.1796C153.649 32.8687 154.741 31.7128 156.924 31.7128C159.023 31.7128 160.073 32.8941 160.073 35.2556ZM157.877 35.2556C157.877 33.4797 157.693 32.5087 157.326 32.3432C157.2 32.286 157.041 32.2572 156.849 32.2572C156.673 32.2572 156.523 32.286 156.397 32.3432C156.029 32.5087 155.845 33.4797 155.845 35.2556C155.845 37.0445 156.029 38.0219 156.397 38.1875C156.523 38.2447 156.673 38.2735 156.849 38.2735C157.041 38.2735 157.2 38.2447 157.326 38.1875C157.693 38.0219 157.877 37.0445 157.877 35.2556Z" fill="#B9C3DC"/>
<path fill-rule="evenodd" clip-rule="evenodd" d="M152.726 38.7029H150.618V31.8275H152.726V38.7029Z" fill="#B9C3DC"/>
<path fill-rule="evenodd" clip-rule="evenodd" d="M150.078 32.5151H148.297V38.7029H146.077V32.5151H144.308V31.8275H150.078V32.5151Z" fill="#B9C3DC"/>
<path d="M138.373 34.2379C138.373 36.7225 138.4 37.0912 138.596 37.5709C138.887 38.288 139.83 38.692 141.234 38.6971C142.055 38.6971 142.495 38.5961 142.961 38.3032C143.803 37.778 143.898 37.3235 143.872 33.9248L143.883 31.8241L143.459 31.8241H143.141V34.2177C143.141 37.1164 143.114 37.3285 142.691 37.682C142.431 37.8992 142.171 37.9901 141.822 37.9901C141.266 37.9901 140.847 37.7628 140.64 37.3437C140.519 37.1063 140.519 37.0861 140.503 34.4652L140.487 31.8291H139.433H138.373V34.2379Z" fill="#B9C3DC"/>
<path fill-rule="evenodd" clip-rule="evenodd" d="M138.009 38.7029H132.94V31.8275H135.036V38.0153H138.009V38.7029Z" fill="#B9C3DC"/>
<path fill-rule="evenodd" clip-rule="evenodd" d="M132.001 35.2556C132.001 37.6366 130.926 38.8273 128.777 38.8273C126.644 38.8273 125.577 37.6113 125.577 35.1796C125.577 32.8687 126.668 31.7128 128.851 31.7128C130.951 31.7128 132.001 32.8941 132.001 35.2556ZM129.805 35.2556C129.805 33.4797 129.621 32.5087 129.253 32.3432C129.128 32.286 128.968 32.2572 128.777 32.2572C128.601 32.2572 128.45 32.286 128.325 32.3432C127.957 32.5087 127.773 33.4797 127.773 35.2556C127.773 37.0445 127.957 38.0219 128.325 38.1875C128.45 38.2447 128.601 38.2735 128.777 38.2735C128.968 38.2735 129.128 38.2447 129.253 38.1875C129.621 38.0219 129.805 37.0445 129.805 35.2556Z" fill="#B9C3DC"/>
<path fill-rule="evenodd" clip-rule="evenodd" d="M124.964 36.6695C124.964 37.3059 124.727 37.8249 124.255 38.2262C123.782 38.6269 123.132 38.8277 122.304 38.8277C120.514 38.8277 119.619 38.1685 119.619 36.851C119.619 36.7491 119.628 36.6153 119.644 36.4497L120.648 36.2494C120.573 36.5611 120.535 36.8127 120.535 37.0036C120.535 37.8568 121.045 38.2833 122.065 38.2833C122.894 38.2833 123.308 37.9746 123.308 37.3571C123.308 36.9111 122.819 36.5104 121.84 36.1539C120.409 35.6384 119.694 34.8424 119.694 33.7665C119.694 33.1619 119.927 32.6682 120.391 32.2864C120.855 31.9046 121.484 31.7132 122.279 31.7132C123.868 31.7132 124.662 32.3913 124.662 33.7476L123.696 33.9286C123.738 33.6934 123.759 33.5373 123.759 33.4607C123.759 32.6588 123.245 32.2576 122.216 32.2576C121.414 32.2576 121.012 32.5315 121.012 33.0789C121.012 33.4866 121.463 33.8431 122.366 34.1483C124.098 34.7275 124.964 35.5683 124.964 36.6695Z" fill="#B9C3DC"/>
<path fill-rule="evenodd" clip-rule="evenodd" d="M115.873 38.7029H110.805V31.8275H112.9V38.0153H115.873V38.7029Z" fill="#B9C3DC"/>
<path fill-rule="evenodd" clip-rule="evenodd" d="M110.241 38.7029H108.133L107.707 37.2134H105.524L105.06 38.7029H104.244L106.389 31.8275H108.221L110.241 38.7029ZM107.506 36.5258L106.653 33.4701L105.737 36.5258H107.506Z" fill="#B9C3DC"/>
<path fill-rule="evenodd" clip-rule="evenodd" d="M104.143 36.8693C104.143 38.0919 103.332 38.7029 101.709 38.7029H98.1338V31.8275H101.358C103.006 31.8275 103.83 32.3908 103.83 33.5178C103.83 34.3133 103.332 34.8259 102.336 35.0551C103.541 35.2714 104.143 35.8765 104.143 36.8693ZM101.76 33.5656C101.76 32.7885 101.444 32.4002 100.815 32.4002H100.229V34.8165H100.875C101.465 34.8165 101.76 34.3993 101.76 33.5656ZM102.01 36.8455C102.01 35.875 101.609 35.3892 100.806 35.3892H100.229V38.1302H100.832C101.618 38.1302 102.01 37.7016 102.01 36.8455Z" fill="#B9C3DC"/>
<path fill-rule="evenodd" clip-rule="evenodd" d="M97.2056 35.2556C97.2056 37.6366 96.1309 38.8273 93.9816 38.8273C91.8488 38.8273 90.7822 37.6113 90.7822 35.1796C90.7822 32.8687 91.8735 31.7128 94.0564 31.7128C96.156 31.7128 97.2056 32.8941 97.2056 35.2556ZM95.01 35.2556C95.01 33.4797 94.8261 32.5087 94.4584 32.3432C94.3328 32.286 94.1735 32.2572 93.9816 32.2572C93.8057 32.2572 93.6555 32.286 93.5299 32.3432C93.1616 32.5087 92.9778 33.4797 92.9778 35.2556C92.9778 37.0445 93.1616 38.0219 93.5299 38.1875C93.6555 38.2447 93.8057 38.2735 93.9816 38.2735C94.1735 38.2735 94.3328 38.2447 94.4584 38.1875C94.8261 38.0219 95.01 37.0445 95.01 35.2556Z" fill="#B9C3DC"/>
<path fill-rule="evenodd" clip-rule="evenodd" d="M90.6582 38.7029H85.5898V31.8275H87.6849V38.0153H90.6582V38.7029Z" fill="#B9C3DC"/>
<path fill-rule="evenodd" clip-rule="evenodd" d="M84.5474 38.7034H83.8827L83.6566 38.2262C83.0798 38.6269 82.4653 38.8277 81.8127 38.8277C80.617 38.8277 79.7302 38.4554 79.153 37.7101C78.6762 37.1055 78.4375 36.313 78.4375 35.3326C78.4375 34.3711 78.7053 33.5597 79.2414 32.8974C79.885 32.1079 80.8009 31.7132 81.9886 31.7132C82.6156 31.7132 83.1597 31.9329 83.6194 32.3724C84.0545 32.7796 84.272 33.2286 84.272 33.7188L83.3305 34.0434C83.3305 33.6934 83.322 33.4577 83.3059 33.3369C83.2557 33.0695 83.1511 32.8532 82.9924 32.6876C82.7578 32.452 82.4568 32.3341 82.0891 32.3341C81.8042 32.3341 81.5791 32.363 81.4108 32.4201C81.244 32.4773 81.1058 32.6081 80.9973 32.8114C80.8049 33.1744 80.7089 34.0305 80.7089 35.3803C80.7089 37.0419 80.8968 37.9522 81.2731 38.1113C81.4073 38.1685 81.5706 38.1973 81.7625 38.1973C82.3312 38.1973 82.6156 37.9234 82.6156 37.376V35.2754H81.5741V34.6544H84.5474V38.7034Z" fill="#B9C3DC"/>
<path fill-rule="evenodd" clip-rule="evenodd" d="M139.535 28.4858H135.375L134.506 25.7805H130.152L129.248 28.4858H127.646L131.904 16.0002H135.543L139.535 28.4858ZM134.094 24.5322L132.434 18.9801L130.597 24.5322H134.094Z" fill="#B9C3DC"/>
<path fill-rule="evenodd" clip-rule="evenodd" d="M127.864 17.249H124.331V28.4858H119.932V17.249H116.417V16.0002H127.864V17.249Z" fill="#B9C3DC"/>
<path fill-rule="evenodd" clip-rule="evenodd" d="M116.634 28.4858H106.565V16.0002H110.717V27.237H116.634V28.4858Z" fill="#B9C3DC"/>
<path fill-rule="evenodd" clip-rule="evenodd" d="M103.993 28.4858H93.7998V16.0002H103.109V17.249H97.9515V21.1331H102.084V22.2605H97.9515V27.237H103.993V28.4858Z" fill="#B9C3DC"/>
<path fill-rule="evenodd" clip-rule="evenodd" d="M90.7142 22.2603C90.7142 26.4103 88.5001 28.4856 84.0725 28.4856H78.4375V16H84.0725C88.5001 16 90.7142 18.0871 90.7142 22.2603ZM86.3687 22.2258C86.3687 20.0405 86.1805 18.6246 85.8006 17.977C85.588 17.6304 85.3115 17.4046 84.9763 17.3007C84.6374 17.1968 84.2107 17.1449 83.6895 17.1449H82.5881V27.3582H83.6895C84.2107 27.3582 84.6374 27.3062 84.9763 27.2024C85.3115 27.0985 85.588 26.867 85.8006 26.5085C86.1805 25.8615 86.3687 24.4338 86.3687 22.2258Z" fill="#B9C3DC"/>
</svg>
