<svg width="184" height="40" viewBox="0 0 184 40" fill="none" xmlns="http://www.w3.org/2000/svg">
<path fill-rule="evenodd" clip-rule="evenodd" d="M0.506348 0.264755C0.214224 0.383535 0.00953874 1.1942 0.00953874 2.23282V3.99932H19.087H38.1645V10.9981V17.9969H24.0551H9.94573V24.1959V30.3948H11.933H13.9202V26.1955V21.9963H28.427H42.9339V10.9981V0L21.9685 0.0315946C10.4374 0.0487917 0.779792 0.153974 0.506348 0.264755ZM0.104131 24.6958L0.208263 39.7932L21.5711 39.8968L42.9339 40V33.5979V27.1954H31.2092H19.4845V28.7879V30.38L28.7251 30.4876L37.9658 30.5948L38.0834 33.2943L38.2007 35.9939H21.49H4.77891V24.3959V12.7978H18.8883H32.9977V11.1981V9.59837H16.4988H0L0.104131 24.6958Z" fill="#B9C3DC"/>
<path d="M70.541 18.1133C69.9873 18.7764 69.2046 19.2925 68.1929 19.6616C67.1812 20.0239 66.0601 20.2051 64.8296 20.2051C63.5376 20.2051 62.4028 19.9248 61.4253 19.3643C60.4546 18.7969 59.7026 17.9766 59.1694 16.9033C58.6431 15.8301 58.373 14.5688 58.3594 13.1196V12.1045C58.3594 10.6143 58.6089 9.32568 59.1079 8.23877C59.6138 7.14502 60.3384 6.31104 61.2817 5.73682C62.2319 5.15576 63.3428 4.86523 64.6143 4.86523C66.3848 4.86523 67.769 5.28906 68.7671 6.13672C69.7651 6.97754 70.3564 8.20459 70.541 9.81787H67.5469C67.4102 8.96338 67.106 8.33789 66.6343 7.94141C66.1694 7.54492 65.5269 7.34668 64.7065 7.34668C63.6606 7.34668 62.8643 7.73975 62.3174 8.52588C61.7705 9.31201 61.4937 10.481 61.4868 12.0327V12.9863C61.4868 14.5518 61.7842 15.7344 62.3789 16.5342C62.9736 17.334 63.8452 17.7339 64.9937 17.7339C66.1489 17.7339 66.9727 17.4878 67.4648 16.9956V14.4219H64.6655V12.1558H70.541V18.1133ZM78.5698 14.5347H76.1191V20H73.043V5.07031H78.5903C80.354 5.07031 81.7144 5.46338 82.6714 6.24951C83.6284 7.03564 84.1069 8.14648 84.1069 9.58203C84.1069 10.6006 83.8848 11.4517 83.4404 12.1353C83.0029 12.812 82.3364 13.3521 81.4409 13.7554L84.6709 19.8564V20H81.3691L78.5698 14.5347ZM76.1191 12.043H78.6006C79.373 12.043 79.9712 11.8481 80.395 11.4585C80.8188 11.062 81.0308 10.5186 81.0308 9.82812C81.0308 9.12402 80.8291 8.57031 80.4258 8.16699C80.0293 7.76367 79.4175 7.56201 78.5903 7.56201H76.1191V12.043ZM95.4375 13.5298H89.5312V17.5288H96.4629V20H86.4551V5.07031H96.4424V7.56201H89.5312V11.1201H95.4375V13.5298ZM107.25 13.5298H101.344V17.5288H108.275V20H98.2676V5.07031H108.255V7.56201H101.344V11.1201H107.25V13.5298ZM122.221 20H119.145L113.156 10.1768V20H110.08V5.07031H113.156L119.155 14.9141V5.07031H122.221V20ZM133.213 14.7397V20H130.137V5.07031H135.961C137.082 5.07031 138.066 5.27539 138.914 5.68555C139.769 6.0957 140.425 6.68018 140.883 7.43896C141.341 8.19092 141.57 9.04883 141.57 10.0127C141.57 11.4756 141.067 12.6309 140.062 13.4785C139.064 14.3193 137.68 14.7397 135.91 14.7397H133.213ZM133.213 12.248H135.961C136.774 12.248 137.393 12.0566 137.817 11.6738C138.248 11.291 138.463 10.7441 138.463 10.0332C138.463 9.30176 138.248 8.71045 137.817 8.25928C137.386 7.80811 136.792 7.57568 136.033 7.56201H133.213V12.248ZM155.956 12.8735C155.956 14.3433 155.696 15.6318 155.177 16.7393C154.657 17.8467 153.912 18.7012 152.941 19.3027C151.978 19.9043 150.87 20.2051 149.619 20.2051C148.382 20.2051 147.278 19.9077 146.307 19.313C145.336 18.7183 144.584 17.8706 144.051 16.77C143.518 15.6626 143.248 14.3911 143.241 12.9556V12.2173C143.241 10.7476 143.504 9.45557 144.031 8.34131C144.564 7.22021 145.312 6.3623 146.276 5.76758C147.247 5.16602 148.354 4.86523 149.599 4.86523C150.843 4.86523 151.947 5.16602 152.911 5.76758C153.881 6.3623 154.63 7.22021 155.156 8.34131C155.689 9.45557 155.956 10.7441 155.956 12.207V12.8735ZM152.839 12.1968C152.839 10.6313 152.559 9.44189 151.998 8.62842C151.438 7.81494 150.638 7.4082 149.599 7.4082C148.566 7.4082 147.77 7.81152 147.209 8.61816C146.649 9.41797 146.365 10.5938 146.358 12.1455V12.8735C146.358 14.3979 146.639 15.5806 147.199 16.4214C147.76 17.2622 148.566 17.6826 149.619 17.6826C150.651 17.6826 151.444 17.2793 151.998 16.4727C152.552 15.6592 152.832 14.4766 152.839 12.9248V12.1968ZM165.933 16.083C165.933 15.502 165.728 15.0576 165.318 14.75C164.908 14.4355 164.169 14.1074 163.103 13.7656C162.037 13.417 161.192 13.0752 160.57 12.7402C158.875 11.8242 158.027 10.5903 158.027 9.03857C158.027 8.23193 158.253 7.51416 158.704 6.88525C159.162 6.24951 159.815 5.75391 160.663 5.39844C161.517 5.04297 162.474 4.86523 163.534 4.86523C164.6 4.86523 165.55 5.06006 166.384 5.44971C167.218 5.83252 167.864 6.37598 168.322 7.08008C168.787 7.78418 169.02 8.58398 169.02 9.47949H165.943C165.943 8.7959 165.728 8.26611 165.297 7.89014C164.867 7.50732 164.262 7.31592 163.482 7.31592C162.73 7.31592 162.146 7.47656 161.729 7.79785C161.312 8.1123 161.104 8.5293 161.104 9.04883C161.104 9.53418 161.346 9.94092 161.832 10.269C162.324 10.5972 163.045 10.9048 163.995 11.1919C165.745 11.7183 167.02 12.3711 167.82 13.1504C168.62 13.9297 169.02 14.9004 169.02 16.0625C169.02 17.3545 168.531 18.3696 167.553 19.1079C166.576 19.8394 165.26 20.2051 163.605 20.2051C162.457 20.2051 161.411 19.9966 160.468 19.5796C159.524 19.1558 158.803 18.5781 158.304 17.8467C157.812 17.1152 157.566 16.2676 157.566 15.3037H160.652C160.652 16.9512 161.637 17.7749 163.605 17.7749C164.337 17.7749 164.908 17.6279 165.318 17.334C165.728 17.0332 165.933 16.6162 165.933 16.083ZM182.35 7.56201H177.776V20H174.7V7.56201H170.188V5.07031H182.35V7.56201Z" fill="#B9C3DC"/>
<path d="M58.3677 34.686V29.9311H60.2222C60.855 29.9311 61.3398 30.0424 61.6768 30.2651C62.0166 30.4848 62.1865 30.8085 62.1865 31.2363C62.1865 31.456 62.1206 31.6552 61.9888 31.8339C61.8569 32.0097 61.6621 32.1445 61.4043 32.2382C61.6914 32.3056 61.9214 32.4374 62.0942 32.6337C62.27 32.83 62.3579 33.0644 62.3579 33.3369C62.3579 33.7734 62.1968 34.1074 61.8745 34.3388C61.5552 34.5703 61.1025 34.686 60.5166 34.686H58.3677ZM59.1807 32.5986V34.0312H60.5254C60.8652 34.0312 61.1187 33.9682 61.2856 33.8422C61.4556 33.7162 61.5405 33.539 61.5405 33.3105C61.5405 32.8359 61.1919 32.5986 60.4946 32.5986H59.1807ZM59.1807 31.9482H60.231C60.9927 31.9482 61.3735 31.7255 61.3735 31.2802C61.3735 30.8349 61.0132 30.6049 60.2925 30.5903H59.1807V31.9482ZM64.3223 31.5703H65.5571C66.0962 31.5761 66.5225 31.7167 66.8359 31.9921C67.1494 32.2675 67.3062 32.6411 67.3062 33.1127C67.3062 33.5873 67.145 33.9682 66.8228 34.2553C66.5005 34.5424 66.0669 34.686 65.522 34.686H63.5093V29.9311H64.3223V31.5703ZM69.0024 34.686H68.1851V29.9311H69.0024V34.686ZM64.3223 32.2338V34.0224H65.5308C65.8354 34.0224 66.0713 33.9448 66.2383 33.7895C66.4053 33.6313 66.4888 33.416 66.4888 33.1435C66.4888 32.8798 66.4067 32.6645 66.2427 32.4975C66.0815 32.3276 65.8545 32.2397 65.5615 32.2338H64.3223ZM73.4937 30.6035H71.3008V34.686H70.4834V29.9311H73.4937V30.6035ZM73.8979 32.2646C73.8979 31.7988 73.9888 31.3798 74.1704 31.0078C74.355 30.6357 74.6099 30.3486 74.9351 30.1464C75.2632 29.9443 75.6367 29.8432 76.0557 29.8432C76.7031 29.8432 77.2261 30.0673 77.6245 30.5156C78.0259 30.9638 78.2266 31.56 78.2266 32.3041V32.3613C78.2266 32.8242 78.1372 33.2402 77.9585 33.6093C77.7827 33.9755 77.5293 34.2612 77.1982 34.4662C76.8701 34.6713 76.4922 34.7739 76.0645 34.7739C75.4199 34.7739 74.897 34.5497 74.4956 34.1015C74.0972 33.6533 73.8979 33.06 73.8979 32.3217V32.2646ZM74.7153 32.3613C74.7153 32.8886 74.8369 33.312 75.0801 33.6313C75.3262 33.9506 75.6543 34.1103 76.0645 34.1103C76.4775 34.1103 76.8057 33.9492 77.0488 33.6269C77.292 33.3017 77.4136 32.8476 77.4136 32.2646C77.4136 31.7431 77.2891 31.3212 77.04 30.999C76.7939 30.6738 76.4658 30.5112 76.0557 30.5112C75.6543 30.5112 75.3306 30.6708 75.0845 30.9902C74.8384 31.3095 74.7153 31.7665 74.7153 32.3613ZM78.8901 34.0224L79.1714 33.6752C79.4878 33.2651 79.668 32.6498 79.7119 31.8295L79.7866 29.9311H82.8496V34.0224H83.4604V36.0834H82.6475V34.686H79.3296V36.0834H78.5166L78.521 34.0224H78.8901ZM79.8525 34.0224H82.0366V30.6826H80.5732L80.5249 31.8163C80.4751 32.7626 80.251 33.498 79.8525 34.0224ZM88.2461 34.686H87.4331V32.6557H85.249V34.686H84.4316V29.9311H85.249V31.9921H87.4331V29.9311H88.2461V34.686ZM92.4912 34.686C92.4443 34.5922 92.4062 34.4252 92.377 34.185C91.999 34.5776 91.5479 34.7739 91.0234 34.7739C90.5547 34.7739 90.1694 34.642 89.8677 34.3784C89.5688 34.1118 89.4194 33.7748 89.4194 33.3676C89.4194 32.8725 89.6069 32.4887 89.9819 32.2162C90.3599 31.9409 90.8901 31.8032 91.5728 31.8032H92.3638V31.4296C92.3638 31.1454 92.2788 30.9199 92.1089 30.7529C91.939 30.5829 91.6885 30.498 91.3574 30.498C91.0674 30.498 90.8242 30.5712 90.6279 30.7177C90.4316 30.8642 90.3335 31.0414 90.3335 31.2495H89.5161C89.5161 31.0121 89.5996 30.7836 89.7666 30.5639C89.9365 30.3412 90.165 30.1655 90.4521 30.0366C90.7422 29.9077 91.0601 29.8432 91.4058 29.8432C91.9536 29.8432 92.3828 29.9809 92.6934 30.2563C93.0039 30.5287 93.165 30.9052 93.1768 31.3857V33.5742C93.1768 34.0107 93.2324 34.3578 93.3438 34.6157V34.686H92.4912ZM91.1421 34.0663C91.397 34.0663 91.6387 34.0004 91.8672 33.8686C92.0957 33.7368 92.2612 33.5654 92.3638 33.3544V32.3788H91.7266C90.7305 32.3788 90.2324 32.6703 90.2324 33.2534C90.2324 33.5082 90.3174 33.7075 90.4873 33.851C90.6572 33.9946 90.8755 34.0663 91.1421 34.0663ZM98.0854 29.9311V34.686H97.2681V32.8359H96.042L94.9214 34.686H94.0425L95.2378 32.7128C94.9331 32.6015 94.6987 32.4301 94.5347 32.1987C94.3735 31.9643 94.293 31.6918 94.293 31.3813C94.293 30.9477 94.4556 30.5991 94.7808 30.3354C95.106 30.0688 95.541 29.934 96.0859 29.9311H98.0854ZM95.1104 31.3901C95.1104 31.6215 95.1895 31.809 95.3477 31.9526C95.5059 32.0932 95.7153 32.165 95.9761 32.1679H97.2681V30.5903H96.0991C95.7974 30.5903 95.5571 30.665 95.3784 30.8144C95.1997 30.9609 95.1104 31.1528 95.1104 31.3901ZM101.583 34.0224L101.865 33.6752C102.181 33.2651 102.361 32.6498 102.405 31.8295L102.48 29.9311H105.543V34.0224H106.154V36.0834H105.341V34.686H102.023V36.0834H101.21L101.214 34.0224H101.583ZM102.546 34.0224H104.73V30.6826H103.267L103.218 31.8163C103.168 32.7626 102.944 33.498 102.546 34.0224ZM106.839 32.2646C106.839 31.7988 106.93 31.3798 107.112 31.0078C107.296 30.6357 107.551 30.3486 107.876 30.1464C108.205 29.9443 108.578 29.8432 108.997 29.8432C109.645 29.8432 110.167 30.0673 110.566 30.5156C110.967 30.9638 111.168 31.56 111.168 32.3041V32.3613C111.168 32.8242 111.079 33.2402 110.9 33.6093C110.724 33.9755 110.471 34.2612 110.14 34.4662C109.812 34.6713 109.434 34.7739 109.006 34.7739C108.361 34.7739 107.838 34.5497 107.437 34.1015C107.039 33.6533 106.839 33.06 106.839 32.3217V32.2646ZM107.657 32.3613C107.657 32.8886 107.778 33.312 108.021 33.6313C108.268 33.9506 108.596 34.1103 109.006 34.1103C109.419 34.1103 109.747 33.9492 109.99 33.6269C110.233 33.3017 110.355 32.8476 110.355 32.2646C110.355 31.7431 110.23 31.3212 109.981 30.999C109.735 30.6738 109.407 30.5112 108.997 30.5112C108.596 30.5112 108.272 30.6708 108.026 30.9902C107.78 31.3095 107.657 31.7665 107.657 32.3613ZM114.095 34.1103C114.385 34.1103 114.638 34.0224 114.855 33.8466C115.072 33.6708 115.192 33.4511 115.215 33.1874H115.984C115.97 33.4599 115.876 33.7192 115.703 33.9653C115.53 34.2114 115.299 34.4077 115.009 34.5541C114.722 34.7006 114.417 34.7739 114.095 34.7739C113.447 34.7739 112.932 34.5585 112.548 34.1279C112.167 33.6943 111.977 33.1025 111.977 32.3525V32.2162C111.977 31.7534 112.062 31.3417 112.231 30.9814C112.401 30.621 112.645 30.3412 112.961 30.142C113.28 29.9428 113.657 29.8432 114.09 29.8432C114.624 29.8432 115.066 30.0029 115.417 30.3222C115.772 30.6415 115.961 31.0561 115.984 31.5659H115.215C115.192 31.2582 115.075 31.0063 114.864 30.81C114.656 30.6108 114.398 30.5112 114.09 30.5112C113.677 30.5112 113.356 30.6606 113.128 30.9594C112.902 31.2553 112.79 31.6845 112.79 32.247V32.4008C112.79 32.9487 112.902 33.3705 113.128 33.6664C113.354 33.9623 113.676 34.1103 114.095 34.1103ZM120.432 30.5903H118.836V34.686H118.023V30.5903H116.459V29.9311H120.432V30.5903ZM124.088 34.686C124.041 34.5922 124.003 34.4252 123.974 34.185C123.596 34.5776 123.145 34.7739 122.62 34.7739C122.151 34.7739 121.766 34.642 121.464 34.3784C121.166 34.1118 121.016 33.7748 121.016 33.3676C121.016 32.8725 121.204 32.4887 121.579 32.2162C121.957 31.9409 122.487 31.8032 123.169 31.8032H123.96V31.4296C123.96 31.1454 123.875 30.9199 123.706 30.7529C123.536 30.5829 123.285 30.498 122.954 30.498C122.664 30.498 122.421 30.5712 122.225 30.7177C122.028 30.8642 121.93 31.0414 121.93 31.2495H121.113C121.113 31.0121 121.196 30.7836 121.363 30.5639C121.533 30.3412 121.762 30.1655 122.049 30.0366C122.339 29.9077 122.657 29.8432 123.002 29.8432C123.55 29.8432 123.979 29.9809 124.29 30.2563C124.601 30.5287 124.762 30.9052 124.773 31.3857V33.5742C124.773 34.0107 124.829 34.3578 124.94 34.6157V34.686H124.088ZM122.739 34.0663C122.994 34.0663 123.235 34.0004 123.464 33.8686C123.692 33.7368 123.858 33.5654 123.96 33.3544V32.3788H123.323C122.327 32.3788 121.829 32.6703 121.829 33.2534C121.829 33.5082 121.914 33.7075 122.084 33.851C122.254 33.9946 122.472 34.0663 122.739 34.0663ZM126.123 34.686V29.9311H127.977C128.61 29.9311 129.095 30.0424 129.432 30.2651C129.771 30.4848 129.941 30.8085 129.941 31.2363C129.941 31.456 129.875 31.6552 129.744 31.8339C129.612 32.0097 129.417 32.1445 129.159 32.2382C129.446 32.3056 129.676 32.4374 129.849 32.6337C130.025 32.83 130.113 33.0644 130.113 33.3369C130.113 33.7734 129.952 34.1074 129.629 34.3388C129.31 34.5703 128.857 34.686 128.271 34.686H126.123ZM126.936 32.5986V34.0312H128.28C128.62 34.0312 128.874 33.9682 129.041 33.8422C129.21 33.7162 129.295 33.539 129.295 33.3105C129.295 32.8359 128.947 32.5986 128.25 32.5986H126.936ZM126.936 31.9482H127.986C128.748 31.9482 129.128 31.7255 129.128 31.2802C129.128 30.8349 128.768 30.6049 128.047 30.5903H126.936V31.9482ZM132.67 32.6601H132.077V34.686H131.26V29.9311H132.077V31.9438H132.609L134.208 29.9311H135.193L133.312 32.2162L135.351 34.686H134.318L132.67 32.6601ZM138.985 34.686C138.938 34.5922 138.9 34.4252 138.871 34.185C138.493 34.5776 138.042 34.7739 137.518 34.7739C137.049 34.7739 136.664 34.642 136.362 34.3784C136.063 34.1118 135.914 33.7748 135.914 33.3676C135.914 32.8725 136.101 32.4887 136.476 32.2162C136.854 31.9409 137.384 31.8032 138.067 31.8032H138.858V31.4296C138.858 31.1454 138.773 30.9199 138.603 30.7529C138.433 30.5829 138.183 30.498 137.852 30.498C137.562 30.498 137.318 30.5712 137.122 30.7177C136.926 30.8642 136.828 31.0414 136.828 31.2495H136.01C136.01 31.0121 136.094 30.7836 136.261 30.5639C136.431 30.3412 136.659 30.1655 136.946 30.0366C137.236 29.9077 137.554 29.8432 137.9 29.8432C138.448 29.8432 138.877 29.9809 139.188 30.2563C139.498 30.5287 139.659 30.9052 139.671 31.3857V33.5742C139.671 34.0107 139.727 34.3578 139.838 34.6157V34.686H138.985ZM137.636 34.0663C137.891 34.0663 138.133 34.0004 138.361 33.8686C138.59 33.7368 138.755 33.5654 138.858 33.3544V32.3788H138.221C137.225 32.3788 136.727 32.6703 136.727 33.2534C136.727 33.5082 136.812 33.7075 136.981 33.851C137.151 33.9946 137.37 34.0663 137.636 34.0663ZM146.254 29.9311H147.067V34.686H146.254V31.2187L144.061 34.686H143.248V29.9311H144.061V33.4028L146.254 29.9311ZM150.987 31.2319C150.987 31.0092 150.902 30.8334 150.732 30.7045C150.562 30.5727 150.329 30.5068 150.033 30.5068C149.746 30.5068 149.506 30.5815 149.312 30.7309C149.122 30.8803 149.027 31.0561 149.027 31.2582H148.218C148.218 30.8452 148.391 30.5068 148.737 30.2431C149.083 29.9794 149.515 29.8476 150.033 29.8476C150.59 29.8476 151.023 29.9677 151.334 30.2079C151.645 30.4453 151.8 30.7851 151.8 31.2275C151.8 31.4413 151.735 31.6376 151.606 31.8163C151.478 31.9951 151.294 32.1371 151.057 32.2426C151.611 32.4301 151.888 32.7993 151.888 33.35C151.888 33.7866 151.719 34.1323 151.382 34.3871C151.045 34.642 150.596 34.7695 150.033 34.7695C149.485 34.7695 149.033 34.6362 148.675 34.3696C148.321 34.1 148.144 33.7368 148.144 33.2797H148.952C148.952 33.5112 149.055 33.7104 149.26 33.8774C149.468 34.0414 149.726 34.1235 150.033 34.1235C150.344 34.1235 150.594 34.0517 150.785 33.9081C150.975 33.7646 151.07 33.5786 151.07 33.35C151.07 33.0834 150.99 32.893 150.829 32.7787C150.67 32.6616 150.423 32.603 150.086 32.603H149.273V31.9174H150.156C150.71 31.9028 150.987 31.6743 150.987 31.2319ZM156.963 31.812H156.186V34.686H155.342V28.2875H156.186V31.1088H156.845L159.082 28.2875H160.132L157.688 31.3901L160.312 34.686H159.279L156.963 31.812ZM163.929 29.9311H164.742V34.686H163.929V31.2187L161.736 34.686H160.923V29.9311H161.736V33.4028L163.929 29.9311ZM169.58 30.5903H167.985V34.686H167.172V30.5903H165.607V29.9311H169.58V30.5903ZM173.236 34.686C173.189 34.5922 173.151 34.4252 173.122 34.185C172.744 34.5776 172.293 34.7739 171.769 34.7739C171.3 34.7739 170.915 34.642 170.613 34.3784C170.314 34.1118 170.165 33.7748 170.165 33.3676C170.165 32.8725 170.352 32.4887 170.727 32.2162C171.105 31.9409 171.635 31.8032 172.318 31.8032H173.109V31.4296C173.109 31.1454 173.024 30.9199 172.854 30.7529C172.684 30.5829 172.434 30.498 172.103 30.498C171.812 30.498 171.569 30.5712 171.373 30.7177C171.177 30.8642 171.079 31.0414 171.079 31.2495H170.261C170.261 31.0121 170.345 30.7836 170.512 30.5639C170.682 30.3412 170.91 30.1655 171.197 30.0366C171.487 29.9077 171.805 29.8432 172.151 29.8432C172.699 29.8432 173.128 29.9809 173.438 30.2563C173.749 30.5287 173.91 30.9052 173.922 31.3857V33.5742C173.922 34.0107 173.978 34.3578 174.089 34.6157V34.686H173.236ZM171.887 34.0663C172.142 34.0663 172.384 34.0004 172.612 33.8686C172.841 33.7368 173.006 33.5654 173.109 33.3544V32.3788H172.472C171.476 32.3788 170.978 32.6703 170.978 33.2534C170.978 33.5082 171.062 33.7075 171.232 33.851C171.402 33.9946 171.621 34.0663 171.887 34.0663ZM178.831 29.9311V34.686H178.013V32.8359H176.787L175.667 34.686H174.788L175.983 32.7128C175.678 32.6015 175.444 32.4301 175.28 32.1987C175.119 31.9643 175.038 31.6918 175.038 31.3813C175.038 30.9477 175.201 30.5991 175.526 30.3354C175.851 30.0688 176.286 29.934 176.831 29.9311H178.831ZM175.855 31.3901C175.855 31.6215 175.935 31.809 176.093 31.9526C176.251 32.0932 176.46 32.165 176.721 32.1679H178.013V30.5903H176.844C176.542 30.5903 176.302 30.665 176.124 30.8144C175.945 30.9609 175.855 31.1528 175.855 31.3901Z" fill="#B9C3DC"/>
</svg>
