<svg width="113" height="51" viewBox="0 0 113 51" fill="none" xmlns="http://www.w3.org/2000/svg">
<path d="M55.6211 37.3379H49.2002L47.9795 41H44.0854L50.7017 23.2266H54.0952L60.748 41H56.854L55.6211 37.3379ZM50.189 34.3716H54.6323L52.3984 27.7188L50.189 34.3716ZM74.0659 26.1929H66.0947V41H62.4326V23.2266H74.0659V26.1929ZM81.1338 23.2266L85.6992 36.1172L90.2402 23.2266H95.0498V41H91.3755V36.1416L91.7417 27.7554L86.9443 41H84.4297L79.6445 27.7676L80.0107 36.1416V41H76.3486V23.2266H81.1338ZM104.046 33.7368H101.935V41H98.2725V23.2266H101.935V30.3433H103.607L107.953 23.2266H112.42L106.939 31.6372L112.994 41H108.624L104.046 33.7368Z" fill="#606060"/>
<path fill-rule="evenodd" clip-rule="evenodd" d="M4.9375 35.1875L14.5 2L24.0625 35.1875V25.625H21.8125V21.6875H28V40.25C24.625 53.75 4.375 53.75 1 40.25V21.6875H7.1875V25.625H4.9375V35.1875ZM22.9375 42.5L21.25 36.875H20.125C19.5625 44.1875 9.4375 44.1875 8.875 36.875H7.75L6.0625 42.5C9.4375 47 19.5625 47 22.9375 42.5ZM14.5 13.25L8.3125 35.1875H9.15625C10.5625 29.5625 18.4375 29.5625 19.8438 35.1875H20.6875L14.5 13.25Z" fill="#FFC802"/>
<path d="M14.5 2L14.7703 1.92213L14.5 0.984186L14.2297 1.92213L14.5 2ZM4.9375 35.1875H4.65625L5.20776 35.2654L4.9375 35.1875ZM24.0625 35.1875L23.7922 35.2654L24.3438 35.1875H24.0625ZM24.0625 25.625H24.3438V25.3438H24.0625V25.625ZM21.8125 25.625H21.5312V25.9062H21.8125V25.625ZM21.8125 21.6875V21.4062H21.5312V21.6875H21.8125ZM28 21.6875H28.2812V21.4062H28V21.6875ZM28 40.25L28.2729 40.3182L28.2812 40.2846V40.25H28ZM1 40.25H0.71875V40.2846L0.727147 40.3182L1 40.25ZM1 21.6875V21.4062H0.71875V21.6875H1ZM7.1875 21.6875H7.46875V21.4062H7.1875V21.6875ZM7.1875 25.625V25.9062H7.46875V25.625H7.1875ZM4.9375 25.625V25.3438H4.65625V25.625H4.9375ZM21.25 36.875L21.5194 36.7942L21.4593 36.5938H21.25V36.875ZM22.9375 42.5L23.1625 42.6688L23.2477 42.5552L23.2069 42.4192L22.9375 42.5ZM20.125 36.875V36.5938H19.8646L19.8446 36.8534L20.125 36.875ZM8.875 36.875L9.15542 36.8534L9.13545 36.5938H8.875V36.875ZM7.75 36.875V36.5938H7.54074L7.48061 36.7942L7.75 36.875ZM6.0625 42.5L5.79311 42.4192L5.75232 42.5552L5.8375 42.6688L6.0625 42.5ZM8.3125 35.1875L8.04181 35.1112L7.94095 35.4688H8.3125V35.1875ZM14.5 13.25L14.7707 13.1737L14.5 12.2139L14.2293 13.1737L14.5 13.25ZM9.15625 35.1875V35.4688H9.37584L9.4291 35.2557L9.15625 35.1875ZM19.8438 35.1875L19.5709 35.2557L19.6242 35.4688H19.8438V35.1875ZM20.6875 35.1875V35.4688H21.059L20.9582 35.1112L20.6875 35.1875ZM14.2297 1.92213L4.66724 35.1096L5.20776 35.2654L14.7703 2.07787L14.2297 1.92213ZM24.3328 35.1096L14.7703 1.92213L14.2297 2.07787L23.7922 35.2654L24.3328 35.1096ZM23.7812 25.625V35.1875H24.3438V25.625H23.7812ZM21.8125 25.9062H24.0625V25.3438H21.8125V25.9062ZM21.5312 21.6875V25.625H22.0938V21.6875H21.5312ZM28 21.4062H21.8125V21.9688H28V21.4062ZM28.2812 40.25V21.6875H27.7188V40.25H28.2812ZM0.727147 40.3182C2.45208 47.2179 8.49182 50.6562 14.5 50.6562C20.5082 50.6562 26.5479 47.2179 28.2729 40.3182L27.7271 40.1818C26.0771 46.7821 20.3043 50.0938 14.5 50.0938C8.69568 50.0938 2.92292 46.7821 1.27285 40.1818L0.727147 40.3182ZM0.71875 21.6875V40.25H1.28125V21.6875H0.71875ZM7.1875 21.4062H1V21.9688H7.1875V21.4062ZM7.46875 25.625V21.6875H6.90625V25.625H7.46875ZM4.9375 25.9062H7.1875V25.3438H4.9375V25.9062ZM5.21875 35.1875V25.625H4.65625V35.1875H5.21875ZM20.9806 36.9558L22.6681 42.5808L23.2069 42.4192L21.5194 36.7942L20.9806 36.9558ZM20.125 37.1562H21.25V36.5938H20.125V37.1562ZM8.59458 36.8966C9.18371 44.5553 19.8163 44.5553 20.4054 36.8966L19.8446 36.8534C19.3087 43.8197 9.69129 43.8197 9.15542 36.8534L8.59458 36.8966ZM7.75 37.1562H8.875V36.5938H7.75V37.1562ZM6.33189 42.5808L8.01939 36.9558L7.48061 36.7942L5.79311 42.4192L6.33189 42.5808ZM22.7125 42.3312C21.1006 44.4804 17.8324 45.5938 14.5 45.5938C11.1676 45.5938 7.89935 44.4804 6.2875 42.3312L5.8375 42.6688C7.60065 45.0196 11.0824 46.1562 14.5 46.1562C17.9176 46.1562 21.3994 45.0196 23.1625 42.6688L22.7125 42.3312ZM8.58319 35.2638L14.7707 13.3263L14.2293 13.1737L8.04181 35.1112L8.58319 35.2638ZM9.15625 34.9062H8.3125V35.4688H9.15625V34.9062ZM20.1166 35.1193C18.6393 29.2102 10.3607 29.2102 8.8834 35.1193L9.4291 35.2557C10.7643 29.9148 18.2357 29.9148 19.5709 35.2557L20.1166 35.1193ZM20.6875 34.9062H19.8438V35.4688H20.6875V34.9062ZM14.2293 13.3263L20.4168 35.2638L20.9582 35.1112L14.7707 13.1737L14.2293 13.3263Z" fill="#606060"/>
</svg>
