<svg width="291" height="40" viewBox="0 0 291 40" fill="none" xmlns="http://www.w3.org/2000/svg">
<path d="M65.1719 19.5518C65.1719 16.8564 66.1875 14.5469 68.2188 12.623C70.25 10.6992 72.6914 9.7373 75.543 9.7373C78.3262 9.7373 80.7236 10.709 82.7354 12.6523C84.7471 14.5859 85.7529 16.8857 85.7529 19.5518C85.7529 22.374 84.7568 24.7617 82.7646 26.7148C80.7822 28.6582 78.3457 29.6299 75.4551 29.6299C72.6035 29.6299 70.1768 28.6484 68.1748 26.6855C66.1729 24.7227 65.1719 22.3447 65.1719 19.5518ZM83.043 19.6689C83.043 17.6084 82.3008 15.875 80.8164 14.4688C79.332 13.0527 77.5059 12.3447 75.3379 12.3447C73.2773 12.3447 71.5098 13.0625 70.0352 14.498C68.5703 15.9336 67.8379 17.6572 67.8379 19.6689C67.8379 21.71 68.5898 23.4385 70.0938 24.8545C71.6074 26.2607 73.458 26.9639 75.6455 26.9639C77.6572 26.9639 79.3906 26.2461 80.8457 24.8105C82.3105 23.3652 83.043 21.6514 83.043 19.6689ZM104.488 9.56152L109.586 29H107.096L104.005 17.1201L98.6875 29.7178L93.3555 17.0322L90.2354 29H87.7451L92.8428 9.56152L98.6875 23.4775L104.488 9.56152ZM112.032 10.3379H122.374V12.8867H114.552V17.5449H122.374V20.0645H114.552V26.4805H122.374V29H112.032V10.3379ZM143.424 13.3115L141.534 15.1719C139.63 13.3066 137.428 12.374 134.928 12.374C132.74 12.374 130.919 13.0771 129.464 14.4834C128.009 15.8896 127.281 17.6475 127.281 19.7568C127.281 21.6025 127.984 23.2676 129.391 24.752C130.807 26.2266 132.755 26.9639 135.235 26.9639C138.956 26.9639 141.295 25.3428 142.252 22.1006H137.213V19.5518H145.167C145.167 20.8311 145.079 21.8516 144.903 22.6133C144.737 23.375 144.386 24.2148 143.849 25.1328C143.312 26.0508 142.594 26.876 141.695 27.6084C140.807 28.3311 139.85 28.8486 138.824 29.1611C137.809 29.4736 136.593 29.6299 135.177 29.6299C131.954 29.6299 129.381 28.6191 127.457 26.5977C125.543 24.5664 124.586 22.2471 124.586 19.6396C124.586 16.8955 125.567 14.5615 127.53 12.6377C129.493 10.7041 131.871 9.7373 134.664 9.7373C136.324 9.7373 137.838 9.99121 139.205 10.499C140.582 10.9971 141.988 11.9346 143.424 13.3115ZM155.494 9.62012L164.312 29H161.646L159.464 24.2246H151.539L149.415 29H146.764L155.494 9.62012ZM155.494 15.4648L152.491 22.1006H158.497L155.494 15.4648ZM181.92 9.62012L190.738 29H188.072L185.89 24.2246H177.965L175.841 29H173.189L181.92 9.62012ZM181.92 15.4648L178.917 22.1006H184.923L181.92 15.4648ZM193.463 10.3379H195.982V26.4805H202.062V29H193.463V10.3379ZM205.006 10.3379H207.525V26.4805H213.604V29H205.006V10.3379ZM216.153 10.3379H218.673V29H216.153V10.3379ZM229.732 9.62012L238.551 29H235.885L233.702 24.2246H225.777L223.653 29H221.002L229.732 9.62012ZM229.732 15.4648L226.729 22.1006H232.735L229.732 15.4648ZM240.763 9.59082L254.562 23.7852V10.3379H257.11V29.8643L243.312 15.7432V29H240.763V9.59082ZM276.007 10.9678V13.8535C273.995 12.8672 272.145 12.374 270.455 12.374C268.287 12.374 266.461 13.0771 264.977 14.4834C263.492 15.8799 262.75 17.5986 262.75 19.6396C262.75 21.7197 263.507 23.458 265.021 24.8545C266.544 26.2412 268.448 26.9346 270.733 26.9346C272.394 26.9346 274.151 26.4121 276.007 25.3672V28.2822C274.317 29.1807 272.486 29.6299 270.514 29.6299C267.623 29.6299 265.152 28.6533 263.102 26.7002C261.051 24.7373 260.025 22.374 260.025 19.6104C260.025 16.8955 261.031 14.5713 263.043 12.6377C265.064 10.7041 267.496 9.7373 270.338 9.7373C272.164 9.7373 274.054 10.1475 276.007 10.9678ZM278.849 10.3379H289.19V12.8867H281.368V17.5449H289.19V20.0645H281.368V26.4805H289.19V29H278.849V10.3379Z" fill="#B9C3DC"/>
<path fill-rule="evenodd" clip-rule="evenodd" d="M30.8778 1.44666C34.6189 2.9802 37.7833 5.666 39.932 9.09095H38.2485C35.8053 5.93641 34.1313 4.46785 30.3465 2.74289C26.8761 1.32032 23.0475 1.01993 19.3977 1.88387C15.748 2.74782 12.4603 4.73274 9.99593 7.56013C7.77081 10.1131 6.31685 13.1226 5.79246 16.4312H11.8519V17.5087H5.65659V17.4998L5.65576 17.5085H4.26274C4.648 13.4837 6.2833 9.6876 8.93986 6.63966C11.5964 3.59172 15.1406 1.45197 19.075 0.520638C23.0095 -0.410697 27.1368 -0.0868785 30.8778 1.44666ZM4.17507 19.3119C4.16523 23.2438 5.34872 27.0627 7.5757 30.3031H9.22553L8.70304 29.5539C6.63284 26.5416 5.52889 22.9704 5.53803 19.3153L4.17507 19.3119ZM39.9338 10.909V10.9138H40.9566C42.7269 14.5646 43.308 18.6859 42.6072 22.6946H41.2643V22.6938H38.4504V21.6164H41.346V21.9494C41.8412 18.5436 41.3486 15.0713 39.9338 11.9435V11.9864H30.8428V10.909H39.9338ZM32.9293 32.3907H35.9583C38.2238 30.2284 39.8855 27.5125 40.7797 24.512L41.4577 24.512H42.1978C41.3888 27.4498 39.9001 30.1471 37.8617 32.3907H48.0809V33.6702H32.9293V32.3907ZM13.4007 32.3907H0V33.6702H13.4007V32.3907ZM9.29344 35.4209H15.8254V36.4983H9.29344V35.4209ZM27.2728 38.7205H14.1415V40H27.2728V38.7205ZM29.6297 38.7205H32.5253V40H29.6297V38.7205ZM37.7101 35.4209H17.5754V36.4983H37.7101V35.4209ZM22.2897 4.78124H21.2122V11.8177L13.3329 25.4549H14.9556L14.9557 25.4546H18.6523V24.3772H15.5787L21.2122 14.6345V29.2256H14.074V30.3031H14.0747L15.8589 33.67H15.8926V33.6702H28.0139V32.3907H16.5637L15.3539 30.3031H30.8526L29.7601 33.6699L30.9702 33.6684L31.9865 30.3031L31.9866 30.3031V29.2256H22.2897V12.9733L29.6051 25.6567H24.3088V27.0708H30.5042V27.0701L32.0533 27.0702L22.2897 10.1691V7.40754H25.2514V6.3301H22.2897V4.78124Z" fill="#B9C3DC"/>
</svg>
