<svg width="35" height="35" viewBox="0 0 35 35" fill="none" xmlns="http://www.w3.org/2000/svg">
<circle cx="17.5" cy="17.5" r="17.5" fill="white"/>
<path d="M17.1464 20.3536C17.3417 20.5488 17.6583 20.5488 17.8536 20.3536L21.0355 17.1716C21.2308 16.9763 21.2308 16.6597 21.0355 16.4645C20.8403 16.2692 20.5237 16.2692 20.3284 16.4645L17.5 19.2929L14.6716 16.4645C14.4763 16.2692 14.1597 16.2692 13.9645 16.4645C13.7692 16.6597 13.7692 16.9763 13.9645 17.1716L17.1464 20.3536ZM17 10V20H18V10H17Z" fill="#B3E6F5"/>
<path d="M10.5 17C10.5 16.7239 10.2761 16.5 10 16.5C9.72386 16.5 9.5 16.7239 9.5 17H10.5ZM25.5 17C25.5 16.7239 25.2761 16.5 25 16.5C24.7239 16.5 24.5 16.7239 24.5 17H25.5ZM9.5 17V22H10.5V17H9.5ZM9.5 22C9.5 22.6122 9.71595 23.2126 10.0396 23.6656C10.3517 24.1027 10.8403 24.5 11.4286 24.5V23.5C11.3025 23.5 11.0768 23.3973 10.8533 23.0844C10.6412 22.7874 10.5 22.3878 10.5 22H9.5ZM11.4286 24.5H23.5714V23.5H11.4286V24.5ZM23.5714 24.5C24.1597 24.5 24.6483 24.1027 24.9604 23.6656C25.2841 23.2126 25.5 22.6122 25.5 22H24.5C24.5 22.3878 24.3588 22.7874 24.1467 23.0844C23.9232 23.3973 23.6975 23.5 23.5714 23.5V24.5ZM25.5 22V17H24.5V22H25.5Z" fill="#B3E6F5"/>
</svg>
