<svg width="35" height="35" viewBox="0 0 35 35" fill="none" xmlns="http://www.w3.org/2000/svg">
<circle cx="17.5" cy="17.5" r="17.5" fill="white"/>
<path d="M16.448 11.4261C16.2783 11.4261 16.0238 11.4997 15.7693 11.6128C14.2424 12.2914 13.0548 14.3273 12.8851 15.6846L12.5458 18.7385L11.1885 21.4531C10.8492 22.1317 10.8492 23.014 12.2065 23.014H22.7254C24.0827 23.014 24.0827 22.1317 23.7434 21.4531L22.3861 18.7385L22.0468 15.6846C21.8771 14.3273 20.6895 12.2914 19.1626 11.6128C18.9081 11.494 18.6536 11.4261 18.5179 11.4261" stroke="#B3E6F5"/>
<path fill-rule="evenodd" clip-rule="evenodd" d="M18.5642 11.4092C18.5551 10.8197 18.0744 10.3446 17.4827 10.3446C16.8911 10.3446 16.4104 10.8197 16.4013 11.4092H15.0566C15.0658 10.0771 16.1485 9 17.4827 9C18.817 9 19.8997 10.0771 19.9088 11.4092H18.5642Z" fill="#B3E6F5"/>
<path fill-rule="evenodd" clip-rule="evenodd" d="M14.3467 23.1497C14.4176 24.7359 15.726 26 17.3297 26C18.9333 26 20.2417 24.7359 20.3127 23.1497H19.1243C19.0549 24.0802 18.2779 24.8136 17.3297 24.8136C16.3814 24.8136 15.6045 24.0802 15.5351 23.1497H14.3467Z" fill="#B3E6F5"/>
</svg>
