<svg width="35" height="35" viewBox="0 0 35 35" fill="none" xmlns="http://www.w3.org/2000/svg">
<circle cx="17.5" cy="17.5" r="17.5" fill="white"/>
<path d="M16.6674 11.6391C16.9657 11.3408 17.3759 11.1819 17.7973 11.2013L21.5569 11.375C22.3309 11.4108 22.9503 12.0302 22.986 12.8042L23.1597 16.5638C23.1792 16.9852 23.0203 17.3954 22.722 17.6937L15.8221 24.5936C15.2363 25.1794 14.2865 25.1794 13.7007 24.5936L9.76746 20.6603C9.18167 20.0745 9.18167 19.1248 9.76746 18.539L16.6674 11.6391Z" stroke="#B3E6F5"/>
<circle cx="19.8643" cy="14.724" r="1.14375" transform="rotate(45 19.8643 14.724)" stroke="#B3E6F5" stroke-width="0.9"/>
<path d="M22.9027 15.9569C23.7588 15.72 24.5903 15.1466 25.2554 14.3344C25.9205 13.5223 26.3782 12.5217 26.5504 11.5031C26.7226 10.4845 26.5987 9.51093 26.1998 8.74827C25.801 7.98561 25.1518 7.48105 24.3629 7.32056C23.574 7.16007 22.6942 7.35358 21.8734 7.86813C21.0527 8.38267 20.3417 9.18641 19.8617 10.1424C19.3817 11.0984 19.1623 12.1475 19.2409 13.1109C19.3195 14.0743 19.6913 14.8925 20.2929 15.426L20.9203 14.5314C20.462 14.125 20.1788 13.5018 20.1189 12.7679C20.059 12.0341 20.2261 11.235 20.5918 10.5068C20.9574 9.77859 21.499 9.16637 22.1242 8.77443C22.7493 8.3825 23.4195 8.23509 24.0204 8.35734C24.6213 8.47959 25.1158 8.86392 25.4197 9.44485C25.7235 10.0258 25.8179 10.7674 25.6867 11.5433C25.5555 12.3191 25.2069 13.0813 24.7003 13.6999C24.1936 14.3185 23.5603 14.7553 22.9082 14.9358L22.9027 15.9569Z" fill="#B3E6F5"/>
</svg>
